<svg version="1.1" viewBox="0.0 0.0 890.0 546.0" fill="none" stroke="none" stroke-linecap="square" stroke-miterlimit="10" width="890" height="546" xmlns:xlink="http://www.w3.org/1999/xlink" xmlns="http://www.w3.org/2000/svg"><path fill="#ffffff" d="M0 0L890.0 0L890.0 546.0L0 546.0L0 0Z" fill-rule="nonzero"/><path fill="#4285f4" d="M445.0 27.3C556.8404 27.3 654.56934 102.831085 682.7642 211.05922L445.0 273.0Z" fill-rule="nonzero"/><path fill="#edf8f9" d="M440.44635 27.342201C441.96405 27.314068 443.48203 27.3 445.0 27.3L445.0 273.0Z" fill-rule="nonzero"/><path fill="#fff0e6" d="M435.89426 27.46879C437.4112 27.412533 438.92862 27.370335 440.44635 27.342201L445.0 273.0Z" fill-rule="nonzero"/><path fill="#ebf6ee" d="M431.34528 27.679722C432.86093 27.59536 434.37732 27.525047 435.89426 27.46879L445.0 273.0Z" fill-rule="nonzero"/><path fill="#fff8e6" d="M426.801 27.974926C428.31482 27.86249 429.82965 27.764084 431.34528 27.679722L445.0 273.0Z" fill-rule="nonzero"/><path fill="#fdeceb" d="M422.26297 28.354301C423.77444 28.213827 425.2872 28.087364 426.801 27.974926L445.0 273.0Z" fill-rule="nonzero"/><path fill="#ecf3fe" d="M417.73276 28.817715C419.24136 28.649254 420.75153 28.494776 422.26297 28.354301L445.0 273.0Z" fill-rule="nonzero"/><path fill="#b5e5e8" d="M413.2119 29.365011C414.71713 29.168617 416.22415 28.986177 417.73276 28.817715L445.0 273.0Z" fill-rule="nonzero"/><path fill="#ffc599" d="M408.702 29.995998C410.2033 29.771742 411.7067 29.561403 413.2119 29.365011L445.0 273.0Z" fill-rule="nonzero"/><path fill="#aedcba" d="M404.20453 30.710463C405.70145 30.45842 407.20065 30.220255 408.702 29.995998L445.0 273.0Z" fill-rule="nonzero"/><path fill="#fde49b" d="M395.2532 32.388805C398.22635 31.774103 401.21063 31.214558 404.20453 30.710463L445.0 273.0Z" fill-rule="nonzero"/><path fill="#f7b4ae" d="M390.8024 33.35211C392.283 33.01727 393.76666 32.69615 395.2532 32.388805L445.0 273.0Z" fill-rule="nonzero"/><path fill="#b3cefb" d="M386.3702 34.39774C387.84436 34.035515 389.3218 33.686954 390.8024 33.35211L445.0 273.0Z" fill-rule="nonzero"/><path fill="#7ed1d7" d="M381.95816 35.52533C383.42535 35.135845 384.8961 34.759968 386.3702 34.39774L445.0 273.0Z" fill-rule="nonzero"/><path fill="#ff994d" d="M377.56778 36.7345C379.0275 36.31789 380.491 35.914818 381.95816 35.52533L445.0 273.0Z" fill-rule="nonzero"/><path fill="#71c287" d="M373.20056 38.02483C374.65228 37.581238 376.1081 37.151108 377.56778 36.7345L445.0 273.0Z" fill-rule="nonzero"/><path fill="#fcd04f" d="M368.858 39.395878C370.30127 38.925457 371.74884 38.468422 373.20056 38.02483L445.0 273.0Z" fill-rule="nonzero"/><path fill="#f07b72" d="M364.5416 40.84717C365.9759 40.350082 367.41476 39.866295 368.858 39.395878L445.0 273.0Z" fill-rule="nonzero"/><path fill="#7baaf7" d="M351.7641 45.677414C355.9777 43.949223 360.2385 42.33852 364.5416 40.84717L445.0 273.0Z" fill-rule="nonzero"/><path fill="#46bdc6" d="M343.40347 49.28894C346.16782 48.033546 348.95517 46.8295 351.7641 45.677414L445.0 273.0Z" fill-rule="nonzero"/><path fill="#ff6d01" d="M335.18243 53.207836C337.89835 51.85086 340.63916 50.544334 343.40347 49.28894L445.0 273.0Z" fill-rule="nonzero"/><path fill="#34a853" d="M307.66922 69.26304C316.48337 63.321796 325.67374 57.958794 335.18243 53.207836L445.0 273.0Z" fill-rule="nonzero"/><path fill="#fbbc04" d="M282.46445 88.74289C290.43582 81.711235 298.8551 75.20428 307.66922 69.26304L445.0 273.0Z" fill-rule="nonzero"/><path fill="#ea4335" d="M682.7642 211.05922C713.2578 328.11105 654.02203 449.94427 543.1292 498.2535C432.23645 546.56274 302.67938 506.97504 237.72777 404.93448C172.77614 302.89392 191.75427 168.75949 282.46445 88.74289L445.0 273.0Z" fill-rule="nonzero"/><path fill="#1a1a1a" d="M28.425 38.3L28.425 29.70625L29.55 29.70625L29.55 38.3L28.425 38.3ZM31.190624 38.3L31.190624 29.70625L32.909374 29.70625L34.940624 35.784374Q35.221874 36.64375 35.346874 37.065624Q35.4875 36.596874 35.8 35.690624L37.8625 29.70625L39.39375 29.70625L39.39375 38.3L38.3 38.3L38.3 31.1125L35.8 38.3L34.76875 38.3L32.284374 30.9875L32.284374 38.3L31.190624 38.3ZM40.221874 38.3L40.221874 29.70625L41.378124 29.70625L45.89375 36.45625L45.89375 29.70625L46.9875 29.70625L46.9875 38.3L45.815624 38.3L41.3 31.55L41.3 38.3L40.221874 38.3ZM49.221874 38.3L49.221874 29.70625L50.378124 29.70625L54.89375 36.45625L54.89375 29.70625L55.9875 29.70625L55.9875 38.3L54.815624 38.3L50.3 31.55L50.3 38.3L49.221874 38.3Z" fill-rule="nonzero"/><path fill="#9e9e9e" d="M27.8 51.065624Q27.8 49.534374 28.1125 48.6125Q28.425 47.675 29.034374 47.175Q29.659374 46.675 30.596874 46.675Q31.284374 46.675 31.8 46.95625Q32.33125 47.2375 32.675 47.76875Q33.01875 48.284374 33.20625 49.034374Q33.39375 49.784374 33.39375 51.065624Q33.39375 52.58125 33.08125 53.503124Q32.784374 54.425 32.159374 54.940624Q31.55 55.440624 30.596874 55.440624Q29.3625 55.440624 28.64375 54.55Q27.8 53.4875 27.8 51.065624ZM28.878124 51.065624Q28.878124 53.175 29.378124 53.878124Q29.878124 54.58125 30.596874 54.58125Q31.33125 54.58125 31.815624 53.878124Q32.315624 53.175 32.315624 51.065624Q32.315624 48.940624 31.815624 48.253124Q31.33125 47.55 30.58125 47.55Q29.8625 47.55 29.425 48.159374Q28.878124 48.940624 28.878124 51.065624ZM35.39375 55.3L35.39375 54.096874L36.596874 54.096874L36.596874 55.3L35.39375 55.3ZM43.26875 48.815624L42.221874 48.89375Q42.08125 48.26875 41.83125 47.9875Q41.39375 47.534374 40.76875 47.534374Q40.26875 47.534374 39.878124 47.815624Q39.39375 48.190624 39.096874 48.89375Q38.815624 49.58125 38.8 50.8625Q39.175 50.284374 39.721874 50.003124Q40.284374 49.721874 40.89375 49.721874Q41.940624 49.721874 42.675 50.503124Q43.425 51.284374 43.425 52.503124Q43.425 53.315624 43.065624 54.01875Q42.721874 54.70625 42.1125 55.08125Q41.503124 55.440624 40.7375 55.440624Q39.409374 55.440624 38.58125 54.471874Q37.753124 53.503124 37.753124 51.284374Q37.753124 48.784374 38.675 47.659374Q39.471874 46.675 40.83125 46.675Q41.846874 46.675 42.4875 47.253124Q43.14375 47.815624 43.26875 48.815624ZM38.971874 52.51875Q38.971874 53.065624 39.190624 53.565624Q39.425 54.05 39.83125 54.315624Q40.253124 54.58125 40.721874 54.58125Q41.378124 54.58125 41.8625 54.05Q42.346874 53.503124 42.346874 52.58125Q42.346874 51.690624 41.8625 51.175Q41.39375 50.659374 40.675 50.659374Q39.95625 50.659374 39.45625 51.175Q38.971874 51.690624 38.971874 52.51875ZM45.003124 48.76875Q45.003124 47.846874 45.45625 47.20625Q45.925 46.565624 46.8 46.565624Q47.6125 46.565624 48.14375 47.14375Q48.675 47.721874 48.675 48.83125Q48.675 49.925 48.128124 50.51875Q47.596874 51.096874 46.815624 51.096874Q46.034374 51.096874 45.51875 50.51875Q45.003124 49.940624 45.003124 48.76875ZM46.83125 47.284374Q46.440624 47.284374 46.175 47.628124Q45.925 47.971874 45.925 48.878124Q45.925 49.70625 46.175 50.05Q46.440624 50.378124 46.83125 50.378124Q47.2375 50.378124 47.4875 50.034374Q47.753124 49.690624 47.753124 48.8Q47.753124 47.95625 47.4875 47.628124Q47.221874 47.284374 46.83125 47.284374ZM46.83125 55.6125L51.534374 46.565624L52.39375 46.565624L47.70625 55.6125L46.83125 55.6125ZM50.55 53.284374Q50.55 52.3625 51.003124 51.721874Q51.471874 51.08125 52.3625 51.08125Q53.175 51.08125 53.70625 51.659374Q54.2375 52.221874 54.2375 53.346874Q54.2375 54.440624 53.690624 55.034374Q53.159374 55.6125 52.3625 55.6125Q51.596874 55.6125 51.065624 55.034374Q50.55 54.45625 50.55 53.284374ZM52.39375 51.8Q51.9875 51.8 51.721874 52.14375Q51.471874 52.4875 51.471874 53.39375Q51.471874 54.20625 51.7375 54.55Q52.003124 54.89375 52.39375 54.89375Q52.784374 54.89375 53.05 54.55Q53.315624 54.20625 53.315624 53.3Q53.315624 52.471874 53.05 52.14375Q52.784374 51.8 52.39375 51.8Z" fill-rule="nonzero"/><path stroke="#757575" stroke-width="1.0" stroke-linecap="butt" d="M27.3 42.8L193.3 42.8L401.98505 43.58275" fill-rule="nonzero"/><path fill="#9e9e9e" d="M403.98505 43.58275C403.98505 42.47818 403.0896 41.58275 401.98505 41.58275C400.88046 41.58275 399.98505 42.47818 399.98505 43.58275C399.98505 44.687317 400.88046 45.58275 401.98505 45.58275C403.0896 45.58275 403.98505 44.687317 403.98505 43.58275" fill-rule="nonzero"/><path fill="#1a1a1a" d="M32.253124 65.925L32.253124 64.925L35.878124 64.90938L35.878124 68.09688Q35.05 68.76875 34.159374 69.1125Q33.26875 69.44063 32.33125 69.44063Q31.065624 69.44063 30.01875 68.90938Q28.9875 68.3625 28.45625 67.34688Q27.940624 66.31563 27.940624 65.05Q27.940624 63.784378 28.45625 62.706253Q28.9875 61.612503 29.971874 61.096878Q30.95625 60.565628 32.2375 60.565628Q33.175 60.565628 33.925 60.862503Q34.675 61.159378 35.096874 61.706253Q35.534374 62.237503 35.753124 63.112503L34.7375 63.393753Q34.534374 62.737503 34.2375 62.362503Q33.95625 61.987503 33.425 61.768753Q32.89375 61.534378 32.253124 61.534378Q31.471874 61.534378 30.89375 61.768753Q30.33125 62.003128 29.971874 62.393753Q29.628124 62.784378 29.440624 63.253128Q29.1125 64.05 29.1125 64.97188Q29.1125 66.12813 29.503124 66.90938Q29.909374 67.675 30.659374 68.05Q31.409374 68.425 32.26875 68.425Q33.003124 68.425 33.70625 68.14375Q34.409374 67.84688 34.76875 67.53438L34.76875 65.925L32.253124 65.925ZM37.2375 69.3L37.2375 60.706253L41.05 60.706253Q42.20625 60.706253 42.8 60.940628Q43.39375 61.175003 43.753124 61.768753Q44.1125 62.346878 44.1125 63.050003Q44.1125 63.971878 43.51875 64.59688Q42.925 65.22188 41.690624 65.39375Q42.14375 65.6125 42.378124 65.81563Q42.878124 66.26875 43.315624 66.95625L44.815624 69.3L43.378124 69.3L42.253124 67.51875Q41.753124 66.7375 41.425 66.33125Q41.1125 65.925 40.846874 65.76875Q40.596874 65.59688 40.33125 65.51875Q40.14375 65.4875 39.70625 65.4875L38.378124 65.4875L38.378124 69.3L37.2375 69.3ZM38.378124 64.50313L40.83125 64.50313Q41.596874 64.50313 42.034374 64.34688Q42.4875 64.175 42.70625 63.831253Q42.940624 63.471878 42.940624 63.050003Q42.940624 62.440628 42.4875 62.050003Q42.05 61.659378 41.096874 61.659378L38.378124 61.659378L38.378124 64.50313ZM51.8625 60.706253L53.003124 60.706253L53.003124 65.675Q53.003124 66.97188 52.70625 67.7375Q52.409374 68.4875 51.64375 68.97188Q50.878124 69.44063 49.64375 69.44063Q48.440624 69.44063 47.659374 69.03438Q46.89375 68.6125 46.565624 67.83125Q46.2375 67.03438 46.2375 65.675L46.2375 60.706253L47.378124 60.706253L47.378124 65.65938Q47.378124 66.78438 47.58125 67.31563Q47.8 67.84688 48.3 68.14375Q48.815624 68.425 49.55 68.425Q50.8 68.425 51.33125 67.8625Q51.8625 67.28438 51.8625 65.65938L51.8625 60.706253Z" fill-rule="nonzero"/><path fill="#9e9e9e" d="M27.8 82.06563Q27.8 80.53438 28.1125 79.6125Q28.425 78.675 29.034374 78.175Q29.659374 77.675 30.596874 77.675Q31.284374 77.675 31.8 77.95625Q32.33125 78.2375 32.675 78.76875Q33.01875 79.28438 33.20625 80.03438Q33.39375 80.78438 33.39375 82.06563Q33.39375 83.58125 33.08125 84.50313Q32.784374 85.425 32.159374 85.94063Q31.55 86.44063 30.596874 86.44063Q29.3625 86.44063 28.64375 85.55Q27.8 84.4875 27.8 82.06563ZM28.878124 82.06563Q28.878124 84.175 29.378124 84.87813Q29.878124 85.58125 30.596874 85.58125Q31.33125 85.58125 31.815624 84.87813Q32.315624 84.175 32.315624 82.06563Q32.315624 79.94063 31.815624 79.25313Q31.33125 78.55 30.58125 78.55Q29.8625 78.55 29.425 79.15938Q28.878124 79.94063 28.878124 82.06563ZM35.39375 86.3L35.39375 85.09688L36.596874 85.09688L36.596874 86.3L35.39375 86.3ZM37.95625 84.31563L38.971874 84.22188Q39.096874 84.94063 39.45625 85.26875Q39.83125 85.58125 40.39375 85.58125Q40.878124 85.58125 41.2375 85.3625Q41.6125 85.12813 41.846874 84.76875Q42.08125 84.39375 42.2375 83.76875Q42.39375 83.12813 42.39375 82.47188Q42.39375 82.39375 42.39375 82.25313Q42.08125 82.75313 41.534374 83.08125Q40.9875 83.39375 40.346874 83.39375Q39.26875 83.39375 38.534374 82.62813Q37.8 81.84688 37.8 80.58125Q37.8 79.26875 38.565624 78.47188Q39.346874 77.675 40.503124 77.675Q41.33125 77.675 42.01875 78.12813Q42.721874 78.58125 43.08125 79.425Q43.440624 80.25313 43.440624 81.83125Q43.440624 83.47188 43.08125 84.45625Q42.7375 85.425 42.01875 85.94063Q41.315624 86.44063 40.378124 86.44063Q39.3625 86.44063 38.721874 85.89375Q38.08125 85.33125 37.95625 84.31563ZM42.26875 80.51875Q42.26875 79.6125 41.784374 79.08125Q41.315624 78.55 40.628124 78.55Q39.925 78.55 39.39375 79.12813Q38.878124 79.69063 38.878124 80.6125Q38.878124 81.425 39.378124 81.94063Q39.878124 82.45625 40.596874 82.45625Q41.33125 82.45625 41.8 81.94063Q42.26875 81.425 42.26875 80.51875ZM45.003124 79.76875Q45.003124 78.84688 45.45625 78.20625Q45.925 77.56563 46.8 77.56563Q47.6125 77.56563 48.14375 78.14375Q48.675 78.72188 48.675 79.83125Q48.675 80.925 48.128124 81.51875Q47.596874 82.09688 46.815624 82.09688Q46.034374 82.09688 45.51875 81.51875Q45.003124 80.94063 45.003124 79.76875ZM46.83125 78.28438Q46.440624 78.28438 46.175 78.62813Q45.925 78.97188 45.925 79.87813Q45.925 80.70625 46.175 81.05Q46.440624 81.37813 46.83125 81.37813Q47.2375 81.37813 47.4875 81.03438Q47.753124 80.69063 47.753124 79.8Q47.753124 78.95625 47.4875 78.62813Q47.221874 78.28438 46.83125 78.28438ZM46.83125 86.6125L51.534374 77.56563L52.39375 77.56563L47.70625 86.6125L46.83125 86.6125ZM50.55 84.28438Q50.55 83.3625 51.003124 82.72188Q51.471874 82.08125 52.3625 82.08125Q53.175 82.08125 53.70625 82.65938Q54.2375 83.22188 54.2375 84.34688Q54.2375 85.44063 53.690624 86.03438Q53.159374 86.6125 52.3625 86.6125Q51.596874 86.6125 51.065624 86.03438Q50.55 85.45625 50.55 84.28438ZM52.39375 82.8Q51.9875 82.8 51.721874 83.14375Q51.471874 83.4875 51.471874 84.39375Q51.471874 85.20625 51.7375 85.55Q52.003124 85.89375 52.39375 85.89375Q52.784374 85.89375 53.05 85.55Q53.315624 85.20625 53.315624 84.3Q53.315624 83.47188 53.05 83.14375Q52.784374 82.8 52.39375 82.8Z" fill-rule="nonzero"/><path stroke="#757575" stroke-width="1.0" stroke-linecap="butt" d="M27.3 73.8L193.3 73.8L362.46332 54.664803" fill-rule="nonzero"/><path fill="#9e9e9e" d="M364.46332 54.664803C364.46332 53.560234 363.5679 52.664803 362.46332 52.664803C361.35873 52.664803 360.46332 53.560234 360.46332 54.664803C360.46332 55.76937 361.35873 56.664803 362.46332 56.664803C363.5679 56.664803 364.46332 55.76937 364.46332 54.664803" fill-rule="nonzero"/><path fill="#1a1a1a" d="M28.190624 100.3L28.190624 91.70625L29.909374 91.70625L31.940624 97.78438Q32.221874 98.64375 32.346874 99.06563Q32.4875 98.59688 32.8 97.69063L34.8625 91.70625L36.39375 91.70625L36.39375 100.3L35.3 100.3L35.3 93.1125L32.8 100.3L31.76875 100.3L29.284374 92.9875L29.284374 100.3L28.190624 100.3ZM37.221874 100.3L37.221874 91.70625L40.190624 91.70625Q41.190624 91.70625 41.721874 91.83125Q42.45625 92.00313 42.971874 92.44063Q43.659374 93.01875 43.9875 93.925Q44.33125 94.81563 44.33125 95.95625Q44.33125 96.94063 44.096874 97.69063Q43.878124 98.44063 43.51875 98.94063Q43.159374 99.44063 42.721874 99.72188Q42.3 100.00313 41.70625 100.15938Q41.1125 100.3 40.33125 100.3L37.221874 100.3ZM38.3625 99.28438L40.190624 99.28438Q41.05 99.28438 41.534374 99.12813Q42.01875 98.97188 42.3 98.675Q42.70625 98.28438 42.925 97.59688Q43.159374 96.90938 43.159374 95.94063Q43.159374 94.59688 42.70625 93.87813Q42.26875 93.14375 41.64375 92.89375Q41.175 92.72188 40.175 92.72188L38.3625 92.72188L38.3625 99.28438ZM46.221874 100.3L46.221874 91.70625L47.378124 91.70625L51.89375 98.45625L51.89375 91.70625L52.9875 91.70625L52.9875 100.3L51.815624 100.3L47.3 93.55L47.3 100.3L46.221874 100.3Z" fill-rule="nonzero"/><path fill="#9e9e9e" d="M33.346874 116.28438L33.346874 117.3L27.659374 117.3Q27.659374 116.925 27.784374 116.56563Q28.003124 115.9875 28.471874 115.425Q28.95625 114.8625 29.8625 114.12813Q31.26875 112.97188 31.753124 112.3Q32.253124 111.62813 32.253124 111.03438Q32.253124 110.40938 31.8 109.9875Q31.346874 109.55 30.628124 109.55Q29.8625 109.55 29.409374 110.00313Q28.95625 110.45625 28.940624 111.26875L27.8625 111.15938Q27.971874 109.94063 28.690624 109.31563Q29.425 108.675 30.659374 108.675Q31.89375 108.675 32.6125 109.3625Q33.33125 110.05 33.33125 111.06563Q33.33125 111.58125 33.1125 112.08125Q32.909374 112.56563 32.409374 113.12813Q31.925 113.675 30.8 114.62813Q29.846874 115.425 29.565624 115.72188Q29.3 116.00313 29.128124 116.28438L33.346874 116.28438ZM35.39375 117.3L35.39375 116.09688L36.596874 116.09688L36.596874 117.3L35.39375 117.3ZM41.76875 117.3L40.721874 117.3L40.721874 110.58125Q40.33125 110.94063 39.70625 111.31563Q39.096874 111.675 38.6125 111.84688L38.6125 110.83125Q39.4875 110.40938 40.14375 109.83125Q40.815624 109.2375 41.096874 108.675L41.76875 108.675L41.76875 117.3ZM45.003124 110.76875Q45.003124 109.84688 45.45625 109.20625Q45.925 108.56563 46.8 108.56563Q47.6125 108.56563 48.14375 109.14375Q48.675 109.72188 48.675 110.83125Q48.675 111.925 48.128124 112.51875Q47.596874 113.09688 46.815624 113.09688Q46.034374 113.09688 45.51875 112.51875Q45.003124 111.94063 45.003124 110.76875ZM46.83125 109.28438Q46.440624 109.28438 46.175 109.62813Q45.925 109.97188 45.925 110.87813Q45.925 111.70625 46.175 112.05Q46.440624 112.37813 46.83125 112.37813Q47.2375 112.37813 47.4875 112.03438Q47.753124 111.69063 47.753124 110.8Q47.753124 109.95625 47.4875 109.62813Q47.221874 109.28438 46.83125 109.28438ZM46.83125 117.6125L51.534374 108.56563L52.39375 108.56563L47.70625 117.6125L46.83125 117.6125ZM50.55 115.28438Q50.55 114.3625 51.003124 113.72188Q51.471874 113.08125 52.3625 113.08125Q53.175 113.08125 53.70625 113.65938Q54.2375 114.22188 54.2375 115.34688Q54.2375 116.44063 53.690624 117.03438Q53.159374 117.6125 52.3625 117.6125Q51.596874 117.6125 51.065624 117.03438Q50.55 116.45625 50.55 115.28438ZM52.39375 113.8Q51.9875 113.8 51.721874 114.14375Q51.471874 114.4875 51.471874 115.39375Q51.471874 116.20625 51.7375 116.55Q52.003124 116.89375 52.39375 116.89375Q52.784374 116.89375 53.05 116.55Q53.315624 116.20625 53.315624 115.3Q53.315624 114.47188 53.05 114.14375Q52.784374 113.8 52.39375 113.8Z" fill-rule="nonzero"/><path stroke="#757575" stroke-width="1.0" stroke-linecap="butt" d="M27.3 104.8L193.3 104.8L327.3571 71.39963" fill-rule="nonzero"/><path fill="#9e9e9e" d="M329.3571 71.39963C329.3571 70.29506 328.46167 69.39963 327.3571 69.39963C326.25253 69.39963 325.3571 70.29506 325.3571 71.39963C325.3571 72.504196 326.25253 73.39963 327.3571 73.39963C328.46167 73.39963 329.3571 72.504196 329.3571 71.39963" fill-rule="nonzero"/><path fill="#1a1a1a" d="M27.846874 128.53438L28.909374 128.44063Q28.9875 129.09688 29.26875 129.50313Q29.55 129.90938 30.128124 130.175Q30.721874 130.425 31.45625 130.425Q32.096874 130.425 32.596874 130.2375Q33.096874 130.03438 33.33125 129.70625Q33.58125 129.3625 33.58125 128.97188Q33.58125 128.56563 33.346874 128.26875Q33.1125 127.95625 32.58125 127.75313Q32.221874 127.6125 31.034374 127.33125Q29.8625 127.05 29.39375 126.8Q28.76875 126.47188 28.471874 126.00313Q28.175 125.51875 28.175 124.925Q28.175 124.28438 28.534374 123.72188Q28.909374 123.14375 29.6125 122.8625Q30.33125 122.56563 31.190624 122.56563Q32.14375 122.56563 32.878124 122.87813Q33.6125 123.175 34.003124 123.78438Q34.39375 124.37813 34.425 125.12813L33.33125 125.20625Q33.2375 124.39375 32.721874 123.9875Q32.221874 123.56563 31.2375 123.56563Q30.20625 123.56563 29.7375 123.94063Q29.26875 124.31563 29.26875 124.84688Q29.26875 125.31563 29.596874 125.6125Q29.925 125.90938 31.3 126.22188Q32.690624 126.53438 33.20625 126.76875Q33.95625 127.12813 34.315624 127.65938Q34.675 128.175 34.675 128.87813Q34.675 129.56563 34.284374 130.175Q33.89375 130.76875 33.159374 131.1125Q32.425 131.44063 31.503124 131.44063Q30.33125 131.44063 29.534374 131.1125Q28.753124 130.76875 28.3 130.08125Q27.8625 129.39375 27.846874 128.53438ZM35.878124 127.1125Q35.878124 124.97188 37.01875 123.76875Q38.175 122.55 39.9875 122.55Q41.190624 122.55 42.14375 123.12813Q43.096874 123.69063 43.596874 124.70625Q44.096874 125.72188 44.096874 127.01875Q44.096874 128.31563 43.565624 129.34688Q43.034374 130.37813 42.065624 130.90938Q41.1125 131.44063 39.9875 131.44063Q38.76875 131.44063 37.815624 130.8625Q36.8625 130.26875 36.3625 129.26875Q35.878124 128.25313 35.878124 127.1125ZM37.05 127.12813Q37.05 128.69063 37.878124 129.58125Q38.721874 130.47188 39.9875 130.47188Q41.26875 130.47188 42.096874 129.58125Q42.925 128.675 42.925 127.00313Q42.925 125.95625 42.565624 125.175Q42.221874 124.39375 41.534374 123.97188Q40.846874 123.53438 40.003124 123.53438Q38.8 123.53438 37.925 124.3625Q37.05 125.19063 37.05 127.12813ZM45.190624 131.3L45.190624 122.70625L46.909374 122.70625L48.940624 128.78438Q49.221874 129.64375 49.346874 130.06563Q49.4875 129.59688 49.8 128.69063L51.8625 122.70625L53.39375 122.70625L53.39375 131.3L52.3 131.3L52.3 124.1125L49.8 131.3L48.76875 131.3L46.284374 123.9875L46.284374 131.3L45.190624 131.3Z" fill-rule="nonzero"/><path fill="#9e9e9e" d="M33.346874 147.28438L33.346874 148.3L27.659374 148.3Q27.659374 147.925 27.784374 147.56563Q28.003124 146.9875 28.471874 146.425Q28.95625 145.8625 29.8625 145.12813Q31.26875 143.97188 31.753124 143.3Q32.253124 142.62813 32.253124 142.03438Q32.253124 141.40938 31.8 140.9875Q31.346874 140.55 30.628124 140.55Q29.8625 140.55 29.409374 141.00313Q28.95625 141.45625 28.940624 142.26875L27.8625 142.15938Q27.971874 140.94063 28.690624 140.31563Q29.425 139.675 30.659374 139.675Q31.89375 139.675 32.6125 140.3625Q33.33125 141.05 33.33125 142.06563Q33.33125 142.58125 33.1125 143.08125Q32.909374 143.56563 32.409374 144.12813Q31.925 144.675 30.8 145.62813Q29.846874 146.425 29.565624 146.72188Q29.3 147.00313 29.128124 147.28438L33.346874 147.28438ZM35.39375 148.3L35.39375 147.09688L36.596874 147.09688L36.596874 148.3L35.39375 148.3ZM41.76875 148.3L40.721874 148.3L40.721874 141.58125Q40.33125 141.94063 39.70625 142.31563Q39.096874 142.675 38.6125 142.84688L38.6125 141.83125Q39.4875 141.40938 40.14375 140.83125Q40.815624 140.2375 41.096874 139.675L41.76875 139.675L41.76875 148.3ZM45.003124 141.76875Q45.003124 140.84688 45.45625 140.20625Q45.925 139.56563 46.8 139.56563Q47.6125 139.56563 48.14375 140.14375Q48.675 140.72188 48.675 141.83125Q48.675 142.925 48.128124 143.51875Q47.596874 144.09688 46.815624 144.09688Q46.034374 144.09688 45.51875 143.51875Q45.003124 142.94063 45.003124 141.76875ZM46.83125 140.28438Q46.440624 140.28438 46.175 140.62813Q45.925 140.97188 45.925 141.87813Q45.925 142.70625 46.175 143.05Q46.440624 143.37813 46.83125 143.37813Q47.2375 143.37813 47.4875 143.03438Q47.753124 142.69063 47.753124 141.8Q47.753124 140.95625 47.4875 140.62813Q47.221874 140.28438 46.83125 140.28438ZM46.83125 148.6125L51.534374 139.56563L52.39375 139.56563L47.70625 148.6125L46.83125 148.6125ZM50.55 146.28438Q50.55 145.3625 51.003124 144.72188Q51.471874 144.08125 52.3625 144.08125Q53.175 144.08125 53.70625 144.65938Q54.2375 145.22188 54.2375 146.34688Q54.2375 147.44063 53.690624 148.03438Q53.159374 148.6125 52.3625 148.6125Q51.596874 148.6125 51.065624 148.03438Q50.55 147.45625 50.55 146.28438ZM52.39375 144.8Q51.9875 144.8 51.721874 145.14375Q51.471874 145.4875 51.471874 146.39375Q51.471874 147.20625 51.7375 147.55Q52.003124 147.89375 52.39375 147.89375Q52.784374 147.89375 53.05 147.55Q53.315624 147.20625 53.315624 146.3Q53.315624 145.47188 53.05 145.14375Q52.784374 144.8 52.39375 144.8Z" fill-rule="nonzero"/><path stroke="#757575" stroke-width="1.0" stroke-linecap="butt" d="M27.3 135.8L193.3 135.8L302.26328 88.314354" fill-rule="nonzero"/><path fill="#9e9e9e" d="M304.26328 88.314354C304.26328 87.209785 303.36783 86.314354 302.26328 86.314354C301.1587 86.314354 300.26328 87.209785 300.26328 88.314354C300.26328 89.41892 301.1587 90.314354 302.26328 90.314354C303.36783 90.314354 304.26328 89.41892 304.26328 88.314354" fill-rule="nonzero"/><path fill="#1a1a1a" d="M28.190624 491.7264L28.190624 483.13266L29.909374 483.13266L31.940624 489.2108Q32.221874 490.07016 32.346874 490.49203Q32.4875 490.0233 32.8 489.11703L34.8625 483.13266L36.39375 483.13266L36.39375 491.7264L35.3 491.7264L35.3 484.5389L32.8 491.7264L31.76875 491.7264L29.284374 484.4139L29.284374 491.7264L28.190624 491.7264ZM37.175 491.7264L37.175 483.13266L38.315624 483.13266L38.315624 490.7108L42.55 490.7108L42.55 491.7264L37.175 491.7264ZM44.221874 491.7264L44.221874 483.13266L47.471874 483.13266Q48.315624 483.13266 48.76875 483.2108Q49.409374 483.32016 49.83125 483.61703Q50.26875 483.9139 50.51875 484.44516Q50.784374 484.9764 50.784374 485.61703Q50.784374 486.7108 50.08125 487.4764Q49.39375 488.2264 47.565624 488.2264L45.3625 488.2264L45.3625 491.7264L44.221874 491.7264ZM45.3625 487.2264L47.58125 487.2264Q48.690624 487.2264 49.14375 486.82016Q49.6125 486.3983 49.6125 485.6483Q49.6125 485.11703 49.33125 484.74203Q49.065624 484.3514 48.628124 484.2264Q48.33125 484.1483 47.565624 484.1483L45.3625 484.1483L45.3625 487.2264Z" fill-rule="nonzero"/><path fill="#9e9e9e" d="M33.26875 502.24203L32.221874 502.32016Q32.08125 501.69516 31.83125 501.4139Q31.39375 500.9608 30.76875 500.9608Q30.26875 500.9608 29.878124 501.24203Q29.39375 501.61703 29.096874 502.32016Q28.815624 503.00766 28.8 504.2889Q29.175 503.7108 29.721874 503.42953Q30.284374 503.1483 30.89375 503.1483Q31.940624 503.1483 32.675 503.92953Q33.425 504.7108 33.425 505.92953Q33.425 506.74203 33.065624 507.44516Q32.721874 508.13266 32.1125 508.50766Q31.503124 508.86703 30.7375 508.86703Q29.409374 508.86703 28.58125 507.8983Q27.753124 506.92953 27.753124 504.7108Q27.753124 502.2108 28.675 501.0858Q29.471874 500.1014 30.83125 500.1014Q31.846874 500.1014 32.4875 500.67953Q33.14375 501.24203 33.26875 502.24203ZM28.971874 505.94516Q28.971874 506.49203 29.190624 506.99203Q29.425 507.4764 29.83125 507.74203Q30.253124 508.00766 30.721874 508.00766Q31.378124 508.00766 31.8625 507.4764Q32.346874 506.92953 32.346874 506.00766Q32.346874 505.11703 31.8625 504.6014Q31.39375 504.0858 30.675 504.0858Q29.95625 504.0858 29.45625 504.6014Q28.971874 505.11703 28.971874 505.94516ZM34.8625 501.25766L34.8625 500.24203L40.425 500.24203L40.425 501.07016Q39.6125 501.94516 38.8 503.3983Q38.003124 504.8358 37.565624 506.36703Q37.2375 507.44516 37.159374 508.7264L36.065624 508.7264Q36.08125 507.7108 36.45625 506.2733Q36.846874 504.8358 37.55 503.50766Q38.26875 502.17953 39.08125 501.25766L34.8625 501.25766ZM42.39375 508.7264L42.39375 507.5233L43.596874 507.5233L43.596874 508.7264L42.39375 508.7264ZM50.26875 502.24203L49.221874 502.32016Q49.08125 501.69516 48.83125 501.4139Q48.39375 500.9608 47.76875 500.9608Q47.26875 500.9608 46.878124 501.24203Q46.39375 501.61703 46.096874 502.32016Q45.815624 503.00766 45.8 504.2889Q46.175 503.7108 46.721874 503.42953Q47.284374 503.1483 47.89375 503.1483Q48.940624 503.1483 49.675 503.92953Q50.425 504.7108 50.425 505.92953Q50.425 506.74203 50.065624 507.44516Q49.721874 508.13266 49.1125 508.50766Q48.503124 508.86703 47.7375 508.86703Q46.409374 508.86703 45.58125 507.8983Q44.753124 506.92953 44.753124 504.7108Q44.753124 502.2108 45.675 501.0858Q46.471874 500.1014 47.83125 500.1014Q48.846874 500.1014 49.4875 500.67953Q50.14375 501.24203 50.26875 502.24203ZM45.971874 505.94516Q45.971874 506.49203 46.190624 506.99203Q46.425 507.4764 46.83125 507.74203Q47.253124 508.00766 47.721874 508.00766Q48.378124 508.00766 48.8625 507.4764Q49.346874 506.92953 49.346874 506.00766Q49.346874 505.11703 48.8625 504.6014Q48.39375 504.0858 47.675 504.0858Q46.95625 504.0858 46.45625 504.6014Q45.971874 505.11703 45.971874 505.94516ZM52.003124 502.19516Q52.003124 501.2733 52.45625 500.63266Q52.925 499.99203 53.8 499.99203Q54.6125 499.99203 55.14375 500.57016Q55.675 501.1483 55.675 502.25766Q55.675 503.3514 55.128124 503.94516Q54.596874 504.5233 53.815624 504.5233Q53.034374 504.5233 52.51875 503.94516Q52.003124 503.36703 52.003124 502.19516ZM53.83125 500.7108Q53.440624 500.7108 53.175 501.05453Q52.925 501.3983 52.925 502.30453Q52.925 503.13266 53.175 503.4764Q53.440624 503.80453 53.83125 503.80453Q54.2375 503.80453 54.4875 503.4608Q54.753124 503.11703 54.753124 502.2264Q54.753124 501.38266 54.4875 501.05453Q54.221874 500.7108 53.83125 500.7108ZM53.83125 509.0389L58.534374 499.99203L59.39375 499.99203L54.70625 509.0389L53.83125 509.0389ZM57.55 506.7108Q57.55 505.7889 58.003124 505.1483Q58.471874 504.50766 59.3625 504.50766Q60.175 504.50766 60.70625 505.0858Q61.2375 505.6483 61.2375 506.7733Q61.2375 507.86703 60.690624 508.4608Q60.159374 509.0389 59.3625 509.0389Q58.596874 509.0389 58.065624 508.4608Q57.55 507.88266 57.55 506.7108ZM59.39375 505.2264Q58.9875 505.2264 58.721874 505.57016Q58.471874 505.9139 58.471874 506.82016Q58.471874 507.63266 58.7375 507.9764Q59.003124 508.32016 59.39375 508.32016Q59.784374 508.32016 60.05 507.9764Q60.315624 507.63266 60.315624 506.7264Q60.315624 505.8983 60.05 505.57016Q59.784374 505.2264 59.39375 505.2264Z" fill-rule="nonzero"/><path stroke="#757575" stroke-width="1.0" stroke-linecap="butt" d="M27.3 496.2264L193.3 496.2264L376.79053 496.2264" fill-rule="nonzero"/><path fill="#9e9e9e" d="M378.79053 496.2264C378.79053 495.12186 377.8951 494.2264 376.79053 494.2264C375.68597 494.2264 374.79053 495.12186 374.79053 496.2264C374.79053 497.331 375.68597 498.2264 376.79053 498.2264C377.8951 498.2264 378.79053 497.331 378.79053 496.2264" fill-rule="nonzero"/><path fill="#1a1a1a" d="M798.2469 81.04873L799.3094 80.95498Q799.3875 81.61123 799.66876 82.01748Q799.95 82.42373 800.52814 82.689354Q801.1219 82.939354 801.85626 82.939354Q802.4969 82.939354 802.9969 82.751854Q803.4969 82.54873 803.73126 82.220604Q803.98126 81.876854 803.98126 81.48623Q803.98126 81.07998 803.7469 80.783104Q803.5125 80.470604 802.98126 80.26748Q802.6219 80.126854 801.4344 79.845604Q800.2625 79.564354 799.79376 79.314354Q799.16876 78.98623 798.8719 78.51748Q798.575 78.033104 798.575 77.439354Q798.575 76.79873 798.9344 76.23623Q799.3094 75.658104 800.0125 75.376854Q800.73126 75.07998 801.59064 75.07998Q802.54376 75.07998 803.27814 75.39248Q804.0125 75.689354 804.40314 76.29873Q804.79376 76.89248 804.825 77.64248L803.73126 77.720604Q803.6375 76.908104 803.1219 76.501854Q802.6219 76.07998 801.6375 76.07998Q800.60626 76.07998 800.1375 76.45498Q799.66876 76.82998 799.66876 77.36123Q799.66876 77.82998 799.9969 78.126854Q800.325 78.42373 801.7 78.73623Q803.09064 79.04873 803.60626 79.283104Q804.35626 79.64248 804.71564 80.17373Q805.075 80.689354 805.075 81.39248Q805.075 82.07998 804.6844 82.689354Q804.29376 83.283104 803.5594 83.626854Q802.825 83.95498 801.90314 83.95498Q800.73126 83.95498 799.9344 83.626854Q799.15314 83.283104 798.7 82.595604Q798.2625 81.908104 798.2469 81.04873ZM806.4969 83.814354L806.4969 75.220604L807.54376 75.220604L807.54376 78.29873Q808.27814 77.45498 809.40314 77.45498Q810.10626 77.45498 810.60626 77.73623Q811.1219 78.001854 811.34064 78.48623Q811.5594 78.95498 811.5594 79.876854L811.5594 83.814354L810.5125 83.814354L810.5125 79.876854Q810.5125 79.07998 810.16876 78.720604Q809.825 78.36123 809.2 78.36123Q808.73126 78.36123 808.3094 78.61123Q807.90314 78.845604 807.71564 79.26748Q807.54376 79.67373 807.54376 80.408104L807.54376 83.814354L806.4969 83.814354ZM817.5594 83.04873Q816.96564 83.54873 816.41876 83.751854Q815.8875 83.95498 815.2625 83.95498Q814.23126 83.95498 813.6844 83.45498Q813.1375 82.95498 813.1375 82.17373Q813.1375 81.720604 813.34064 81.345604Q813.54376 80.95498 813.8875 80.73623Q814.23126 80.501854 814.65314 80.39248Q814.95 80.29873 815.59064 80.220604Q816.85626 80.07998 817.46564 79.86123Q817.46564 79.64248 817.46564 79.595604Q817.46564 78.939354 817.16876 78.67373Q816.7625 78.32998 815.96564 78.32998Q815.23126 78.32998 814.8719 78.595604Q814.5125 78.845604 814.34064 79.501854L813.3094 79.36123Q813.45 78.70498 813.77814 78.29873Q814.10626 77.89248 814.71564 77.67373Q815.325 77.45498 816.1219 77.45498Q816.91876 77.45498 817.41876 77.64248Q817.91876 77.82998 818.15314 78.11123Q818.3875 78.39248 818.48126 78.82998Q818.52814 79.095604 818.52814 79.79873L818.52814 81.20498Q818.52814 82.67373 818.59064 83.064354Q818.66876 83.45498 818.8719 83.814354L817.7625 83.814354Q817.60626 83.48623 817.5594 83.04873ZM817.46564 80.689354Q816.8875 80.92373 815.7469 81.095604Q815.09064 81.189354 814.825 81.314354Q814.5594 81.42373 814.40314 81.64248Q814.2625 81.86123 814.2625 82.14248Q814.2625 82.564354 814.575 82.845604Q814.90314 83.126854 815.5125 83.126854Q816.1219 83.126854 816.59064 82.86123Q817.075 82.595604 817.29376 82.126854Q817.46564 81.76748 817.46564 81.07998L817.46564 80.689354ZM820.46564 83.814354L820.46564 75.220604L821.52814 75.220604L821.52814 83.814354L820.46564 83.814354ZM823.46564 83.814354L823.46564 75.220604L824.52814 75.220604L824.52814 83.814354L823.46564 83.814354ZM826.10626 80.70498Q826.10626 78.970604 827.0594 78.14248Q827.85626 77.45498 829.0125 77.45498Q830.29376 77.45498 831.10626 78.29873Q831.9344 79.126854 831.9344 80.61123Q831.9344 81.814354 831.575 82.501854Q831.21564 83.189354 830.5125 83.57998Q829.825 83.95498 829.0125 83.95498Q827.71564 83.95498 826.90314 83.126854Q826.10626 82.283104 826.10626 80.70498ZM827.1844 80.70498Q827.1844 81.89248 827.7 82.48623Q828.23126 83.07998 829.0125 83.07998Q829.8094 83.07998 830.325 82.48623Q830.84064 81.89248 830.84064 80.67373Q830.84064 79.51748 830.3094 78.92373Q829.79376 78.32998 829.0125 78.32998Q828.23126 78.32998 827.7 78.92373Q827.1844 79.501854 827.1844 80.70498ZM834.6375 83.814354L832.73126 77.595604L833.825 77.595604L834.8094 81.189354L835.1844 82.51748Q835.21564 82.42373 835.5125 81.23623L836.4969 77.595604L837.575 77.595604L838.5125 81.20498L838.825 82.39248L839.1844 81.189354L840.2469 77.595604L841.27814 77.595604L839.325 83.814354L838.23126 83.814354L837.2469 80.07998L836.9969 79.033104L835.7469 83.814354L834.6375 83.814354ZM845.6219 83.814354L845.6219 75.220604L846.77814 75.220604L851.29376 81.970604L851.29376 75.220604L852.3875 75.220604L852.3875 83.814354L851.21564 83.814354L846.7 77.064354L846.7 83.814354L845.6219 83.814354ZM854.6219 83.814354L854.6219 75.220604L855.77814 75.220604L860.29376 81.970604L860.29376 75.220604L861.3875 75.220604L861.3875 83.814354L860.21564 83.814354L855.7 77.064354L855.7 83.814354L854.6219 83.814354Z" fill-rule="nonzero"/><path fill="#9e9e9e" d="M833.7469 99.79873L833.7469 100.814354L828.0594 100.814354Q828.0594 100.439354 828.1844 100.07998Q828.40314 99.501854 828.8719 98.939354Q829.35626 98.376854 830.2625 97.64248Q831.66876 96.48623 832.15314 95.814354Q832.65314 95.14248 832.65314 94.54873Q832.65314 93.92373 832.2 93.501854Q831.7469 93.064354 831.02814 93.064354Q830.2625 93.064354 829.8094 93.51748Q829.35626 93.970604 829.34064 94.783104L828.2625 94.67373Q828.3719 93.45498 829.09064 92.82998Q829.825 92.189354 831.0594 92.189354Q832.29376 92.189354 833.0125 92.876854Q833.73126 93.564354 833.73126 94.57998Q833.73126 95.095604 833.5125 95.595604Q833.3094 96.07998 832.8094 96.64248Q832.325 97.189354 831.2 98.14248Q830.2469 98.939354 829.96564 99.23623Q829.7 99.51748 829.52814 99.79873L833.7469 99.79873ZM835.2 96.57998Q835.2 95.04873 835.5125 94.126854Q835.825 93.189354 836.4344 92.689354Q837.0594 92.189354 837.9969 92.189354Q838.6844 92.189354 839.2 92.470604Q839.73126 92.751854 840.075 93.283104Q840.41876 93.79873 840.60626 94.54873Q840.79376 95.29873 840.79376 96.57998Q840.79376 98.095604 840.48126 99.01748Q840.1844 99.939354 839.5594 100.45498Q838.95 100.95498 837.9969 100.95498Q836.7625 100.95498 836.04376 100.064354Q835.2 99.001854 835.2 96.57998ZM836.27814 96.57998Q836.27814 98.689354 836.77814 99.39248Q837.27814 100.095604 837.9969 100.095604Q838.73126 100.095604 839.21564 99.39248Q839.71564 98.689354 839.71564 96.57998Q839.71564 94.45498 839.21564 93.76748Q838.73126 93.064354 837.98126 93.064354Q837.2625 93.064354 836.825 93.67373Q836.27814 94.45498 836.27814 96.57998ZM842.79376 100.814354L842.79376 99.61123L843.9969 99.61123L843.9969 100.814354L842.79376 100.814354ZM845.35626 98.82998L846.3719 98.73623Q846.4969 99.45498 846.85626 99.783104Q847.23126 100.095604 847.79376 100.095604Q848.27814 100.095604 848.6375 99.876854Q849.0125 99.64248 849.2469 99.283104Q849.48126 98.908104 849.6375 98.283104Q849.79376 97.64248 849.79376 96.98623Q849.79376 96.908104 849.79376 96.76748Q849.48126 97.26748 848.9344 97.595604Q848.3875 97.908104 847.7469 97.908104Q846.66876 97.908104 845.9344 97.14248Q845.2 96.36123 845.2 95.095604Q845.2 93.783104 845.96564 92.98623Q846.7469 92.189354 847.90314 92.189354Q848.73126 92.189354 849.41876 92.64248Q850.1219 93.095604 850.48126 93.939354Q850.84064 94.76748 850.84064 96.345604Q850.84064 97.98623 850.48126 98.970604Q850.1375 99.939354 849.41876 100.45498Q848.71564 100.95498 847.77814 100.95498Q846.7625 100.95498 846.1219 100.408104Q845.48126 99.845604 845.35626 98.82998ZM849.66876 95.033104Q849.66876 94.126854 849.1844 93.595604Q848.71564 93.064354 848.02814 93.064354Q847.325 93.064354 846.79376 93.64248Q846.27814 94.20498 846.27814 95.126854Q846.27814 95.939354 846.77814 96.45498Q847.27814 96.970604 847.9969 96.970604Q848.73126 96.970604 849.2 96.45498Q849.66876 95.939354 849.66876 95.033104ZM852.40314 94.283104Q852.40314 93.36123 852.85626 92.720604Q853.325 92.07998 854.2 92.07998Q855.0125 92.07998 855.54376 92.658104Q856.075 93.23623 856.075 94.345604Q856.075 95.439354 855.52814 96.033104Q854.9969 96.61123 854.21564 96.61123Q853.4344 96.61123 852.91876 96.033104Q852.40314 95.45498 852.40314 94.283104ZM854.23126 92.79873Q853.84064 92.79873 853.575 93.14248Q853.325 93.48623 853.325 94.39248Q853.325 95.220604 853.575 95.564354Q853.84064 95.89248 854.23126 95.89248Q854.6375 95.89248 854.8875 95.54873Q855.15314 95.20498 855.15314 94.314354Q855.15314 93.470604 854.8875 93.14248Q854.6219 92.79873 854.23126 92.79873ZM854.23126 101.126854L858.9344 92.07998L859.79376 92.07998L855.10626 101.126854L854.23126 101.126854ZM857.95 98.79873Q857.95 97.876854 858.40314 97.23623Q858.8719 96.595604 859.7625 96.595604Q860.575 96.595604 861.10626 97.17373Q861.6375 97.73623 861.6375 98.86123Q861.6375 99.95498 861.09064 100.54873Q860.5594 101.126854 859.7625 101.126854Q858.9969 101.126854 858.46564 100.54873Q857.95 99.970604 857.95 98.79873ZM859.79376 97.314354Q859.3875 97.314354 859.1219 97.658104Q858.8719 98.001854 858.8719 98.908104Q858.8719 99.720604 859.1375 100.064354Q859.40314 100.408104 859.79376 100.408104Q860.1844 100.408104 860.45 100.064354Q860.71564 99.720604 860.71564 98.814354Q860.71564 97.98623 860.45 97.658104Q860.1844 97.314354 859.79376 97.314354Z" fill-rule="nonzero"/><path stroke="#757575" stroke-width="1.0" stroke-linecap="butt" d="M862.7 88.314354L696.7 88.314354L587.73676 88.314354" fill-rule="nonzero"/><path fill="#9e9e9e" d="M589.73676 88.314354C589.73676 87.209785 588.8413 86.314354 587.73676 86.314354C586.63214 86.314354 585.73676 87.209785 585.73676 88.314354C585.73676 89.41892 586.63214 90.314354 587.73676 90.314354C588.8413 90.314354 589.73676 89.41892 589.73676 88.314354" fill-rule="nonzero"/></svg>