<svg version="1.1" viewBox="0.0 0.0 921.0 571.0" fill="none" stroke="none" stroke-linecap="square" stroke-miterlimit="10" width="921" height="571" xmlns:xlink="http://www.w3.org/1999/xlink" xmlns="http://www.w3.org/2000/svg"><path fill="#ffffff" d="M0 0L921.0 0L921.0 571.0L0 571.0L0 0Z" fill-rule="nonzero"/><path fill="#4285f4" d="M460.5 28.55C597.89465 28.55 710.979 136.63483 717.18756 273.8891C723.39606 411.14337 620.5316 528.99634 483.69806 541.4007L460.5 285.5Z" fill-rule="nonzero"/><path fill="#fde49b" d="M457.59634 28.566406C458.5642 28.55547 459.5321 28.55 460.5 28.55L460.5 285.5Z" fill-rule="nonzero"/><path fill="#f7b4ae" d="M454.69305 28.615625C455.66074 28.593752 456.6285 28.577345 457.59634 28.566406L460.5 285.5Z" fill-rule="nonzero"/><path fill="#b3cefb" d="M440.1952 29.353523C445.0199 28.971067 449.85446 28.725002 454.69305 28.615625L460.5 285.5Z" fill-rule="nonzero"/><path fill="#7ed1d7" d="M427.2012 30.716772C431.5203 30.152292 435.85303 29.69773 440.1952 29.353523L460.5 285.5Z" fill-rule="nonzero"/><path fill="#ff994d" d="M411.43997 33.277054C416.66592 32.260548 421.9222 31.40671 427.2012 30.716772L460.5 285.5Z" fill-rule="nonzero"/><path fill="#71c287" d="M397.27435 36.45016C401.9654 35.259262 406.68915 34.201134 411.43997 33.277054L460.5 285.5Z" fill-rule="nonzero"/><path fill="#fcd04f" d="M383.31058 40.418186C387.92688 38.964268 392.5833 37.641064 397.27435 36.45016L460.5 285.5Z" fill-rule="nonzero"/><path fill="#f07b72" d="M354.8408 51.279095C364.1075 47.09879 373.61414 43.47211 383.31058 40.418186L460.5 285.5Z" fill-rule="nonzero"/><path fill="#7baaf7" d="M334.12625 61.774776C340.8694 57.96583 347.78128 54.463696 354.8408 51.279095L460.5 285.5Z" fill-rule="nonzero"/><path fill="#46bdc6" d="M305.04034 80.91359C314.29175 73.88369 324.00937 67.48941 334.12625 61.774776L460.5 285.5Z" fill-rule="nonzero"/><path fill="#ff6d01" d="M279.83844 102.7852C287.7563 94.95631 296.17468 87.65037 305.04034 80.91359L460.5 285.5Z" fill-rule="nonzero"/><path fill="#34a853" d="M246.65245 143.04817C256.3196 128.5359 267.4389 115.04538 279.83844 102.7852L460.5 285.5Z" fill-rule="nonzero"/><path fill="#fbbc04" d="M211.81139 220.86816C219.01018 193.16885 230.78595 166.86682 246.65245 143.04817L460.5 285.5Z" fill-rule="nonzero"/><path fill="#ea4335" d="M483.69806 541.4007C400.40536 548.95135 318.64926 515.49207 264.54907 451.7123C210.44888 387.93256 190.77448 301.81342 211.81139 220.86816L460.5 285.5Z" fill-rule="nonzero"/><path fill="#1a1a1a" d="M29.534374 39.55L29.534374 30.95625L35.33125 30.95625L35.33125 31.971874L30.675 31.971874L30.675 34.628124L34.70625 34.628124L34.70625 35.64375L30.675 35.64375L30.675 39.55L29.534374 39.55ZM36.315624 39.55L36.315624 30.95625L37.378124 30.95625L37.378124 39.55L36.315624 39.55ZM38.95625 36.440624Q38.95625 34.70625 39.909374 33.878124Q40.70625 33.190624 41.8625 33.190624Q43.14375 33.190624 43.95625 34.034374Q44.784374 34.8625 44.784374 36.346874Q44.784374 37.55 44.425 38.2375Q44.065624 38.925 43.3625 39.315624Q42.675 39.690624 41.8625 39.690624Q40.565624 39.690624 39.753124 38.8625Q38.95625 38.01875 38.95625 36.440624ZM40.034374 36.440624Q40.034374 37.628124 40.55 38.221874Q41.08125 38.815624 41.8625 38.815624Q42.659374 38.815624 43.175 38.221874Q43.690624 37.628124 43.690624 36.409374Q43.690624 35.253124 43.159374 34.659374Q42.64375 34.065624 41.8625 34.065624Q41.08125 34.065624 40.55 34.659374Q40.034374 35.2375 40.034374 36.440624ZM47.4875 39.55L45.58125 33.33125L46.675 33.33125L47.659374 36.925L48.034374 38.253124Q48.065624 38.159374 48.3625 36.971874L49.346874 33.33125L50.425 33.33125L51.3625 36.940624L51.675 38.128124L52.034374 36.925L53.096874 33.33125L54.128124 33.33125L52.175 39.55L51.08125 39.55L50.096874 35.815624L49.846874 34.76875L48.596874 39.55L47.4875 39.55Z" fill-rule="nonzero"/><path fill="#9e9e9e" d="M33.01875 56.55L31.971874 56.55L31.971874 49.83125Q31.58125 50.190624 30.95625 50.565624Q30.346874 50.925 29.8625 51.096874L29.8625 50.08125Q30.7375 49.659374 31.39375 49.08125Q32.065624 48.4875 32.346874 47.925L33.01875 47.925L33.01875 56.55ZM36.64375 56.55L36.64375 55.346874L37.846874 55.346874L37.846874 56.55L36.64375 56.55ZM39.05 52.315624Q39.05 50.784374 39.3625 49.8625Q39.675 48.925 40.284374 48.425Q40.909374 47.925 41.846874 47.925Q42.534374 47.925 43.05 48.20625Q43.58125 48.4875 43.925 49.01875Q44.26875 49.534374 44.45625 50.284374Q44.64375 51.034374 44.64375 52.315624Q44.64375 53.83125 44.33125 54.753124Q44.034374 55.675 43.409374 56.190624Q42.8 56.690624 41.846874 56.690624Q40.6125 56.690624 39.89375 55.8Q39.05 54.7375 39.05 52.315624ZM40.128124 52.315624Q40.128124 54.425 40.628124 55.128124Q41.128124 55.83125 41.846874 55.83125Q42.58125 55.83125 43.065624 55.128124Q43.565624 54.425 43.565624 52.315624Q43.565624 50.190624 43.065624 49.503124Q42.58125 48.8 41.83125 48.8Q41.1125 48.8 40.675 49.409374Q40.128124 50.190624 40.128124 52.315624ZM46.253124 50.01875Q46.253124 49.096874 46.70625 48.45625Q47.175 47.815624 48.05 47.815624Q48.8625 47.815624 49.39375 48.39375Q49.925 48.971874 49.925 50.08125Q49.925 51.175 49.378124 51.76875Q48.846874 52.346874 48.065624 52.346874Q47.284374 52.346874 46.76875 51.76875Q46.253124 51.190624 46.253124 50.01875ZM48.08125 48.534374Q47.690624 48.534374 47.425 48.878124Q47.175 49.221874 47.175 50.128124Q47.175 50.95625 47.425 51.3Q47.690624 51.628124 48.08125 51.628124Q48.4875 51.628124 48.7375 51.284374Q49.003124 50.940624 49.003124 50.05Q49.003124 49.20625 48.7375 48.878124Q48.471874 48.534374 48.08125 48.534374ZM48.08125 56.8625L52.784374 47.815624L53.64375 47.815624L48.95625 56.8625L48.08125 56.8625ZM51.8 54.534374Q51.8 53.6125 52.253124 52.971874Q52.721874 52.33125 53.6125 52.33125Q54.425 52.33125 54.95625 52.909374Q55.4875 53.471874 55.4875 54.596874Q55.4875 55.690624 54.940624 56.284374Q54.409374 56.8625 53.6125 56.8625Q52.846874 56.8625 52.315624 56.284374Q51.8 55.70625 51.8 54.534374ZM53.64375 53.05Q53.2375 53.05 52.971874 53.39375Q52.721874 53.7375 52.721874 54.64375Q52.721874 55.45625 52.9875 55.8Q53.253124 56.14375 53.64375 56.14375Q54.034374 56.14375 54.3 55.8Q54.565624 55.45625 54.565624 54.55Q54.565624 53.721874 54.3 53.39375Q54.034374 53.05 53.64375 53.05Z" fill-rule="nonzero"/><path stroke="#757575" stroke-width="1.0" stroke-linecap="butt" d="M28.55 44.05L197.55 44.05L421.36066 44.55573" fill-rule="nonzero"/><path fill="#9e9e9e" d="M423.36066 44.55573C423.36066 43.451157 422.46524 42.55573 421.36066 42.55573C420.2561 42.55573 419.36066 43.451157 419.36066 44.55573C419.36066 45.660297 420.2561 46.55573 421.36066 46.55573C422.46524 46.55573 423.36066 45.660297 423.36066 44.55573" fill-rule="nonzero"/><path fill="#1a1a1a" d="M33.503124 67.175L33.503124 66.175L37.128124 66.15938L37.128124 69.34688Q36.3 70.01875 35.409374 70.3625Q34.51875 70.69063 33.58125 70.69063Q32.315624 70.69063 31.26875 70.15938Q30.2375 69.6125 29.70625 68.59688Q29.190624 67.56563 29.190624 66.3Q29.190624 65.03438 29.70625 63.956253Q30.2375 62.862503 31.221874 62.346878Q32.20625 61.815628 33.4875 61.815628Q34.425 61.815628 35.175 62.112503Q35.925 62.409378 36.346874 62.956253Q36.784374 63.487503 37.003124 64.3625L35.9875 64.64375Q35.784374 63.987503 35.4875 63.612503Q35.20625 63.237503 34.675 63.018753Q34.14375 62.784378 33.503124 62.784378Q32.721874 62.784378 32.14375 63.018753Q31.58125 63.253128 31.221874 63.643753Q30.878124 64.03438 30.690624 64.50313Q30.3625 65.3 30.3625 66.22188Q30.3625 67.37813 30.753124 68.15938Q31.159374 68.925 31.909374 69.3Q32.659374 69.675 33.51875 69.675Q34.253124 69.675 34.95625 69.39375Q35.659374 69.09688 36.01875 68.78438L36.01875 67.175L33.503124 67.175ZM37.534374 70.55L40.83125 61.956253L42.05 61.956253L45.565624 70.55L44.284374 70.55L43.26875 67.94063L39.690624 67.94063L38.7375 70.55L37.534374 70.55ZM40.01875 67.01875L42.925 67.01875L42.034374 64.64375Q41.6125 63.565628 41.425 62.862503Q41.253124 63.690628 40.95625 64.50313L40.01875 67.01875ZM45.471874 70.55L45.471874 61.956253L46.628124 61.956253L51.14375 68.70625L51.14375 61.956253L52.2375 61.956253L52.2375 70.55L51.065624 70.55L46.55 63.800003L46.55 70.55L45.471874 70.55Z" fill-rule="nonzero"/><path fill="#9e9e9e" d="M33.01875 87.55L31.971874 87.55L31.971874 80.83125Q31.58125 81.19063 30.95625 81.56563Q30.346874 81.925 29.8625 82.09688L29.8625 81.08125Q30.7375 80.65938 31.39375 80.08125Q32.065624 79.4875 32.346874 78.925L33.01875 78.925L33.01875 87.55ZM36.64375 87.55L36.64375 86.34688L37.846874 86.34688L37.846874 87.55L36.64375 87.55ZM39.20625 85.56563L40.221874 85.47188Q40.346874 86.19063 40.70625 86.51875Q41.08125 86.83125 41.64375 86.83125Q42.128124 86.83125 42.4875 86.6125Q42.8625 86.37813 43.096874 86.01875Q43.33125 85.64375 43.4875 85.01875Q43.64375 84.37813 43.64375 83.72188Q43.64375 83.64375 43.64375 83.50313Q43.33125 84.00313 42.784374 84.33125Q42.2375 84.64375 41.596874 84.64375Q40.51875 84.64375 39.784374 83.87813Q39.05 83.09688 39.05 81.83125Q39.05 80.51875 39.815624 79.72188Q40.596874 78.925 41.753124 78.925Q42.58125 78.925 43.26875 79.37813Q43.971874 79.83125 44.33125 80.675Q44.690624 81.50313 44.690624 83.08125Q44.690624 84.72188 44.33125 85.70625Q43.9875 86.675 43.26875 87.19063Q42.565624 87.69063 41.628124 87.69063Q40.6125 87.69063 39.971874 87.14375Q39.33125 86.58125 39.20625 85.56563ZM43.51875 81.76875Q43.51875 80.8625 43.034374 80.33125Q42.565624 79.8 41.878124 79.8Q41.175 79.8 40.64375 80.37813Q40.128124 80.94063 40.128124 81.8625Q40.128124 82.675 40.628124 83.19063Q41.128124 83.70625 41.846874 83.70625Q42.58125 83.70625 43.05 83.19063Q43.51875 82.675 43.51875 81.76875ZM46.253124 81.01875Q46.253124 80.09688 46.70625 79.45625Q47.175 78.81563 48.05 78.81563Q48.8625 78.81563 49.39375 79.39375Q49.925 79.97188 49.925 81.08125Q49.925 82.175 49.378124 82.76875Q48.846874 83.34688 48.065624 83.34688Q47.284374 83.34688 46.76875 82.76875Q46.253124 82.19063 46.253124 81.01875ZM48.08125 79.53438Q47.690624 79.53438 47.425 79.87813Q47.175 80.22188 47.175 81.12813Q47.175 81.95625 47.425 82.3Q47.690624 82.62813 48.08125 82.62813Q48.4875 82.62813 48.7375 82.28438Q49.003124 81.94063 49.003124 81.05Q49.003124 80.20625 48.7375 79.87813Q48.471874 79.53438 48.08125 79.53438ZM48.08125 87.8625L52.784374 78.81563L53.64375 78.81563L48.95625 87.8625L48.08125 87.8625ZM51.8 85.53438Q51.8 84.6125 52.253124 83.97188Q52.721874 83.33125 53.6125 83.33125Q54.425 83.33125 54.95625 83.90938Q55.4875 84.47188 55.4875 85.59688Q55.4875 86.69063 54.940624 87.28438Q54.409374 87.8625 53.6125 87.8625Q52.846874 87.8625 52.315624 87.28438Q51.8 86.70625 51.8 85.53438ZM53.64375 84.05Q53.2375 84.05 52.971874 84.39375Q52.721874 84.7375 52.721874 85.64375Q52.721874 86.45625 52.9875 86.8Q53.253124 87.14375 53.64375 87.14375Q54.034374 87.14375 54.3 86.8Q54.565624 86.45625 54.565624 85.55Q54.565624 84.72188 54.3 84.39375Q54.034374 84.05 53.64375 84.05Z" fill-rule="nonzero"/><path stroke="#757575" stroke-width="1.0" stroke-linecap="butt" d="M28.55 75.05L197.55 75.05L373.4938 57.429935" fill-rule="nonzero"/><path fill="#9e9e9e" d="M375.4938 57.429935C375.4938 56.325367 374.5984 55.429935 373.4938 55.429935C372.38925 55.429935 371.4938 56.325367 371.4938 57.429935C371.4938 58.534504 372.38925 59.429935 373.4938 59.429935C374.5984 59.429935 375.4938 58.534504 375.4938 57.429935" fill-rule="nonzero"/><path fill="#1a1a1a" d="M29.425 101.55L29.425 92.95625L32.659374 92.95625Q33.64375 92.95625 34.2375 93.22188Q34.83125 93.4875 35.159374 94.03438Q35.503124 94.56563 35.503124 95.15938Q35.503124 95.70625 35.20625 96.19063Q34.909374 96.675 34.3 96.97188Q35.08125 97.20625 35.4875 97.76875Q35.909374 98.31563 35.909374 99.06563Q35.909374 99.65938 35.659374 100.19063Q35.409374 100.70625 35.034374 100.9875Q34.659374 101.26875 34.08125 101.40938Q33.51875 101.55 32.70625 101.55L29.425 101.55ZM30.565624 96.56563L32.425 96.56563Q33.175 96.56563 33.503124 96.47188Q33.940624 96.34688 34.159374 96.05Q34.378124 95.7375 34.378124 95.28438Q34.378124 94.8625 34.175 94.53438Q33.971874 94.20625 33.58125 94.09688Q33.20625 93.97188 32.284374 93.97188L30.565624 93.97188L30.565624 96.56563ZM30.565624 100.53438L32.70625 100.53438Q33.253124 100.53438 33.471874 100.4875Q33.878124 100.425 34.128124 100.26875Q34.39375 100.09688 34.565624 99.78438Q34.7375 99.47188 34.7375 99.06563Q34.7375 98.58125 34.4875 98.22188Q34.253124 97.8625 33.815624 97.72188Q33.378124 97.58125 32.55 97.58125L30.565624 97.58125L30.565624 100.53438ZM37.471874 101.55L37.471874 92.95625L38.628124 92.95625L43.14375 99.70625L43.14375 92.95625L44.2375 92.95625L44.2375 101.55L43.065624 101.55L38.55 94.8L38.55 101.55L37.471874 101.55ZM46.471874 101.55L46.471874 92.95625L47.628124 92.95625L52.14375 99.70625L52.14375 92.95625L53.2375 92.95625L53.2375 101.55L52.065624 101.55L47.55 94.8L47.55 101.55L46.471874 101.55Z" fill-rule="nonzero"/><path fill="#9e9e9e" d="M33.01875 118.55L31.971874 118.55L31.971874 111.83125Q31.58125 112.19063 30.95625 112.56563Q30.346874 112.925 29.8625 113.09688L29.8625 112.08125Q30.7375 111.65938 31.39375 111.08125Q32.065624 110.4875 32.346874 109.925L33.01875 109.925L33.01875 118.55ZM36.64375 118.55L36.64375 117.34688L37.846874 117.34688L37.846874 118.55L36.64375 118.55ZM42.425 118.55L42.425 116.4875L38.70625 116.4875L38.70625 115.51875L42.628124 109.95625L43.4875 109.95625L43.4875 115.51875L44.64375 115.51875L44.64375 116.4875L43.4875 116.4875L43.4875 118.55L42.425 118.55ZM42.425 115.51875L42.425 111.65938L39.7375 115.51875L42.425 115.51875ZM46.253124 112.01875Q46.253124 111.09688 46.70625 110.45625Q47.175 109.81563 48.05 109.81563Q48.8625 109.81563 49.39375 110.39375Q49.925 110.97188 49.925 112.08125Q49.925 113.175 49.378124 113.76875Q48.846874 114.34688 48.065624 114.34688Q47.284374 114.34688 46.76875 113.76875Q46.253124 113.19063 46.253124 112.01875ZM48.08125 110.53438Q47.690624 110.53438 47.425 110.87813Q47.175 111.22188 47.175 112.12813Q47.175 112.95625 47.425 113.3Q47.690624 113.62813 48.08125 113.62813Q48.4875 113.62813 48.7375 113.28438Q49.003124 112.94063 49.003124 112.05Q49.003124 111.20625 48.7375 110.87813Q48.471874 110.53438 48.08125 110.53438ZM48.08125 118.8625L52.784374 109.81563L53.64375 109.81563L48.95625 118.8625L48.08125 118.8625ZM51.8 116.53438Q51.8 115.6125 52.253124 114.97188Q52.721874 114.33125 53.6125 114.33125Q54.425 114.33125 54.95625 114.90938Q55.4875 115.47188 55.4875 116.59688Q55.4875 117.69063 54.940624 118.28438Q54.409374 118.8625 53.6125 118.8625Q52.846874 118.8625 52.315624 118.28438Q51.8 117.70625 51.8 116.53438ZM53.64375 115.05Q53.2375 115.05 52.971874 115.39375Q52.721874 115.7375 52.721874 116.64375Q52.721874 117.45625 52.9875 117.8Q53.253124 118.14375 53.64375 118.14375Q54.034374 118.14375 54.3 117.8Q54.565624 117.45625 54.565624 116.55Q54.565624 115.72188 54.3 115.39375Q54.034374 115.05 53.64375 115.05Z" fill-rule="nonzero"/><path stroke="#757575" stroke-width="1.0" stroke-linecap="butt" d="M28.55 106.05L197.55 106.05L350.17163 67.75317" fill-rule="nonzero"/><path fill="#9e9e9e" d="M352.17163 67.75317C352.17163 66.6486 351.2762 65.75317 350.17163 65.75317C349.06708 65.75317 348.17163 66.6486 348.17163 67.75317C348.17163 68.857735 349.06708 69.75317 350.17163 69.75317C351.2762 69.75317 352.17163 68.857735 352.17163 67.75317" fill-rule="nonzero"/><path fill="#1a1a1a" d="M28.534374 132.55L31.83125 123.95625L33.05 123.95625L36.565624 132.55L35.284374 132.55L34.26875 129.94063L30.690624 129.94063L29.7375 132.55L28.534374 132.55ZM31.01875 129.01875L33.925 129.01875L33.034374 126.64375Q32.6125 125.56563 32.425 124.8625Q32.253124 125.69063 31.95625 126.50313L31.01875 129.01875ZM36.503124 132.55L36.503124 123.95625L42.70625 123.95625L42.70625 124.97188L37.64375 124.97188L37.64375 127.59688L42.39375 127.59688L42.39375 128.6125L37.64375 128.6125L37.64375 131.53438L42.909374 131.53438L42.909374 132.55L36.503124 132.55Z" fill-rule="nonzero"/><path fill="#9e9e9e" d="M34.596874 148.53438L34.596874 149.55L28.909374 149.55Q28.909374 149.175 29.034374 148.81563Q29.253124 148.2375 29.721874 147.675Q30.20625 147.1125 31.1125 146.37813Q32.51875 145.22188 33.003124 144.55Q33.503124 143.87813 33.503124 143.28438Q33.503124 142.65938 33.05 142.2375Q32.596874 141.8 31.878124 141.8Q31.1125 141.8 30.659374 142.25313Q30.20625 142.70625 30.190624 143.51875L29.1125 143.40938Q29.221874 142.19063 29.940624 141.56563Q30.675 140.925 31.909374 140.925Q33.14375 140.925 33.8625 141.6125Q34.58125 142.3 34.58125 143.31563Q34.58125 143.83125 34.3625 144.33125Q34.159374 144.81563 33.659374 145.37813Q33.175 145.925 32.05 146.87813Q31.096874 147.675 30.815624 147.97188Q30.55 148.25313 30.378124 148.53438L34.596874 148.53438ZM36.64375 149.55L36.64375 148.34688L37.846874 148.34688L37.846874 149.55L36.64375 149.55ZM44.596874 148.53438L44.596874 149.55L38.909374 149.55Q38.909374 149.175 39.034374 148.81563Q39.253124 148.2375 39.721874 147.675Q40.20625 147.1125 41.1125 146.37813Q42.51875 145.22188 43.003124 144.55Q43.503124 143.87813 43.503124 143.28438Q43.503124 142.65938 43.05 142.2375Q42.596874 141.8 41.878124 141.8Q41.1125 141.8 40.659374 142.25313Q40.20625 142.70625 40.190624 143.51875L39.1125 143.40938Q39.221874 142.19063 39.940624 141.56563Q40.675 140.925 41.909374 140.925Q43.14375 140.925 43.8625 141.6125Q44.58125 142.3 44.58125 143.31563Q44.58125 143.83125 44.3625 144.33125Q44.159374 144.81563 43.659374 145.37813Q43.175 145.925 42.05 146.87813Q41.096874 147.675 40.815624 147.97188Q40.55 148.25313 40.378124 148.53438L44.596874 148.53438ZM46.253124 143.01875Q46.253124 142.09688 46.70625 141.45625Q47.175 140.81563 48.05 140.81563Q48.8625 140.81563 49.39375 141.39375Q49.925 141.97188 49.925 143.08125Q49.925 144.175 49.378124 144.76875Q48.846874 145.34688 48.065624 145.34688Q47.284374 145.34688 46.76875 144.76875Q46.253124 144.19063 46.253124 143.01875ZM48.08125 141.53438Q47.690624 141.53438 47.425 141.87813Q47.175 142.22188 47.175 143.12813Q47.175 143.95625 47.425 144.3Q47.690624 144.62813 48.08125 144.62813Q48.4875 144.62813 48.7375 144.28438Q49.003124 143.94063 49.003124 143.05Q49.003124 142.20625 48.7375 141.87813Q48.471874 141.53438 48.08125 141.53438ZM48.08125 149.8625L52.784374 140.81563L53.64375 140.81563L48.95625 149.8625L48.08125 149.8625ZM51.8 147.53438Q51.8 146.6125 52.253124 145.97188Q52.721874 145.33125 53.6125 145.33125Q54.425 145.33125 54.95625 145.90938Q55.4875 146.47188 55.4875 147.59688Q55.4875 148.69063 54.940624 149.28438Q54.409374 149.8625 53.6125 149.8625Q52.846874 149.8625 52.315624 149.28438Q51.8 148.70625 51.8 147.53438ZM53.64375 146.05Q53.2375 146.05 52.971874 146.39375Q52.721874 146.7375 52.721874 147.64375Q52.721874 148.45625 52.9875 148.8Q53.253124 149.14375 53.64375 149.14375Q54.034374 149.14375 54.3 148.8Q54.565624 148.45625 54.565624 147.55Q54.565624 146.72188 54.3 146.39375Q54.034374 146.05 53.64375 146.05Z" fill-rule="nonzero"/><path stroke="#757575" stroke-width="1.0" stroke-linecap="butt" d="M28.55 137.05L197.55 137.05L326.3208 81.58341" fill-rule="nonzero"/><path fill="#9e9e9e" d="M328.3208 81.58341C328.3208 80.47884 327.42538 79.58341 326.3208 79.58341C325.21625 79.58341 324.3208 80.47884 324.3208 81.58341C324.3208 82.68798 325.21625 83.58341 326.3208 83.58341C327.42538 83.58341 328.3208 82.68798 328.3208 81.58341" fill-rule="nonzero"/><path fill="#1a1a1a" d="M31.925 163.55L28.596874 154.95625L29.83125 154.95625L32.065624 161.20625Q32.33125 161.95625 32.51875 162.6125Q32.721874 161.90938 32.9875 161.20625L35.3 154.95625L36.45625 154.95625L33.096874 163.55L31.925 163.55ZM35.534374 163.55L38.83125 154.95625L40.05 154.95625L43.565624 163.55L42.284374 163.55L41.26875 160.94063L37.690624 160.94063L36.7375 163.55L35.534374 163.55ZM38.01875 160.01875L40.925 160.01875L40.034374 157.64375Q39.6125 156.56563 39.425 155.8625Q39.253124 156.69063 38.95625 157.50313L38.01875 160.01875ZM43.503124 163.55L43.503124 154.95625L49.70625 154.95625L49.70625 155.97188L44.64375 155.97188L44.64375 158.59688L49.39375 158.59688L49.39375 159.6125L44.64375 159.6125L44.64375 162.53438L49.909374 162.53438L49.909374 163.55L43.503124 163.55Z" fill-rule="nonzero"/><path fill="#9e9e9e" d="M34.596874 179.53438L34.596874 180.55L28.909374 180.55Q28.909374 180.175 29.034374 179.81563Q29.253124 179.2375 29.721874 178.675Q30.20625 178.1125 31.1125 177.37813Q32.51875 176.22188 33.003124 175.55Q33.503124 174.87813 33.503124 174.28438Q33.503124 173.65938 33.05 173.2375Q32.596874 172.8 31.878124 172.8Q31.1125 172.8 30.659374 173.25313Q30.20625 173.70625 30.190624 174.51875L29.1125 174.40938Q29.221874 173.19063 29.940624 172.56563Q30.675 171.925 31.909374 171.925Q33.14375 171.925 33.8625 172.6125Q34.58125 173.3 34.58125 174.31563Q34.58125 174.83125 34.3625 175.33125Q34.159374 175.81563 33.659374 176.37813Q33.175 176.925 32.05 177.87813Q31.096874 178.675 30.815624 178.97188Q30.55 179.25313 30.378124 179.53438L34.596874 179.53438ZM36.64375 180.55L36.64375 179.34688L37.846874 179.34688L37.846874 180.55L36.64375 180.55ZM43.01875 180.55L41.971874 180.55L41.971874 173.83125Q41.58125 174.19063 40.95625 174.56563Q40.346874 174.925 39.8625 175.09688L39.8625 174.08125Q40.7375 173.65938 41.39375 173.08125Q42.065624 172.4875 42.346874 171.925L43.01875 171.925L43.01875 180.55ZM46.253124 174.01875Q46.253124 173.09688 46.70625 172.45625Q47.175 171.81563 48.05 171.81563Q48.8625 171.81563 49.39375 172.39375Q49.925 172.97188 49.925 174.08125Q49.925 175.175 49.378124 175.76875Q48.846874 176.34688 48.065624 176.34688Q47.284374 176.34688 46.76875 175.76875Q46.253124 175.19063 46.253124 174.01875ZM48.08125 172.53438Q47.690624 172.53438 47.425 172.87813Q47.175 173.22188 47.175 174.12813Q47.175 174.95625 47.425 175.3Q47.690624 175.62813 48.08125 175.62813Q48.4875 175.62813 48.7375 175.28438Q49.003124 174.94063 49.003124 174.05Q49.003124 173.20625 48.7375 172.87813Q48.471874 172.53438 48.08125 172.53438ZM48.08125 180.8625L52.784374 171.81563L53.64375 171.81563L48.95625 180.8625L48.08125 180.8625ZM51.8 178.53438Q51.8 177.6125 52.253124 176.97188Q52.721874 176.33125 53.6125 176.33125Q54.425 176.33125 54.95625 176.90938Q55.4875 177.47188 55.4875 178.59688Q55.4875 179.69063 54.940624 180.28438Q54.409374 180.8625 53.6125 180.8625Q52.846874 180.8625 52.315624 180.28438Q51.8 179.70625 51.8 178.53438ZM53.64375 177.05Q53.2375 177.05 52.971874 177.39375Q52.721874 177.7375 52.721874 178.64375Q52.721874 179.45625 52.9875 179.8Q53.253124 180.14375 53.64375 180.14375Q54.034374 180.14375 54.3 179.8Q54.565624 179.45625 54.565624 178.55Q54.565624 177.72188 54.3 177.39375Q54.034374 177.05 53.64375 177.05Z" fill-rule="nonzero"/><path stroke="#757575" stroke-width="1.0" stroke-linecap="butt" d="M28.55 168.05L197.55 168.05L300.50476 101.14286" fill-rule="nonzero"/><path fill="#9e9e9e" d="M302.50476 101.14286C302.50476 100.03829 301.60934 99.14286 300.50476 99.14286C299.4002 99.14286 298.50476 100.03829 298.50476 101.14286C298.50476 102.24743 299.4002 103.14286 300.50476 103.14286C301.60934 103.14286 302.50476 102.24743 302.50476 101.14286" fill-rule="nonzero"/><path fill="#1a1a1a" d="M29.425 194.55L29.425 185.95625L30.565624 185.95625L30.565624 193.53438L34.8 193.53438L34.8 194.55L29.425 194.55ZM36.096874 191.78438L37.159374 191.69063Q37.2375 192.34688 37.51875 192.75313Q37.8 193.15938 38.378124 193.425Q38.971874 193.675 39.70625 193.675Q40.346874 193.675 40.846874 193.4875Q41.346874 193.28438 41.58125 192.95625Q41.83125 192.6125 41.83125 192.22188Q41.83125 191.81563 41.596874 191.51875Q41.3625 191.20625 40.83125 191.00313Q40.471874 190.8625 39.284374 190.58125Q38.1125 190.3 37.64375 190.05Q37.01875 189.72188 36.721874 189.25313Q36.425 188.76875 36.425 188.175Q36.425 187.53438 36.784374 186.97188Q37.159374 186.39375 37.8625 186.1125Q38.58125 185.81563 39.440624 185.81563Q40.39375 185.81563 41.128124 186.12813Q41.8625 186.425 42.253124 187.03438Q42.64375 187.62813 42.675 188.37813L41.58125 188.45625Q41.4875 187.64375 40.971874 187.2375Q40.471874 186.81563 39.4875 186.81563Q38.45625 186.81563 37.9875 187.19063Q37.51875 187.56563 37.51875 188.09688Q37.51875 188.56563 37.846874 188.8625Q38.175 189.15938 39.55 189.47188Q40.940624 189.78438 41.45625 190.01875Q42.20625 190.37813 42.565624 190.90938Q42.925 191.425 42.925 192.12813Q42.925 192.81563 42.534374 193.425Q42.14375 194.01875 41.409374 194.3625Q40.675 194.69063 39.753124 194.69063Q38.58125 194.69063 37.784374 194.3625Q37.003124 194.01875 36.55 193.33125Q36.1125 192.64375 36.096874 191.78438ZM46.659374 194.55L46.659374 186.97188L43.83125 186.97188L43.83125 185.95625L50.64375 185.95625L50.64375 186.97188L47.8 186.97188L47.8 194.55L46.659374 194.55ZM51.440624 194.55L51.440624 185.95625L53.159374 185.95625L55.190624 192.03438Q55.471874 192.89375 55.596874 193.31563Q55.7375 192.84688 56.05 191.94063L58.1125 185.95625L59.64375 185.95625L59.64375 194.55L58.55 194.55L58.55 187.3625L56.05 194.55L55.01875 194.55L52.534374 187.2375L52.534374 194.55L51.440624 194.55Z" fill-rule="nonzero"/><path fill="#9e9e9e" d="M29.05 209.28438L30.1125 209.14375Q30.284374 210.03438 30.721874 210.44063Q31.159374 210.83125 31.784374 210.83125Q32.534374 210.83125 33.05 210.31563Q33.565624 209.8 33.565624 209.03438Q33.565624 208.31563 33.08125 207.84688Q32.6125 207.3625 31.878124 207.3625Q31.58125 207.3625 31.128124 207.4875L31.253124 206.55Q31.3625 206.56563 31.425 206.56563Q32.096874 206.56563 32.628124 206.22188Q33.175 205.8625 33.175 205.12813Q33.175 204.55 32.784374 204.175Q32.39375 203.78438 31.76875 203.78438Q31.159374 203.78438 30.7375 204.175Q30.33125 204.56563 30.221874 205.33125L29.159374 205.14375Q29.346874 204.09688 30.034374 203.51875Q30.721874 202.925 31.7375 202.925Q32.440624 202.925 33.034374 203.2375Q33.628124 203.53438 33.940624 204.05Q34.253124 204.56563 34.253124 205.15938Q34.253124 205.70625 33.95625 206.175Q33.659374 206.62813 33.08125 206.89375Q33.83125 207.06563 34.253124 207.62813Q34.675 208.175 34.675 209.01875Q34.675 210.14375 33.846874 210.925Q33.034374 211.70625 31.784374 211.70625Q30.659374 211.70625 29.909374 211.03438Q29.159374 210.34688 29.05 209.28438ZM36.64375 211.55L36.64375 210.34688L37.846874 210.34688L37.846874 211.55L36.64375 211.55ZM44.596874 210.53438L44.596874 211.55L38.909374 211.55Q38.909374 211.175 39.034374 210.81563Q39.253124 210.2375 39.721874 209.675Q40.20625 209.1125 41.1125 208.37813Q42.51875 207.22188 43.003124 206.55Q43.503124 205.87813 43.503124 205.28438Q43.503124 204.65938 43.05 204.2375Q42.596874 203.8 41.878124 203.8Q41.1125 203.8 40.659374 204.25313Q40.20625 204.70625 40.190624 205.51875L39.1125 205.40938Q39.221874 204.19063 39.940624 203.56563Q40.675 202.925 41.909374 202.925Q43.14375 202.925 43.8625 203.6125Q44.58125 204.3 44.58125 205.31563Q44.58125 205.83125 44.3625 206.33125Q44.159374 206.81563 43.659374 207.37813Q43.175 207.925 42.05 208.87813Q41.096874 209.675 40.815624 209.97188Q40.55 210.25313 40.378124 210.53438L44.596874 210.53438ZM46.253124 205.01875Q46.253124 204.09688 46.70625 203.45625Q47.175 202.81563 48.05 202.81563Q48.8625 202.81563 49.39375 203.39375Q49.925 203.97188 49.925 205.08125Q49.925 206.175 49.378124 206.76875Q48.846874 207.34688 48.065624 207.34688Q47.284374 207.34688 46.76875 206.76875Q46.253124 206.19063 46.253124 205.01875ZM48.08125 203.53438Q47.690624 203.53438 47.425 203.87813Q47.175 204.22188 47.175 205.12813Q47.175 205.95625 47.425 206.3Q47.690624 206.62813 48.08125 206.62813Q48.4875 206.62813 48.7375 206.28438Q49.003124 205.94063 49.003124 205.05Q49.003124 204.20625 48.7375 203.87813Q48.471874 203.53438 48.08125 203.53438ZM48.08125 211.8625L52.784374 202.81563L53.64375 202.81563L48.95625 211.8625L48.08125 211.8625ZM51.8 209.53438Q51.8 208.6125 52.253124 207.97188Q52.721874 207.33125 53.6125 207.33125Q54.425 207.33125 54.95625 207.90938Q55.4875 208.47188 55.4875 209.59688Q55.4875 210.69063 54.940624 211.28438Q54.409374 211.8625 53.6125 211.8625Q52.846874 211.8625 52.315624 211.28438Q51.8 210.70625 51.8 209.53438ZM53.64375 208.05Q53.2375 208.05 52.971874 208.39375Q52.721874 208.7375 52.721874 209.64375Q52.721874 210.45625 52.9875 210.8Q53.253124 211.14375 53.64375 211.14375Q54.034374 211.14375 54.3 210.8Q54.565624 210.45625 54.565624 209.55Q54.565624 208.72188 54.3 208.39375Q54.034374 208.05 53.64375 208.05Z" fill-rule="nonzero"/><path stroke="#757575" stroke-width="1.0" stroke-linecap="butt" d="M28.55 199.05L197.55 199.05L272.13477 130.24355" fill-rule="nonzero"/><path fill="#9e9e9e" d="M274.13477 130.24355C274.13477 129.13898 273.23932 128.24355 272.13477 128.24355C271.03018 128.24355 270.13477 129.13898 270.13477 130.24355C270.13477 131.34811 271.03018 132.24355 272.13477 132.24355C273.23932 132.24355 274.13477 131.34811 274.13477 130.24355" fill-rule="nonzero"/><path fill="#1a1a1a" d="M35.1125 216.95625L36.253124 216.95625L36.253124 221.925Q36.253124 223.22188 35.95625 223.9875Q35.659374 224.7375 34.89375 225.22188Q34.128124 225.69063 32.89375 225.69063Q31.690624 225.69063 30.909374 225.28438Q30.14375 224.8625 29.815624 224.08125Q29.4875 223.28438 29.4875 221.925L29.4875 216.95625L30.628124 216.95625L30.628124 221.90938Q30.628124 223.03438 30.83125 223.56563Q31.05 224.09688 31.55 224.39375Q32.065624 224.675 32.8 224.675Q34.05 224.675 34.58125 224.1125Q35.1125 223.53438 35.1125 221.90938L35.1125 216.95625ZM38.346874 225.55L38.346874 219.33125L39.284374 219.33125L39.284374 220.20625Q39.971874 219.19063 41.26875 219.19063Q41.83125 219.19063 42.3 219.39375Q42.784374 219.59688 43.01875 219.925Q43.253124 220.25313 43.346874 220.69063Q43.39375 220.9875 43.39375 221.72188L43.39375 225.55L42.346874 225.55L42.346874 221.76875Q42.346874 221.1125 42.221874 220.8Q42.096874 220.4875 41.784374 220.3Q41.471874 220.09688 41.05 220.09688Q40.378124 220.09688 39.878124 220.53438Q39.39375 220.95625 39.39375 222.14375L39.39375 225.55L38.346874 225.55ZM49.596874 223.55L50.690624 223.675Q50.440624 224.62813 49.7375 225.15938Q49.034374 225.69063 47.95625 225.69063Q46.596874 225.69063 45.784374 224.84688Q44.9875 224.00313 44.9875 222.4875Q44.9875 220.925 45.8 220.06563Q46.6125 219.19063 47.89375 219.19063Q49.14375 219.19063 49.925 220.03438Q50.721874 220.87813 50.721874 222.425Q50.721874 222.51875 50.721874 222.70625L46.08125 222.70625Q46.14375 223.7375 46.659374 224.28438Q47.175 224.81563 47.95625 224.81563Q48.534374 224.81563 48.940624 224.51875Q49.3625 224.20625 49.596874 223.55ZM46.14375 221.84688L49.6125 221.84688Q49.55 221.05 49.221874 220.65938Q48.70625 220.05 47.909374 220.05Q47.175 220.05 46.675 220.53438Q46.190624 221.01875 46.14375 221.84688ZM54.64375 224.6125L54.8 225.53438Q54.346874 225.62813 54.003124 225.62813Q53.425 225.62813 53.1125 225.45625Q52.8 225.26875 52.659374 224.97188Q52.534374 224.675 52.534374 223.72188L52.534374 220.14375L51.76875 220.14375L51.76875 219.33125L52.534374 219.33125L52.534374 217.78438L53.58125 217.15938L53.58125 219.33125L54.64375 219.33125L54.64375 220.14375L53.58125 220.14375L53.58125 223.78438Q53.58125 224.2375 53.628124 224.3625Q53.690624 224.4875 53.815624 224.56563Q53.940624 224.64375 54.175 224.64375Q54.3625 224.64375 54.64375 224.6125Z" fill-rule="nonzero"/><path fill="#9e9e9e" d="M29.05 240.3L30.159374 240.20625Q30.284374 241.01875 30.721874 241.425Q31.175 241.83125 31.815624 241.83125Q32.565624 241.83125 33.096874 241.25313Q33.628124 240.675 33.628124 239.7375Q33.628124 238.83125 33.1125 238.31563Q32.6125 237.78438 31.784374 237.78438Q31.284374 237.78438 30.8625 238.01875Q30.45625 238.25313 30.221874 238.6125L29.2375 238.4875L30.065624 234.08125L34.346874 234.08125L34.346874 235.08125L30.909374 235.08125L30.45625 237.39375Q31.221874 236.84688 32.065624 236.84688Q33.190624 236.84688 33.95625 237.62813Q34.7375 238.40938 34.7375 239.64375Q34.7375 240.8 34.065624 241.65938Q33.2375 242.69063 31.815624 242.69063Q30.64375 242.69063 29.89375 242.03438Q29.159374 241.37813 29.05 240.3ZM36.64375 242.55L36.64375 241.34688L37.846874 241.34688L37.846874 242.55L36.64375 242.55ZM39.05 240.28438L40.1125 240.14375Q40.284374 241.03438 40.721874 241.44063Q41.159374 241.83125 41.784374 241.83125Q42.534374 241.83125 43.05 241.31563Q43.565624 240.8 43.565624 240.03438Q43.565624 239.31563 43.08125 238.84688Q42.6125 238.3625 41.878124 238.3625Q41.58125 238.3625 41.128124 238.4875L41.253124 237.55Q41.3625 237.56563 41.425 237.56563Q42.096874 237.56563 42.628124 237.22188Q43.175 236.8625 43.175 236.12813Q43.175 235.55 42.784374 235.175Q42.39375 234.78438 41.76875 234.78438Q41.159374 234.78438 40.7375 235.175Q40.33125 235.56563 40.221874 236.33125L39.159374 236.14375Q39.346874 235.09688 40.034374 234.51875Q40.721874 233.925 41.7375 233.925Q42.440624 233.925 43.034374 234.2375Q43.628124 234.53438 43.940624 235.05Q44.253124 235.56563 44.253124 236.15938Q44.253124 236.70625 43.95625 237.175Q43.659374 237.62813 43.08125 237.89375Q43.83125 238.06563 44.253124 238.62813Q44.675 239.175 44.675 240.01875Q44.675 241.14375 43.846874 241.925Q43.034374 242.70625 41.784374 242.70625Q40.659374 242.70625 39.909374 242.03438Q39.159374 241.34688 39.05 240.28438ZM46.253124 236.01875Q46.253124 235.09688 46.70625 234.45625Q47.175 233.81563 48.05 233.81563Q48.8625 233.81563 49.39375 234.39375Q49.925 234.97188 49.925 236.08125Q49.925 237.175 49.378124 237.76875Q48.846874 238.34688 48.065624 238.34688Q47.284374 238.34688 46.76875 237.76875Q46.253124 237.19063 46.253124 236.01875ZM48.08125 234.53438Q47.690624 234.53438 47.425 234.87813Q47.175 235.22188 47.175 236.12813Q47.175 236.95625 47.425 237.3Q47.690624 237.62813 48.08125 237.62813Q48.4875 237.62813 48.7375 237.28438Q49.003124 236.94063 49.003124 236.05Q49.003124 235.20625 48.7375 234.87813Q48.471874 234.53438 48.08125 234.53438ZM48.08125 242.8625L52.784374 233.81563L53.64375 233.81563L48.95625 242.8625L48.08125 242.8625ZM51.8 240.53438Q51.8 239.6125 52.253124 238.97188Q52.721874 238.33125 53.6125 238.33125Q54.425 238.33125 54.95625 238.90938Q55.4875 239.47188 55.4875 240.59688Q55.4875 241.69063 54.940624 242.28438Q54.409374 242.8625 53.6125 242.8625Q52.846874 242.8625 52.315624 242.28438Q51.8 241.70625 51.8 240.53438ZM53.64375 239.05Q53.2375 239.05 52.971874 239.39375Q52.721874 239.7375 52.721874 240.64375Q52.721874 241.45625 52.9875 241.8Q53.253124 242.14375 53.64375 242.14375Q54.034374 242.14375 54.3 241.8Q54.565624 241.45625 54.565624 240.55Q54.565624 239.72188 54.3 239.39375Q54.034374 239.05 53.64375 239.05Z" fill-rule="nonzero"/><path stroke="#757575" stroke-width="1.0" stroke-linecap="butt" d="M28.55 230.05L197.55 230.05L237.70744 185.75278" fill-rule="nonzero"/><path fill="#9e9e9e" d="M239.70744 185.75278C239.70744 184.64821 238.81201 183.75278 237.70744 183.75278C236.60287 183.75278 235.70744 184.64821 235.70744 185.75278C235.70744 186.85735 236.60287 187.75278 237.70744 187.75278C238.81201 187.75278 239.70744 186.85735 239.70744 185.75278" fill-rule="nonzero"/><path fill="#1a1a1a" d="M29.471874 438.9017L29.471874 430.30795L30.628124 430.30795L35.14375 437.05795L35.14375 430.30795L36.2375 430.30795L36.2375 438.9017L35.065624 438.9017L30.55 432.1517L30.55 438.9017L29.471874 438.9017ZM38.471874 438.9017L38.471874 430.30795L39.628124 430.30795L44.14375 437.05795L44.14375 430.30795L45.2375 430.30795L45.2375 438.9017L44.065624 438.9017L39.55 432.1517L39.55 438.9017L38.471874 438.9017Z" fill-rule="nonzero"/><path fill="#9e9e9e" d="M29.05 453.63608L30.1125 453.49545Q30.284374 454.38608 30.721874 454.79233Q31.159374 455.18295 31.784374 455.18295Q32.534374 455.18295 33.05 454.66733Q33.565624 454.1517 33.565624 453.38608Q33.565624 452.66733 33.08125 452.19858Q32.6125 451.7142 31.878124 451.7142Q31.58125 451.7142 31.128124 451.8392L31.253124 450.9017Q31.3625 450.91733 31.425 450.91733Q32.096874 450.91733 32.628124 450.57358Q33.175 450.2142 33.175 449.47983Q33.175 448.9017 32.784374 448.5267Q32.39375 448.13608 31.76875 448.13608Q31.159374 448.13608 30.7375 448.5267Q30.33125 448.91733 30.221874 449.68295L29.159374 449.49545Q29.346874 448.44858 30.034374 447.87045Q30.721874 447.2767 31.7375 447.2767Q32.440624 447.2767 33.034374 447.5892Q33.628124 447.88608 33.940624 448.4017Q34.253124 448.91733 34.253124 449.51108Q34.253124 450.05795 33.95625 450.5267Q33.659374 450.97983 33.08125 451.24545Q33.83125 451.41733 34.253124 451.97983Q34.675 452.5267 34.675 453.37045Q34.675 454.49545 33.846874 455.2767Q33.034374 456.05795 31.784374 456.05795Q30.659374 456.05795 29.909374 455.38608Q29.159374 454.69858 29.05 453.63608ZM36.05 451.66733Q36.05 450.13608 36.3625 449.2142Q36.675 448.2767 37.284374 447.7767Q37.909374 447.2767 38.846874 447.2767Q39.534374 447.2767 40.05 447.55795Q40.58125 447.8392 40.925 448.37045Q41.26875 448.88608 41.45625 449.63608Q41.64375 450.38608 41.64375 451.66733Q41.64375 453.18295 41.33125 454.10483Q41.034374 455.0267 40.409374 455.54233Q39.8 456.04233 38.846874 456.04233Q37.6125 456.04233 36.89375 455.1517Q36.05 454.0892 36.05 451.66733ZM37.128124 451.66733Q37.128124 453.7767 37.628124 454.47983Q38.128124 455.18295 38.846874 455.18295Q39.58125 455.18295 40.065624 454.47983Q40.565624 453.7767 40.565624 451.66733Q40.565624 449.54233 40.065624 448.85483Q39.58125 448.1517 38.83125 448.1517Q38.1125 448.1517 37.675 448.76108Q37.128124 449.54233 37.128124 451.66733ZM43.64375 455.9017L43.64375 454.69858L44.846874 454.69858L44.846874 455.9017L43.64375 455.9017ZM46.05 453.6517L47.159374 453.55795Q47.284374 454.37045 47.721874 454.7767Q48.175 455.18295 48.815624 455.18295Q49.565624 455.18295 50.096874 454.60483Q50.628124 454.0267 50.628124 453.0892Q50.628124 452.18295 50.1125 451.66733Q49.6125 451.13608 48.784374 451.13608Q48.284374 451.13608 47.8625 451.37045Q47.45625 451.60483 47.221874 451.9642L46.2375 451.8392L47.065624 447.43295L51.346874 447.43295L51.346874 448.43295L47.909374 448.43295L47.45625 450.74545Q48.221874 450.19858 49.065624 450.19858Q50.190624 450.19858 50.95625 450.97983Q51.7375 451.76108 51.7375 452.99545Q51.7375 454.1517 51.065624 455.01108Q50.2375 456.04233 48.815624 456.04233Q47.64375 456.04233 46.89375 455.38608Q46.159374 454.72983 46.05 453.6517ZM53.253124 449.37045Q53.253124 448.44858 53.70625 447.80795Q54.175 447.16733 55.05 447.16733Q55.8625 447.16733 56.39375 447.74545Q56.925 448.32358 56.925 449.43295Q56.925 450.5267 56.378124 451.12045Q55.846874 451.69858 55.065624 451.69858Q54.284374 451.69858 53.76875 451.12045Q53.253124 450.54233 53.253124 449.37045ZM55.08125 447.88608Q54.690624 447.88608 54.425 448.22983Q54.175 448.57358 54.175 449.47983Q54.175 450.30795 54.425 450.6517Q54.690624 450.97983 55.08125 450.97983Q55.4875 450.97983 55.7375 450.63608Q56.003124 450.29233 56.003124 449.4017Q56.003124 448.55795 55.7375 448.22983Q55.471874 447.88608 55.08125 447.88608ZM55.08125 456.2142L59.784374 447.16733L60.64375 447.16733L55.95625 456.2142L55.08125 456.2142ZM58.8 453.88608Q58.8 452.9642 59.253124 452.32358Q59.721874 451.68295 60.6125 451.68295Q61.425 451.68295 61.95625 452.26108Q62.4875 452.82358 62.4875 453.94858Q62.4875 455.04233 61.940624 455.63608Q61.409374 456.2142 60.6125 456.2142Q59.846874 456.2142 59.315624 455.63608Q58.8 455.05795 58.8 453.88608ZM60.64375 452.4017Q60.2375 452.4017 59.971874 452.74545Q59.721874 453.0892 59.721874 453.99545Q59.721874 454.80795 59.9875 455.1517Q60.253124 455.49545 60.64375 455.49545Q61.034374 455.49545 61.3 455.1517Q61.565624 454.80795 61.565624 453.9017Q61.565624 453.07358 61.3 452.74545Q61.034374 452.4017 60.64375 452.4017Z" fill-rule="nonzero"/><path stroke="#757575" stroke-width="1.0" stroke-linecap="butt" d="M28.55 443.4017L197.55 443.4017L274.34662 443.4017" fill-rule="nonzero"/><path fill="#9e9e9e" d="M276.34662 443.4017C276.34662 442.29712 275.45117 441.4017 274.34662 441.4017C273.24203 441.4017 272.34662 442.29712 272.34662 443.4017C272.34662 444.5063 273.24203 445.4017 274.34662 445.4017C275.45117 445.4017 276.34662 444.5063 276.34662 443.4017" fill-rule="nonzero"/><path fill="#1a1a1a" d="M872.5125 266.954L873.6375 267.2509Q873.27814 268.6415 872.35626 269.3759Q871.4344 270.11026 870.09064 270.11026Q868.7 270.11026 867.825 269.54776Q866.95 268.98526 866.4969 267.92276Q866.04376 266.84464 866.04376 265.61026Q866.04376 264.2665 866.5594 263.2665Q867.075 262.2665 868.0125 261.7509Q868.96564 261.23526 870.10626 261.23526Q871.3875 261.23526 872.2625 261.8915Q873.15314 262.54776 873.4969 263.73526L872.3719 264.0009Q872.075 263.0634 871.4969 262.6415Q870.9344 262.204 870.075 262.204Q869.09064 262.204 868.41876 262.6884Q867.7625 263.15714 867.48126 263.954Q867.21564 264.7509 867.21564 265.61026Q867.21564 266.704 867.52814 267.5165Q867.85626 268.329 868.52814 268.73526Q869.2 269.1415 869.9969 269.1415Q870.95 269.1415 871.60626 268.59464Q872.27814 268.04776 872.5125 266.954ZM875.3719 269.96964L875.3719 261.3759L876.52814 261.3759L881.04376 268.1259L881.04376 261.3759L882.1375 261.3759L882.1375 269.96964L880.96564 269.96964L876.45 263.21964L876.45 269.96964L875.3719 269.96964ZM884.3719 269.96964L884.3719 261.3759L885.52814 261.3759L890.04376 268.1259L890.04376 261.3759L891.1375 261.3759L891.1375 269.96964L889.96564 269.96964L885.45 263.21964L885.45 269.96964L884.3719 269.96964Z" fill-rule="nonzero"/><path fill="#9e9e9e" d="M861.325 286.96964L861.325 284.90714L857.60626 284.90714L857.60626 283.9384L861.52814 278.3759L862.3875 278.3759L862.3875 283.9384L863.54376 283.9384L863.54376 284.90714L862.3875 284.90714L862.3875 286.96964L861.325 286.96964ZM861.325 283.9384L861.325 280.079L858.6375 283.9384L861.325 283.9384ZM866.575 282.3134Q865.91876 282.0634 865.59064 281.6259Q865.27814 281.17276 865.27814 280.5634Q865.27814 279.6259 865.95 278.98526Q866.6375 278.34464 867.7469 278.34464Q868.8719 278.34464 869.5594 279.0009Q870.2469 279.65714 870.2469 280.59464Q870.2469 281.1884 869.9344 281.6259Q869.6219 282.0634 868.98126 282.3134Q869.77814 282.5634 870.1844 283.1415Q870.59064 283.71964 870.59064 284.5165Q870.59064 285.61026 869.8094 286.36026Q869.04376 287.11026 867.7625 287.11026Q866.4969 287.11026 865.71564 286.36026Q864.9344 285.61026 864.9344 284.48526Q864.9344 283.6415 865.35626 283.079Q865.79376 282.5165 866.575 282.3134ZM866.35626 280.5165Q866.35626 281.1259 866.7469 281.5165Q867.15314 281.90714 867.77814 281.90714Q868.3875 281.90714 868.77814 281.53214Q869.16876 281.1415 869.16876 280.579Q869.16876 280.0009 868.7625 279.61026Q868.35626 279.204 867.7625 279.204Q867.15314 279.204 866.7469 279.59464Q866.35626 279.98526 866.35626 280.5165ZM866.02814 284.48526Q866.02814 284.9384 866.23126 285.36026Q866.45 285.78214 866.8719 286.0165Q867.29376 286.2509 867.77814 286.2509Q868.52814 286.2509 869.0125 285.7665Q869.5125 285.28214 869.5125 284.53214Q869.5125 283.7665 869.0125 283.2665Q868.5125 282.7665 867.7469 282.7665Q866.9969 282.7665 866.5125 283.2665Q866.02814 283.7509 866.02814 284.48526ZM872.54376 286.96964L872.54376 285.7665L873.7469 285.7665L873.7469 286.96964L872.54376 286.96964ZM880.41876 280.48526L879.3719 280.5634Q879.23126 279.9384 878.98126 279.65714Q878.54376 279.204 877.91876 279.204Q877.41876 279.204 877.02814 279.48526Q876.54376 279.86026 876.2469 280.5634Q875.96564 281.2509 875.95 282.53214Q876.325 281.954 876.8719 281.67276Q877.4344 281.3915 878.04376 281.3915Q879.09064 281.3915 879.825 282.17276Q880.575 282.954 880.575 284.17276Q880.575 284.98526 880.21564 285.6884Q879.8719 286.3759 879.2625 286.7509Q878.65314 287.11026 877.8875 287.11026Q876.5594 287.11026 875.73126 286.1415Q874.90314 285.17276 874.90314 282.954Q874.90314 280.454 875.825 279.329Q876.6219 278.34464 877.98126 278.34464Q878.9969 278.34464 879.6375 278.92276Q880.29376 279.48526 880.41876 280.48526ZM876.1219 284.1884Q876.1219 284.73526 876.34064 285.23526Q876.575 285.71964 876.98126 285.98526Q877.40314 286.2509 877.8719 286.2509Q878.52814 286.2509 879.0125 285.71964Q879.4969 285.17276 879.4969 284.2509Q879.4969 283.36026 879.0125 282.84464Q878.54376 282.329 877.825 282.329Q877.10626 282.329 876.60626 282.84464Q876.1219 283.36026 876.1219 284.1884ZM882.15314 280.4384Q882.15314 279.5165 882.60626 278.8759Q883.075 278.23526 883.95 278.23526Q884.7625 278.23526 885.29376 278.8134Q885.825 279.3915 885.825 280.5009Q885.825 281.59464 885.27814 282.1884Q884.7469 282.7665 883.96564 282.7665Q883.1844 282.7665 882.66876 282.1884Q882.15314 281.61026 882.15314 280.4384ZM883.98126 278.954Q883.59064 278.954 883.325 279.29776Q883.075 279.6415 883.075 280.54776Q883.075 281.3759 883.325 281.71964Q883.59064 282.04776 883.98126 282.04776Q884.3875 282.04776 884.6375 281.704Q884.90314 281.36026 884.90314 280.46964Q884.90314 279.6259 884.6375 279.29776Q884.3719 278.954 883.98126 278.954ZM883.98126 287.28214L888.6844 278.23526L889.54376 278.23526L884.85626 287.28214L883.98126 287.28214ZM887.7 284.954Q887.7 284.03214 888.15314 283.3915Q888.6219 282.7509 889.5125 282.7509Q890.325 282.7509 890.85626 283.329Q891.3875 283.8915 891.3875 285.0165Q891.3875 286.11026 890.84064 286.704Q890.3094 287.28214 889.5125 287.28214Q888.7469 287.28214 888.21564 286.704Q887.7 286.1259 887.7 284.954ZM889.54376 283.46964Q889.1375 283.46964 888.8719 283.8134Q888.6219 284.15714 888.6219 285.0634Q888.6219 285.8759 888.8875 286.21964Q889.15314 286.5634 889.54376 286.5634Q889.9344 286.5634 890.2 286.21964Q890.46564 285.8759 890.46564 284.96964Q890.46564 284.1415 890.2 283.8134Q889.9344 283.46964 889.54376 283.46964Z" fill-rule="nonzero"/><path stroke="#757575" stroke-width="1.0" stroke-linecap="butt" d="M892.45 274.46964L723.45 274.46964L704.35315 274.46964" fill-rule="nonzero"/><path fill="#9e9e9e" d="M706.35315 274.46964C706.35315 273.36508 705.4577 272.46964 704.35315 272.46964C703.2486 272.46964 702.35315 273.36508 702.35315 274.46964C702.35315 275.57422 703.2486 276.46964 704.35315 276.46964C705.4577 276.46964 706.35315 275.57422 706.35315 274.46964" fill-rule="nonzero"/></svg>