<svg version="1.1" viewBox="0.0 0.0 890.0 562.0" fill="none" stroke="none" stroke-linecap="square" stroke-miterlimit="10" width="890" height="562" xmlns:xlink="http://www.w3.org/1999/xlink" xmlns="http://www.w3.org/2000/svg"><path fill="#ffffff" d="M0 0L890.0 0L890.0 562.0L0 562.0L0 0Z" fill-rule="nonzero"/><path fill="#966108" d="M442.05743 28.117119C443.03824 28.105707 444.01913 28.1 445.0 28.1L445.0 281.0Z" fill-rule="nonzero"/><path fill="#5c201c" d="M439.1153 28.168474C440.0959 28.14565 441.07663 28.128532 442.05743 28.117119L445.0 281.0Z" fill-rule="nonzero"/><path fill="#ff487e" d="M436.17392 28.25406C437.1542 28.219828 438.13467 28.1913 439.1153 28.168474L445.0 281.0Z" fill-rule="nonzero"/><path fill="#652b55" d="M433.23373 28.373863C434.21356 28.328226 435.19363 28.288292 436.17392 28.25406L445.0 281.0Z" fill-rule="nonzero"/><path fill="#01217d" d="M430.29517 28.527866C431.27438 28.470835 432.25394 28.419498 433.23373 28.373863L445.0 281.0Z" fill-rule="nonzero"/><path fill="#0a5d64" d="M427.35858 28.716051C428.33707 28.647629 429.31595 28.5849 430.29517 28.527866L445.0 281.0Z" fill-rule="nonzero"/><path fill="#5e3c05" d="M424.42438 28.938393C425.402 28.85859 426.3801 28.784473 427.35858 28.716051L445.0 281.0Z" fill-rule="nonzero"/><path fill="#240c0a" d="M421.49298 29.194857C422.4696 29.103685 423.44678 29.018194 424.42438 28.938393L445.0 281.0Z" fill-rule="nonzero"/><path fill="#ff1c32" d="M418.56476 29.485413C419.54025 29.382883 420.51636 29.28603 421.49298 29.194857L445.0 281.0Z" fill-rule="nonzero"/><path fill="#281021" d="M415.6401 29.810019C416.61435 29.696146 417.58923 29.587942 418.56476 29.485413L445.0 281.0Z" fill-rule="nonzero"/><path fill="#000c31" d="M412.71942 30.168633C413.6923 30.043432 414.66586 29.923893 415.6401 29.810019L445.0 281.0Z" fill-rule="nonzero"/><path fill="#032527" d="M409.80313 30.561205C410.77444 30.424694 411.74658 30.293835 412.71942 30.168633L445.0 281.0Z" fill-rule="nonzero"/><path fill="#251701" d="M406.89157 30.987682C407.86127 30.839878 408.8318 30.697718 409.80313 30.561205L445.0 281.0Z" fill-rule="nonzero"/><path fill="#edf8f9" d="M403.9852 31.448008C404.9531 31.28893 405.9219 31.135487 406.89157 30.987682L445.0 281.0Z" fill-rule="nonzero"/><path fill="#fff0e6" d="M401.08438 31.94212C402.05035 31.771791 403.0173 31.607086 403.9852 31.448008L445.0 281.0Z" fill-rule="nonzero"/><path fill="#ebf6ee" d="M395.30096 33.031425C397.22446 32.645905 399.1524 32.282776 401.08438 31.94212L445.0 281.0Z" fill-rule="nonzero"/><path fill="#fff8e6" d="M392.41913 33.626472C393.37857 33.422535 394.3392 33.224182 395.30096 33.031425L445.0 281.0Z" fill-rule="nonzero"/><path fill="#fdeceb" d="M389.54443 34.25501C390.50143 34.039925 391.4597 33.830406 392.41913 33.626472L445.0 281.0Z" fill-rule="nonzero"/><path fill="#ecf3fe" d="M386.67725 34.916954C387.63168 34.690746 388.58743 34.470097 389.54443 34.25501L445.0 281.0Z" fill-rule="nonzero"/><path fill="#b5e5e8" d="M383.81796 35.61221C384.76968 35.374916 385.7228 35.143158 386.67725 34.916954L445.0 281.0Z" fill-rule="nonzero"/><path fill="#ffc599" d="M380.96695 36.34069C381.91586 36.09234 382.8662 35.849506 383.81796 35.61221L445.0 281.0Z" fill-rule="nonzero"/><path fill="#aedcba" d="M372.46747 38.724453C375.28653 37.880478 378.12012 37.08577 380.96695 36.34069L445.0 281.0Z" fill-rule="nonzero"/><path fill="#fde49b" d="M366.8496 40.477806C368.71536 39.871586 370.5881 39.287094 372.46747 38.724453L445.0 281.0Z" fill-rule="nonzero"/><path fill="#f7b4ae" d="M361.27405 42.36141C363.1252 41.711937 364.98386 41.084026 366.8496 40.477806L445.0 281.0Z" fill-rule="nonzero"/><path fill="#b3cefb" d="M355.74387 44.374237C357.57938 43.68187 359.4229 43.01088 361.27405 42.36141L445.0 281.0Z" fill-rule="nonzero"/><path fill="#7ed1d7" d="M350.262 46.5152C352.0809 45.78031 353.90833 45.06661 355.74387 44.374237L445.0 281.0Z" fill-rule="nonzero"/><path fill="#ff994d" d="M342.1363 49.964355C344.8246 48.76745 347.53357 47.617558 350.262 46.5152L445.0 281.0Z" fill-rule="nonzero"/><path fill="#71c287" d="M334.13593 53.694984C336.78082 52.40499 339.448 51.16126 342.1363 49.964355L445.0 281.0Z" fill-rule="nonzero"/><path fill="#fcd04f" d="M318.55 61.982174C323.6473 59.039253 328.84576 56.275173 334.13593 53.694984L445.0 281.0Z" fill-rule="nonzero"/><path fill="#f07b72" d="M301.1502 72.99605C306.7982 69.09005 312.60294 65.41571 318.55 61.982174L445.0 281.0Z" fill-rule="nonzero"/><path fill="#7baaf7" d="M286.991 83.53719C291.5866 79.85978 296.30923 76.343925 301.1502 72.99605L445.0 281.0Z" fill-rule="nonzero"/><path fill="#46bdc6" d="M271.4495 97.0472C276.44443 92.33473 281.6292 87.82766 286.991 83.53719L445.0 281.0Z" fill-rule="nonzero"/><path fill="#ff6d01" d="M249.38904 120.70415C256.23016 112.35583 263.59872 104.454025 271.4495 97.0472L445.0 281.0Z" fill-rule="nonzero"/><path fill="#34a853" d="M224.52573 157.10689C231.73811 144.27206 240.05748 132.09157 249.38904 120.70415L445.0 281.0Z" fill-rule="nonzero"/><path fill="#fbbc04" d="M192.11713 283.94257C191.60059 239.55234 202.77794 195.80821 224.52573 157.10689L445.0 281.0Z" fill-rule="nonzero"/><path fill="#ea4335" d="M233.70514 419.97083C207.11383 379.5407 192.68016 332.33032 192.11713 283.94257L445.0 281.0Z" fill-rule="nonzero"/><path fill="#4285f4" d="M445.0 28.1C565.8826 28.1 669.8639 113.646324 693.1595 232.26308C716.455 350.87982 652.5507 469.3978 540.6467 515.1156C428.74277 560.8334 300.13123 520.9668 233.70514 419.97083L445.0 281.0Z" fill-rule="nonzero"/><path fill="#1a1a1a" d="M28.084375 39.1L31.38125 30.506248L32.6 30.506248L36.115623 39.1L34.834373 39.1L33.81875 36.490623L30.240625 36.490623L29.2875 39.1L28.084375 39.1ZM30.56875 35.56875L33.475 35.56875L32.584373 33.19375Q32.1625 32.115623 31.975 31.412498Q31.803125 32.240623 31.50625 33.053123L30.56875 35.56875ZM38.19375 38.1625L38.35 39.084373Q37.896873 39.178123 37.553123 39.178123Q36.975 39.178123 36.6625 39.00625Q36.35 38.81875 36.209373 38.521873Q36.084373 38.225 36.084373 37.271873L36.084373 33.69375L35.31875 33.69375L35.31875 32.88125L36.084373 32.88125L36.084373 31.334373L37.13125 30.709373L37.13125 32.88125L38.19375 32.88125L38.19375 33.69375L37.13125 33.69375L37.13125 37.334373Q37.13125 37.7875 37.178123 37.9125Q37.240623 38.0375 37.365623 38.115623Q37.490623 38.19375 37.725 38.19375Q37.9125 38.19375 38.19375 38.1625ZM41.19375 38.1625L41.35 39.084373Q40.896873 39.178123 40.553123 39.178123Q39.975 39.178123 39.6625 39.00625Q39.35 38.81875 39.209373 38.521873Q39.084373 38.225 39.084373 37.271873L39.084373 33.69375L38.31875 33.69375L38.31875 32.88125L39.084373 32.88125L39.084373 31.334373L40.13125 30.709373L40.13125 32.88125L41.19375 32.88125L41.19375 33.69375L40.13125 33.69375L40.13125 37.334373Q40.13125 37.7875 40.178123 37.9125Q40.240623 38.0375 40.365623 38.115623Q40.490623 38.19375 40.725 38.19375Q40.9125 38.19375 41.19375 38.1625ZM46.146873 37.1L47.240623 37.225Q46.990623 38.178123 46.2875 38.709373Q45.584373 39.240623 44.50625 39.240623Q43.146873 39.240623 42.334373 38.396873Q41.5375 37.553123 41.5375 36.0375Q41.5375 34.475 42.35 33.615623Q43.1625 32.740623 44.44375 32.740623Q45.69375 32.740623 46.475 33.584373Q47.271873 34.428123 47.271873 35.975Q47.271873 36.06875 47.271873 36.25625L42.63125 36.25625Q42.69375 37.2875 43.209373 37.834373Q43.725 38.365623 44.50625 38.365623Q45.084373 38.365623 45.490623 38.06875Q45.9125 37.75625 46.146873 37.1ZM42.69375 35.396873L46.1625 35.396873Q46.1 34.6 45.771873 34.209373Q45.25625 33.6 44.459373 33.6Q43.725 33.6 43.225 34.084373Q42.740623 34.56875 42.69375 35.396873ZM48.896873 39.1L48.896873 32.88125L49.834373 32.88125L49.834373 33.75625Q50.521873 32.740623 51.81875 32.740623Q52.38125 32.740623 52.85 32.94375Q53.334373 33.146873 53.56875 33.475Q53.803123 33.803123 53.896873 34.240623Q53.94375 34.5375 53.94375 35.271873L53.94375 39.1L52.896873 39.1L52.896873 35.31875Q52.896873 34.6625 52.771873 34.35Q52.646873 34.0375 52.334373 33.85Q52.021873 33.646873 51.6 33.646873Q50.928123 33.646873 50.428123 34.084373Q49.94375 34.50625 49.94375 35.69375L49.94375 39.1L48.896873 39.1ZM58.19375 38.1625L58.35 39.084373Q57.896873 39.178123 57.553123 39.178123Q56.975 39.178123 56.6625 39.00625Q56.35 38.81875 56.209373 38.521873Q56.084373 38.225 56.084373 37.271873L56.084373 33.69375L55.31875 33.69375L55.31875 32.88125L56.084373 32.88125L56.084373 31.334373L57.13125 30.709373L57.13125 32.88125L58.19375 32.88125L58.19375 33.69375L57.13125 33.69375L57.13125 37.334373Q57.13125 37.7875 57.178123 37.9125Q57.240623 38.0375 57.365623 38.115623Q57.490623 38.19375 57.725 38.19375Q57.9125 38.19375 58.19375 38.1625ZM58.896873 31.724998L58.896873 30.506248L59.959373 30.506248L59.959373 31.724998L58.896873 31.724998ZM58.896873 39.1L58.896873 32.88125L59.959373 32.88125L59.959373 39.1L58.896873 39.1ZM61.50625 35.990623Q61.50625 34.25625 62.459373 33.428123Q63.25625 32.740623 64.4125 32.740623Q65.69375 32.740623 66.50625 33.584373Q67.33437 34.4125 67.33437 35.896873Q67.33437 37.1 66.975 37.7875Q66.61562 38.475 65.9125 38.865623Q65.225 39.240623 64.4125 39.240623Q63.115623 39.240623 62.303123 38.4125Q61.50625 37.56875 61.50625 35.990623ZM62.584373 35.990623Q62.584373 37.178123 63.1 37.771873Q63.63125 38.365623 64.4125 38.365623Q65.20937 38.365623 65.725 37.771873Q66.24062 37.178123 66.24062 35.959373Q66.24062 34.803123 65.70937 34.209373Q65.19375 33.615623 64.4125 33.615623Q63.63125 33.615623 63.1 34.209373Q62.584373 34.7875 62.584373 35.990623ZM68.89687 39.1L68.89687 32.88125L69.83437 32.88125L69.83437 33.75625Q70.52187 32.740623 71.81875 32.740623Q72.38125 32.740623 72.85 32.94375Q73.33437 33.146873 73.56875 33.475Q73.80312 33.803123 73.89687 34.240623Q73.94375 34.5375 73.94375 35.271873L73.94375 39.1L72.89687 39.1L72.89687 35.31875Q72.89687 34.6625 72.77187 34.35Q72.64687 34.0375 72.33437 33.85Q72.02187 33.646873 71.6 33.646873Q70.92812 33.646873 70.42812 34.084373Q69.94375 34.50625 69.94375 35.69375L69.94375 39.1L68.89687 39.1Z" fill-rule="nonzero"/><path fill="#9e9e9e" d="M28.6 51.865623Q28.6 50.334373 28.9125 49.4125Q29.225 48.475 29.834375 47.975Q30.459375 47.475 31.396875 47.475Q32.084373 47.475 32.6 47.75625Q33.13125 48.0375 33.475 48.56875Q33.81875 49.084373 34.00625 49.834373Q34.19375 50.584373 34.19375 51.865623Q34.19375 53.38125 33.88125 54.303123Q33.584373 55.225 32.959373 55.740623Q32.35 56.240623 31.396875 56.240623Q30.1625 56.240623 29.44375 55.35Q28.6 54.2875 28.6 51.865623ZM29.678125 51.865623Q29.678125 53.975 30.178125 54.678123Q30.678125 55.38125 31.396875 55.38125Q32.13125 55.38125 32.615623 54.678123Q33.115623 53.975 33.115623 51.865623Q33.115623 49.740623 32.615623 49.053123Q32.13125 48.35 31.38125 48.35Q30.6625 48.35 30.225 48.959373Q29.678125 49.740623 29.678125 51.865623ZM36.19375 56.1L36.19375 54.896873L37.396873 54.896873L37.396873 56.1L36.19375 56.1ZM44.06875 49.615623L43.021873 49.69375Q42.88125 49.06875 42.63125 48.7875Q42.19375 48.334373 41.56875 48.334373Q41.06875 48.334373 40.678123 48.615623Q40.19375 48.990623 39.896873 49.69375Q39.615623 50.38125 39.6 51.6625Q39.975 51.084373 40.521873 50.803123Q41.084373 50.521873 41.69375 50.521873Q42.740623 50.521873 43.475 51.303123Q44.225 52.084373 44.225 53.303123Q44.225 54.115623 43.865623 54.81875Q43.521873 55.50625 42.9125 55.88125Q42.303123 56.240623 41.5375 56.240623Q40.209373 56.240623 39.38125 55.271873Q38.553123 54.303123 38.553123 52.084373Q38.553123 49.584373 39.475 48.459373Q40.271873 47.475 41.63125 47.475Q42.646873 47.475 43.2875 48.053123Q43.94375 48.615623 44.06875 49.615623ZM39.771873 53.31875Q39.771873 53.865623 39.990623 54.365623Q40.225 54.85 40.63125 55.115623Q41.053123 55.38125 41.521873 55.38125Q42.178123 55.38125 42.6625 54.85Q43.146873 54.303123 43.146873 53.38125Q43.146873 52.490623 42.6625 51.975Q42.19375 51.459373 41.475 51.459373Q40.75625 51.459373 40.25625 51.975Q39.771873 52.490623 39.771873 53.31875ZM45.803123 49.56875Q45.803123 48.646873 46.25625 48.00625Q46.725 47.365623 47.6 47.365623Q48.4125 47.365623 48.94375 47.94375Q49.475 48.521873 49.475 49.63125Q49.475 50.725 48.928123 51.31875Q48.396873 51.896873 47.615623 51.896873Q46.834373 51.896873 46.31875 51.31875Q45.803123 50.740623 45.803123 49.56875ZM47.63125 48.084373Q47.240623 48.084373 46.975 48.428123Q46.725 48.771873 46.725 49.678123Q46.725 50.50625 46.975 50.85Q47.240623 51.178123 47.63125 51.178123Q48.0375 51.178123 48.2875 50.834373Q48.553123 50.490623 48.553123 49.6Q48.553123 48.75625 48.2875 48.428123Q48.021873 48.084373 47.63125 48.084373ZM47.63125 56.4125L52.334373 47.365623L53.19375 47.365623L48.50625 56.4125L47.63125 56.4125ZM51.35 54.084373Q51.35 53.1625 51.803123 52.521873Q52.271873 51.88125 53.1625 51.88125Q53.975 51.88125 54.50625 52.459373Q55.0375 53.021873 55.0375 54.146873Q55.0375 55.240623 54.490623 55.834373Q53.959373 56.4125 53.1625 56.4125Q52.396873 56.4125 51.865623 55.834373Q51.35 55.25625 51.35 54.084373ZM53.19375 52.6Q52.7875 52.6 52.521873 52.94375Q52.271873 53.2875 52.271873 54.19375Q52.271873 55.00625 52.5375 55.35Q52.803123 55.69375 53.19375 55.69375Q53.584373 55.69375 53.85 55.35Q54.115623 55.00625 54.115623 54.1Q54.115623 53.271873 53.85 52.94375Q53.584373 52.6 53.19375 52.6Z" fill-rule="nonzero"/><path stroke="#757575" stroke-width="1.0" stroke-linecap="butt" d="M28.1 43.6L186.1 43.6L380.12146 49.67071" fill-rule="nonzero"/><path fill="#9e9e9e" d="M382.12146 49.67071C382.12146 48.56614 381.22604 47.67071 380.12146 47.67071C379.01688 47.67071 378.12146 48.56614 378.12146 49.67071C378.12146 50.77528 379.01688 51.67071 380.12146 51.67071C381.22604 51.67071 382.12146 50.77528 382.12146 49.67071" fill-rule="nonzero"/><path fill="#1a1a1a" d="M29.0375 70.1L29.0375 61.50625L32.85 61.50625Q34.00625 61.50625 34.6 61.740623Q35.19375 61.975 35.553123 62.56875Q35.9125 63.146873 35.9125 63.85Q35.9125 64.77187 35.31875 65.39687Q34.725 66.02187 33.490623 66.19375Q33.94375 66.4125 34.178123 66.61562Q34.678123 67.06875 35.115623 67.75625L36.615623 70.1L35.178123 70.1L34.053123 68.31875Q33.553123 67.5375 33.225 67.13125Q32.9125 66.725 32.646873 66.56875Q32.396873 66.39687 32.13125 66.31875Q31.94375 66.2875 31.50625 66.2875L30.178125 66.2875L30.178125 70.1L29.0375 70.1ZM30.178125 65.30312L32.63125 65.30312Q33.396873 65.30312 33.834373 65.14687Q34.2875 64.975 34.50625 64.63125Q34.740623 64.27187 34.740623 63.85Q34.740623 63.240623 34.2875 62.85Q33.85 62.459373 32.896873 62.459373L30.178125 62.459373L30.178125 65.30312ZM42.146873 68.1L43.240623 68.225Q42.990623 69.17812 42.2875 69.70937Q41.584373 70.24062 40.50625 70.24062Q39.146873 70.24062 38.334373 69.39687Q37.5375 68.55312 37.5375 67.0375Q37.5375 65.475 38.35 64.61562Q39.1625 63.740623 40.44375 63.740623Q41.69375 63.740623 42.475 64.58437Q43.271873 65.42812 43.271873 66.975Q43.271873 67.06875 43.271873 67.25625L38.63125 67.25625Q38.69375 68.2875 39.209373 68.83437Q39.725 69.36562 40.50625 69.36562Q41.084373 69.36562 41.490623 69.06875Q41.9125 68.75625 42.146873 68.1ZM38.69375 66.39687L42.1625 66.39687Q42.1 65.6 41.771873 65.20937Q41.25625 64.6 40.459373 64.6Q39.725 64.6 39.225 65.08437Q38.740623 65.56875 38.69375 66.39687ZM44.475 68.24062L45.50625 68.08437Q45.6 68.70937 45.990623 69.0375Q46.396873 69.36562 47.13125 69.36562Q47.85 69.36562 48.19375 69.08437Q48.553123 68.7875 48.553123 68.38125Q48.553123 68.02187 48.240623 67.81875Q48.021873 67.67812 47.1625 67.45937Q46.00625 67.1625 45.553123 66.95937Q45.115623 66.74062 44.88125 66.36562Q44.646873 65.99062 44.646873 65.52187Q44.646873 65.11562 44.834373 64.75625Q45.021873 64.39687 45.35 64.1625Q45.6 63.990623 46.021873 63.865623Q46.44375 63.740623 46.94375 63.740623Q47.6625 63.740623 48.209373 63.959373Q48.771873 64.1625 49.0375 64.52187Q49.303123 64.88125 49.396873 65.475L48.365623 65.61562Q48.303123 65.14687 47.959373 64.88125Q47.63125 64.6 47.00625 64.6Q46.2875 64.6 45.975 64.85Q45.6625 65.08437 45.6625 65.4125Q45.6625 65.61562 45.7875 65.77187Q45.928123 65.94375 46.19375 66.05312Q46.35 66.11562 47.13125 66.31875Q48.25625 66.63125 48.69375 66.81875Q49.13125 67.00625 49.38125 67.36562Q49.63125 67.725 49.63125 68.27187Q49.63125 68.80312 49.31875 69.27187Q49.021873 69.725 48.44375 69.99062Q47.865623 70.24062 47.13125 70.24062Q45.9125 70.24062 45.271873 69.74062Q44.646873 69.225 44.475 68.24062ZM57.6625 61.50625L58.803123 61.50625L58.803123 66.475Q58.803123 67.77187 58.50625 68.5375Q58.209373 69.2875 57.44375 69.77187Q56.678123 70.24062 55.44375 70.24062Q54.240623 70.24062 53.459373 69.83437Q52.69375 69.4125 52.365623 68.63125Q52.0375 67.83437 52.0375 66.475L52.0375 61.50625L53.178123 61.50625L53.178123 66.45937Q53.178123 67.58437 53.38125 68.11562Q53.6 68.64687 54.1 68.94375Q54.615623 69.225 55.35 69.225Q56.6 69.225 57.13125 68.6625Q57.6625 68.08437 57.6625 66.45937L57.6625 61.50625ZM60.896873 70.1L60.896873 63.88125L61.834373 63.88125L61.834373 64.75625Q62.521873 63.740623 63.81875 63.740623Q64.38125 63.740623 64.85 63.94375Q65.33437 64.14687 65.56875 64.475Q65.80312 64.80312 65.89687 65.24062Q65.94375 65.5375 65.94375 66.27187L65.94375 70.1L64.89687 70.1L64.89687 66.31875Q64.89687 65.6625 64.77187 65.35Q64.64687 65.0375 64.33437 64.85Q64.02187 64.64687 63.6 64.64687Q62.928123 64.64687 62.428123 65.08437Q61.94375 65.50625 61.94375 66.69375L61.94375 70.1L60.896873 70.1ZM72.14687 68.1L73.24062 68.225Q72.99062 69.17812 72.2875 69.70937Q71.58437 70.24062 70.50625 70.24062Q69.14687 70.24062 68.33437 69.39687Q67.5375 68.55312 67.5375 67.0375Q67.5375 65.475 68.35 64.61562Q69.1625 63.740623 70.44375 63.740623Q71.69375 63.740623 72.475 64.58437Q73.27187 65.42812 73.27187 66.975Q73.27187 67.06875 73.27187 67.25625L68.63125 67.25625Q68.69375 68.2875 69.20937 68.83437Q69.725 69.36562 70.50625 69.36562Q71.08437 69.36562 71.49062 69.06875Q71.9125 68.75625 72.14687 68.1ZM68.69375 66.39687L72.1625 66.39687Q72.1 65.6 71.77187 65.20937Q71.25625 64.6 70.45937 64.6Q69.725 64.6 69.225 65.08437Q68.74062 65.56875 68.69375 66.39687ZM77.19375 69.1625L77.35 70.08437Q76.89687 70.17812 76.55312 70.17812Q75.975 70.17812 75.6625 70.00625Q75.35 69.81875 75.20937 69.52187Q75.08437 69.225 75.08437 68.27187L75.08437 64.69375L74.31875 64.69375L74.31875 63.88125L75.08437 63.88125L75.08437 62.334373L76.13125 61.709373L76.13125 63.88125L77.19375 63.88125L77.19375 64.69375L76.13125 64.69375L76.13125 68.33437Q76.13125 68.7875 76.17812 68.9125Q76.24062 69.0375 76.36562 69.11562Q76.49062 69.19375 76.725 69.19375Q76.9125 69.19375 77.19375 69.1625Z" fill-rule="nonzero"/><path fill="#9e9e9e" d="M32.56875 87.1L31.521875 87.1L31.521875 80.38125Q31.13125 80.74062 30.50625 81.11562Q29.896875 81.475 29.4125 81.64687L29.4125 80.63125Q30.2875 80.20937 30.94375 79.63125Q31.615625 79.0375 31.896875 78.475L32.56875 78.475L32.56875 87.1ZM36.19375 87.1L36.19375 85.89687L37.396873 85.89687L37.396873 87.1L36.19375 87.1ZM42.56875 87.1L41.521873 87.1L41.521873 80.38125Q41.13125 80.74062 40.50625 81.11562Q39.896873 81.475 39.4125 81.64687L39.4125 80.63125Q40.2875 80.20937 40.94375 79.63125Q41.615623 79.0375 41.896873 78.475L42.56875 78.475L42.56875 87.1ZM45.803123 80.56875Q45.803123 79.64687 46.25625 79.00625Q46.725 78.36562 47.6 78.36562Q48.4125 78.36562 48.94375 78.94375Q49.475 79.52187 49.475 80.63125Q49.475 81.725 48.928123 82.31875Q48.396873 82.89687 47.615623 82.89687Q46.834373 82.89687 46.31875 82.31875Q45.803123 81.74062 45.803123 80.56875ZM47.63125 79.08437Q47.240623 79.08437 46.975 79.42812Q46.725 79.77187 46.725 80.67812Q46.725 81.50625 46.975 81.85Q47.240623 82.17812 47.63125 82.17812Q48.0375 82.17812 48.2875 81.83437Q48.553123 81.49062 48.553123 80.6Q48.553123 79.75625 48.2875 79.42812Q48.021873 79.08437 47.63125 79.08437ZM47.63125 87.4125L52.334373 78.36562L53.19375 78.36562L48.50625 87.4125L47.63125 87.4125ZM51.35 85.08437Q51.35 84.1625 51.803123 83.52187Q52.271873 82.88125 53.1625 82.88125Q53.975 82.88125 54.50625 83.45937Q55.0375 84.02187 55.0375 85.14687Q55.0375 86.24062 54.490623 86.83437Q53.959373 87.4125 53.1625 87.4125Q52.396873 87.4125 51.865623 86.83437Q51.35 86.25625 51.35 85.08437ZM53.19375 83.6Q52.7875 83.6 52.521873 83.94375Q52.271873 84.2875 52.271873 85.19375Q52.271873 86.00625 52.5375 86.35Q52.803123 86.69375 53.19375 86.69375Q53.584373 86.69375 53.85 86.35Q54.115623 86.00625 54.115623 85.1Q54.115623 84.27187 53.85 83.94375Q53.584373 83.6 53.19375 83.6Z" fill-rule="nonzero"/><path stroke="#757575" stroke-width="1.0" stroke-linecap="butt" d="M28.1 74.6L186.1 74.6L332.20712 68.867424" fill-rule="nonzero"/><path fill="#9e9e9e" d="M334.20712 68.867424C334.20712 67.762856 333.31168 66.867424 332.20712 66.867424C331.10254 66.867424 330.20712 67.762856 330.20712 68.867424C330.20712 69.97199 331.10254 70.867424 332.20712 70.867424C333.31168 70.867424 334.20712 69.97199 334.20712 68.867424" fill-rule="nonzero"/><path fill="#1a1a1a" d="M32.959373 98.81875L33.990623 98.95937Q33.81875 100.02187 33.115623 100.63125Q32.4125 101.24062 31.396875 101.24062Q30.115625 101.24062 29.334375 100.4125Q28.56875 99.56875 28.56875 98.00625Q28.56875 97.00625 28.896875 96.25625Q29.240625 95.49062 29.9125 95.11562Q30.6 94.74062 31.4125 94.74062Q32.4125 94.74062 33.053123 95.25625Q33.709373 95.75625 33.896873 96.70937L32.865623 96.86562Q32.725 96.24062 32.35 95.92812Q31.975 95.6 31.44375 95.6Q30.646875 95.6 30.146875 96.17812Q29.646875 96.74062 29.646875 97.975Q29.646875 99.24062 30.13125 99.80312Q30.615625 100.36562 31.38125 100.36562Q32.00625 100.36562 32.4125 99.99062Q32.834373 99.61562 32.959373 98.81875ZM35.225 101.1L35.225 92.50625L36.35 92.50625L36.35 101.1L35.225 101.1ZM38.021873 101.1L38.021873 92.50625L39.178123 92.50625L43.69375 99.25625L43.69375 92.50625L44.7875 92.50625L44.7875 101.1L43.615623 101.1L39.1 94.35L39.1 101.1L38.021873 101.1ZM47.021873 101.1L47.021873 92.50625L48.178123 92.50625L52.69375 99.25625L52.69375 92.50625L53.7875 92.50625L53.7875 101.1L52.615623 101.1L48.1 94.35L48.1 101.1L47.021873 101.1Z" fill-rule="nonzero"/><path fill="#9e9e9e" d="M32.56875 118.1L31.521875 118.1L31.521875 111.38125Q31.13125 111.74062 30.50625 112.11562Q29.896875 112.475 29.4125 112.64687L29.4125 111.63125Q30.2875 111.20937 30.94375 110.63125Q31.615625 110.0375 31.896875 109.475L32.56875 109.475L32.56875 118.1ZM36.19375 118.1L36.19375 116.89687L37.396873 116.89687L37.396873 118.1L36.19375 118.1ZM38.6 115.83437L39.6625 115.69375Q39.834373 116.58437 40.271873 116.99062Q40.709373 117.38125 41.334373 117.38125Q42.084373 117.38125 42.6 116.86562Q43.115623 116.35 43.115623 115.58437Q43.115623 114.86562 42.63125 114.39687Q42.1625 113.9125 41.428123 113.9125Q41.13125 113.9125 40.678123 114.0375L40.803123 113.1Q40.9125 113.11562 40.975 113.11562Q41.646873 113.11562 42.178123 112.77187Q42.725 112.4125 42.725 111.67812Q42.725 111.1 42.334373 110.725Q41.94375 110.33437 41.31875 110.33437Q40.709373 110.33437 40.2875 110.725Q39.88125 111.11562 39.771873 111.88125L38.709373 111.69375Q38.896873 110.64687 39.584373 110.06875Q40.271873 109.475 41.2875 109.475Q41.990623 109.475 42.584373 109.7875Q43.178123 110.08437 43.490623 110.6Q43.803123 111.11562 43.803123 111.70937Q43.803123 112.25625 43.50625 112.725Q43.209373 113.17812 42.63125 113.44375Q43.38125 113.61562 43.803123 114.17812Q44.225 114.725 44.225 115.56875Q44.225 116.69375 43.396873 117.475Q42.584373 118.25625 41.334373 118.25625Q40.209373 118.25625 39.459373 117.58437Q38.709373 116.89687 38.6 115.83437ZM45.803123 111.56875Q45.803123 110.64687 46.25625 110.00625Q46.725 109.36562 47.6 109.36562Q48.4125 109.36562 48.94375 109.94375Q49.475 110.52187 49.475 111.63125Q49.475 112.725 48.928123 113.31875Q48.396873 113.89687 47.615623 113.89687Q46.834373 113.89687 46.31875 113.31875Q45.803123 112.74062 45.803123 111.56875ZM47.63125 110.08437Q47.240623 110.08437 46.975 110.42812Q46.725 110.77187 46.725 111.67812Q46.725 112.50625 46.975 112.85Q47.240623 113.17812 47.63125 113.17812Q48.0375 113.17812 48.2875 112.83437Q48.553123 112.49062 48.553123 111.6Q48.553123 110.75625 48.2875 110.42812Q48.021873 110.08437 47.63125 110.08437ZM47.63125 118.4125L52.334373 109.36562L53.19375 109.36562L48.50625 118.4125L47.63125 118.4125ZM51.35 116.08437Q51.35 115.1625 51.803123 114.52187Q52.271873 113.88125 53.1625 113.88125Q53.975 113.88125 54.50625 114.45937Q55.0375 115.02187 55.0375 116.14687Q55.0375 117.24062 54.490623 117.83437Q53.959373 118.4125 53.1625 118.4125Q52.396873 118.4125 51.865623 117.83437Q51.35 117.25625 51.35 116.08437ZM53.19375 114.6Q52.7875 114.6 52.521873 114.94375Q52.271873 115.2875 52.271873 116.19375Q52.271873 117.00625 52.5375 117.35Q52.803123 117.69375 53.19375 117.69375Q53.584373 117.69375 53.85 117.35Q54.115623 117.00625 54.115623 116.1Q54.115623 115.27187 53.85 114.94375Q53.584373 114.6 53.19375 114.6Z" fill-rule="nonzero"/><path stroke="#757575" stroke-width="1.0" stroke-linecap="butt" d="M28.1 105.6L186.1 105.6L316.50104 77.99634" fill-rule="nonzero"/><path fill="#9e9e9e" d="M318.50104 77.99634C318.50104 76.89177 317.60562 75.99634 316.50104 75.99634C315.39648 75.99634 314.50104 76.89177 314.50104 77.99634C314.50104 79.100914 315.39648 79.99634 316.50104 79.99634C317.60562 79.99634 318.50104 79.100914 318.50104 77.99634" fill-rule="nonzero"/><path fill="#1a1a1a" d="M29.053125 132.1L29.053125 123.506256L35.25625 123.506256L35.25625 124.52188L30.19375 124.52188L30.19375 127.14688L34.94375 127.14688L34.94375 128.1625L30.19375 128.1625L30.19375 131.08438L35.459373 131.08438L35.459373 132.1L29.053125 132.1ZM37.146873 132.1L37.146873 126.693756L36.209373 126.693756L36.209373 125.881256L37.146873 125.881256L37.146873 125.20938Q37.146873 124.58438 37.25625 124.287506Q37.4125 123.86563 37.7875 123.61563Q38.178123 123.36563 38.865623 123.36563Q39.31875 123.36563 39.85 123.475006L39.69375 124.381256Q39.365623 124.33438 39.06875 124.33438Q38.584373 124.33438 38.38125 124.537506Q38.19375 124.74063 38.19375 125.30313L38.19375 125.881256L39.4125 125.881256L39.4125 126.693756L38.19375 126.693756L38.19375 132.1L37.146873 132.1ZM40.146873 132.1L40.146873 126.693756L39.209373 126.693756L39.209373 125.881256L40.146873 125.881256L40.146873 125.20938Q40.146873 124.58438 40.25625 124.287506Q40.4125 123.86563 40.7875 123.61563Q41.178123 123.36563 41.865623 123.36563Q42.31875 123.36563 42.85 123.475006L42.69375 124.381256Q42.365623 124.33438 42.06875 124.33438Q41.584373 124.33438 41.38125 124.537506Q41.19375 124.74063 41.19375 125.30313L41.19375 125.881256L42.4125 125.881256L42.4125 126.693756L41.19375 126.693756L41.19375 132.1L40.146873 132.1ZM42.896873 124.725006L42.896873 123.506256L43.959373 123.506256L43.959373 124.725006L42.896873 124.725006ZM42.896873 132.1L42.896873 125.881256L43.959373 125.881256L43.959373 132.1L42.896873 132.1ZM49.959373 129.81876L50.990623 129.95938Q50.81875 131.02188 50.115623 131.63126Q49.4125 132.24063 48.396873 132.24063Q47.115623 132.24063 46.334373 131.4125Q45.56875 130.56876 45.56875 129.00626Q45.56875 128.00626 45.896873 127.256256Q46.240623 126.49063 46.9125 126.11563Q47.6 125.74063 48.4125 125.74063Q49.4125 125.74063 50.053123 126.256256Q50.709373 126.756256 50.896873 127.70938L49.865623 127.86563Q49.725 127.24063 49.35 126.92813Q48.975 126.600006 48.44375 126.600006Q47.646873 126.600006 47.146873 127.17813Q46.646873 127.74063 46.646873 128.975Q46.646873 130.24063 47.13125 130.80313Q47.615623 131.36563 48.38125 131.36563Q49.00625 131.36563 49.4125 130.99063Q49.834373 130.61563 49.959373 129.81876ZM51.896873 124.725006L51.896873 123.506256L52.959373 123.506256L52.959373 124.725006L51.896873 124.725006ZM51.896873 132.1L51.896873 125.881256L52.959373 125.881256L52.959373 132.1L51.896873 132.1ZM59.146873 130.1L60.240623 130.225Q59.990623 131.17813 59.2875 131.70938Q58.584373 132.24063 57.50625 132.24063Q56.146873 132.24063 55.334373 131.39688Q54.5375 130.55313 54.5375 129.0375Q54.5375 127.475006 55.35 126.61563Q56.1625 125.74063 57.44375 125.74063Q58.69375 125.74063 59.475 126.58438Q60.271873 127.42813 60.271873 128.975Q60.271873 129.06876 60.271873 129.25626L55.63125 129.25626Q55.69375 130.2875 56.209373 130.83438Q56.725 131.36563 57.50625 131.36563Q58.084373 131.36563 58.490623 131.06876Q58.9125 130.75626 59.146873 130.1ZM55.69375 128.39688L59.1625 128.39688Q59.1 127.600006 58.771873 127.20938Q58.25625 126.600006 57.459373 126.600006Q56.725 126.600006 56.225 127.08438Q55.740623 127.568756 55.69375 128.39688ZM61.896873 132.1L61.896873 125.881256L62.834373 125.881256L62.834373 126.756256Q63.521873 125.74063 64.81875 125.74063Q65.38125 125.74063 65.85 125.943756Q66.33437 126.14688 66.56875 126.475006Q66.80312 126.80313 66.89687 127.24063Q66.94375 127.537506 66.94375 128.27188L66.94375 132.1L65.89687 132.1L65.89687 128.31876Q65.89687 127.662506 65.77187 127.350006Q65.64687 127.037506 65.33437 126.850006Q65.02187 126.64688 64.6 126.64688Q63.928123 126.64688 63.428123 127.08438Q62.94375 127.506256 62.94375 128.69376L62.94375 132.1L61.896873 132.1ZM71.19375 131.1625L71.35 132.08438Q70.89687 132.17813 70.55312 132.17813Q69.975 132.17813 69.6625 132.00626Q69.35 131.81876 69.20937 131.52188Q69.08437 131.225 69.08437 130.27188L69.08437 126.693756L68.31875 126.693756L68.31875 125.881256L69.08437 125.881256L69.08437 124.33438L70.13125 123.70938L70.13125 125.881256L71.19375 125.881256L71.19375 126.693756L70.13125 126.693756L70.13125 130.33438Q70.13125 130.7875 70.17812 130.9125Q70.24062 131.0375 70.36562 131.11563Q70.49062 131.19376 70.725 131.19376Q70.9125 131.19376 71.19375 131.1625ZM72.02187 132.1L72.02187 123.506256L73.17812 123.506256L77.69375 130.25626L77.69375 123.506256L78.7875 123.506256L78.7875 132.1L77.61562 132.1L73.1 125.350006L73.1 132.1L72.02187 132.1ZM85.14687 130.1L86.24062 130.225Q85.99062 131.17813 85.2875 131.70938Q84.58437 132.24063 83.50625 132.24063Q82.14687 132.24063 81.33437 131.39688Q80.5375 130.55313 80.5375 129.0375Q80.5375 127.475006 81.35 126.61563Q82.1625 125.74063 83.44375 125.74063Q84.69375 125.74063 85.475 126.58438Q86.27187 127.42813 86.27187 128.975Q86.27187 129.06876 86.27187 129.25626L81.63125 129.25626Q81.69375 130.2875 82.20937 130.83438Q82.725 131.36563 83.50625 131.36563Q84.08437 131.36563 84.49062 131.06876Q84.9125 130.75626 85.14687 130.1ZM81.69375 128.39688L85.1625 128.39688Q85.1 127.600006 84.77187 127.20938Q84.25625 126.600006 83.45937 126.600006Q82.725 126.600006 82.225 127.08438Q81.74062 127.568756 81.69375 128.39688ZM90.19375 131.1625L90.35 132.08438Q89.89687 132.17813 89.55312 132.17813Q88.975 132.17813 88.6625 132.00626Q88.35 131.81876 88.20937 131.52188Q88.08437 131.225 88.08437 130.27188L88.08437 126.693756L87.31875 126.693756L87.31875 125.881256L88.08437 125.881256L88.08437 124.33438L89.13125 123.70938L89.13125 125.881256L90.19375 125.881256L90.19375 126.693756L89.13125 126.693756L89.13125 130.33438Q89.13125 130.7875 89.17812 130.9125Q89.24062 131.0375 89.36562 131.11563Q89.49062 131.19376 89.725 131.19376Q89.9125 131.19376 90.19375 131.1625Z" fill-rule="nonzero"/><path fill="#9e9e9e" d="M32.56875 149.1L31.521875 149.1L31.521875 142.38126Q31.13125 142.74063 30.50625 143.11563Q29.896875 143.475 29.4125 143.64688L29.4125 142.63126Q30.2875 142.20938 30.94375 141.63126Q31.615625 141.0375 31.896875 140.475L32.56875 140.475L32.56875 149.1ZM36.19375 149.1L36.19375 147.89688L37.396873 147.89688L37.396873 149.1L36.19375 149.1ZM42.56875 149.1L41.521873 149.1L41.521873 142.38126Q41.13125 142.74063 40.50625 143.11563Q39.896873 143.475 39.4125 143.64688L39.4125 142.63126Q40.2875 142.20938 40.94375 141.63126Q41.615623 141.0375 41.896873 140.475L42.56875 140.475L42.56875 149.1ZM45.803123 142.56876Q45.803123 141.64688 46.25625 141.00626Q46.725 140.36563 47.6 140.36563Q48.4125 140.36563 48.94375 140.94376Q49.475 141.52188 49.475 142.63126Q49.475 143.725 48.928123 144.31876Q48.396873 144.89688 47.615623 144.89688Q46.834373 144.89688 46.31875 144.31876Q45.803123 143.74063 45.803123 142.56876ZM47.63125 141.08438Q47.240623 141.08438 46.975 141.42813Q46.725 141.77188 46.725 142.67813Q46.725 143.50626 46.975 143.85Q47.240623 144.17813 47.63125 144.17813Q48.0375 144.17813 48.2875 143.83438Q48.553123 143.49063 48.553123 142.6Q48.553123 141.75626 48.2875 141.42813Q48.021873 141.08438 47.63125 141.08438ZM47.63125 149.4125L52.334373 140.36563L53.19375 140.36563L48.50625 149.4125L47.63125 149.4125ZM51.35 147.08438Q51.35 146.1625 51.803123 145.52188Q52.271873 144.88126 53.1625 144.88126Q53.975 144.88126 54.50625 145.45938Q55.0375 146.02188 55.0375 147.14688Q55.0375 148.24063 54.490623 148.83438Q53.959373 149.4125 53.1625 149.4125Q52.396873 149.4125 51.865623 148.83438Q51.35 148.25626 51.35 147.08438ZM53.19375 145.6Q52.7875 145.6 52.521873 145.94376Q52.271873 146.2875 52.271873 147.19376Q52.271873 148.00626 52.5375 148.35Q52.803123 148.69376 53.19375 148.69376Q53.584373 148.69376 53.85 148.35Q54.115623 148.00626 54.115623 147.1Q54.115623 146.27188 53.85 145.94376Q53.584373 145.6 53.19375 145.6Z" fill-rule="nonzero"/><path stroke="#757575" stroke-width="1.0" stroke-linecap="butt" d="M28.1 136.6L186.1 136.6L301.52966 88.28589" fill-rule="nonzero"/><path fill="#9e9e9e" d="M303.52966 88.28589C303.52966 87.18132 302.63425 86.28589 301.52966 86.28589C300.42508 86.28589 299.52966 87.18132 299.52966 88.28589C299.52966 89.390465 300.42508 90.28589 301.52966 90.28589C302.63425 90.28589 303.52966 89.390465 303.52966 88.28589" fill-rule="nonzero"/><path fill="#1a1a1a" d="M29.0375 163.1L29.0375 154.50626L32.85 154.50626Q34.00625 154.50626 34.6 154.74063Q35.19375 154.975 35.553123 155.56876Q35.9125 156.14688 35.9125 156.85Q35.9125 157.77188 35.31875 158.39688Q34.725 159.02188 33.490623 159.19376Q33.94375 159.4125 34.178123 159.61563Q34.678123 160.06876 35.115623 160.75626L36.615623 163.1L35.178123 163.1L34.053123 161.31876Q33.553123 160.5375 33.225 160.13126Q32.9125 159.725 32.646873 159.56876Q32.396873 159.39688 32.13125 159.31876Q31.94375 159.2875 31.50625 159.2875L30.178125 159.2875L30.178125 163.1L29.0375 163.1ZM30.178125 158.30313L32.63125 158.30313Q33.396873 158.30313 33.834373 158.14688Q34.2875 157.975 34.50625 157.63126Q34.740623 157.27188 34.740623 156.85Q34.740623 156.24063 34.2875 155.85Q33.85 155.45938 32.896873 155.45938L30.178125 155.45938L30.178125 158.30313ZM44.1625 160.08438L45.2875 160.38126Q44.928123 161.77188 44.00625 162.50626Q43.084373 163.24063 41.740623 163.24063Q40.35 163.24063 39.475 162.67813Q38.6 162.11563 38.146873 161.05313Q37.69375 159.975 37.69375 158.74063Q37.69375 157.39688 38.209373 156.39688Q38.725 155.39688 39.6625 154.88126Q40.615623 154.36563 41.75625 154.36563Q43.0375 154.36563 43.9125 155.02188Q44.803123 155.67813 45.146873 156.86563L44.021873 157.13126Q43.725 156.19376 43.146873 155.77188Q42.584373 155.33438 41.725 155.33438Q40.740623 155.33438 40.06875 155.81876Q39.4125 156.2875 39.13125 157.08438Q38.865623 157.88126 38.865623 158.74063Q38.865623 159.83438 39.178123 160.64688Q39.50625 161.45938 40.178123 161.86563Q40.85 162.27188 41.646873 162.27188Q42.6 162.27188 43.25625 161.725Q43.928123 161.17813 44.1625 160.08438ZM47.021873 163.1L47.021873 154.50626L48.178123 154.50626L52.69375 161.25626L52.69375 154.50626L53.7875 154.50626L53.7875 163.1L52.615623 163.1L48.1 156.35L48.1 163.1L47.021873 163.1ZM56.021873 163.1L56.021873 154.50626L57.178123 154.50626L61.69375 161.25626L61.69375 154.50626L62.7875 154.50626L62.7875 163.1L61.615623 163.1L57.1 156.35L57.1 163.1L56.021873 163.1Z" fill-rule="nonzero"/><path fill="#9e9e9e" d="M32.56875 180.1L31.521875 180.1L31.521875 173.38126Q31.13125 173.74063 30.50625 174.11563Q29.896875 174.475 29.4125 174.64688L29.4125 173.63126Q30.2875 173.20938 30.94375 172.63126Q31.615625 172.0375 31.896875 171.475L32.56875 171.475L32.56875 180.1ZM36.19375 180.1L36.19375 178.89688L37.396873 178.89688L37.396873 180.1L36.19375 180.1ZM38.6 177.83438L39.6625 177.69376Q39.834373 178.58438 40.271873 178.99063Q40.709373 179.38126 41.334373 179.38126Q42.084373 179.38126 42.6 178.86563Q43.115623 178.35 43.115623 177.58438Q43.115623 176.86563 42.63125 176.39688Q42.1625 175.9125 41.428123 175.9125Q41.13125 175.9125 40.678123 176.0375L40.803123 175.1Q40.9125 175.11563 40.975 175.11563Q41.646873 175.11563 42.178123 174.77188Q42.725 174.4125 42.725 173.67813Q42.725 173.1 42.334373 172.725Q41.94375 172.33438 41.31875 172.33438Q40.709373 172.33438 40.2875 172.725Q39.88125 173.11563 39.771873 173.88126L38.709373 173.69376Q38.896873 172.64688 39.584373 172.06876Q40.271873 171.475 41.2875 171.475Q41.990623 171.475 42.584373 171.7875Q43.178123 172.08438 43.490623 172.6Q43.803123 173.11563 43.803123 173.70938Q43.803123 174.25626 43.50625 174.725Q43.209373 175.17813 42.63125 175.44376Q43.38125 175.61563 43.803123 176.17813Q44.225 176.725 44.225 177.56876Q44.225 178.69376 43.396873 179.475Q42.584373 180.25626 41.334373 180.25626Q40.209373 180.25626 39.459373 179.58438Q38.709373 178.89688 38.6 177.83438ZM45.803123 173.56876Q45.803123 172.64688 46.25625 172.00626Q46.725 171.36563 47.6 171.36563Q48.4125 171.36563 48.94375 171.94376Q49.475 172.52188 49.475 173.63126Q49.475 174.725 48.928123 175.31876Q48.396873 175.89688 47.615623 175.89688Q46.834373 175.89688 46.31875 175.31876Q45.803123 174.74063 45.803123 173.56876ZM47.63125 172.08438Q47.240623 172.08438 46.975 172.42813Q46.725 172.77188 46.725 173.67813Q46.725 174.50626 46.975 174.85Q47.240623 175.17813 47.63125 175.17813Q48.0375 175.17813 48.2875 174.83438Q48.553123 174.49063 48.553123 173.6Q48.553123 172.75626 48.2875 172.42813Q48.021873 172.08438 47.63125 172.08438ZM47.63125 180.4125L52.334373 171.36563L53.19375 171.36563L48.50625 180.4125L47.63125 180.4125ZM51.35 178.08438Q51.35 177.1625 51.803123 176.52188Q52.271873 175.88126 53.1625 175.88126Q53.975 175.88126 54.50625 176.45938Q55.0375 177.02188 55.0375 178.14688Q55.0375 179.24063 54.490623 179.83438Q53.959373 180.4125 53.1625 180.4125Q52.396873 180.4125 51.865623 179.83438Q51.35 179.25626 51.35 178.08438ZM53.19375 176.6Q52.7875 176.6 52.521873 176.94376Q52.271873 177.2875 52.271873 178.19376Q52.271873 179.00626 52.5375 179.35Q52.803123 179.69376 53.19375 179.69376Q53.584373 179.69376 53.85 179.35Q54.115623 179.00626 54.115623 178.1Q54.115623 177.27188 53.85 176.94376Q53.584373 176.6 53.19375 176.6Z" fill-rule="nonzero"/><path stroke="#757575" stroke-width="1.0" stroke-linecap="butt" d="M28.1 167.6L186.1 167.6L287.37854 99.677246" fill-rule="nonzero"/><path fill="#9e9e9e" d="M289.37854 99.677246C289.37854 98.57268 288.4831 97.677246 287.37854 97.677246C286.27396 97.677246 285.37854 98.57268 285.37854 99.677246C285.37854 100.78182 286.27396 101.677246 287.37854 101.677246C288.4831 101.677246 289.37854 100.78182 289.37854 99.677246" fill-rule="nonzero"/><path fill="#1a1a1a" d="M31.475 194.1L28.146875 185.50626L29.38125 185.50626L31.615625 191.75626Q31.88125 192.50626 32.06875 193.1625Q32.271873 192.45938 32.5375 191.75626L34.85 185.50626L36.00625 185.50626L32.646873 194.1L31.475 194.1ZM40.053123 190.725L40.053123 189.725L43.678123 189.70938L43.678123 192.89688Q42.85 193.56876 41.959373 193.9125Q41.06875 194.24063 40.13125 194.24063Q38.865623 194.24063 37.81875 193.70938Q36.7875 193.1625 36.25625 192.14688Q35.740623 191.11563 35.740623 189.85Q35.740623 188.58438 36.25625 187.50626Q36.7875 186.4125 37.771873 185.89688Q38.75625 185.36563 40.0375 185.36563Q40.975 185.36563 41.725 185.6625Q42.475 185.95938 42.896873 186.50626Q43.334373 187.0375 43.553123 187.9125L42.5375 188.19376Q42.334373 187.5375 42.0375 187.1625Q41.75625 186.7875 41.225 186.56876Q40.69375 186.33438 40.053123 186.33438Q39.271873 186.33438 38.69375 186.56876Q38.13125 186.80313 37.771873 187.19376Q37.428123 187.58438 37.240623 188.05313Q36.9125 188.85 36.9125 189.77188Q36.9125 190.92813 37.303123 191.70938Q37.709373 192.475 38.459373 192.85Q39.209373 193.225 40.06875 193.225Q40.803123 193.225 41.50625 192.94376Q42.209373 192.64688 42.56875 192.33438L42.56875 190.725L40.053123 190.725ZM49.053123 190.725L49.053123 189.725L52.678123 189.70938L52.678123 192.89688Q51.85 193.56876 50.959373 193.9125Q50.06875 194.24063 49.13125 194.24063Q47.865623 194.24063 46.81875 193.70938Q45.7875 193.1625 45.25625 192.14688Q44.740623 191.11563 44.740623 189.85Q44.740623 188.58438 45.25625 187.50626Q45.7875 186.4125 46.771873 185.89688Q47.75625 185.36563 49.0375 185.36563Q49.975 185.36563 50.725 185.6625Q51.475 185.95938 51.896873 186.50626Q52.334373 187.0375 52.553123 187.9125L51.5375 188.19376Q51.334373 187.5375 51.0375 187.1625Q50.75625 186.7875 50.225 186.56876Q49.69375 186.33438 49.053123 186.33438Q48.271873 186.33438 47.69375 186.56876Q47.13125 186.80313 46.771873 187.19376Q46.428123 187.58438 46.240623 188.05313Q45.9125 188.85 45.9125 189.77188Q45.9125 190.92813 46.303123 191.70938Q46.709373 192.475 47.459373 192.85Q48.209373 193.225 49.06875 193.225Q49.803123 193.225 50.50625 192.94376Q51.209373 192.64688 51.56875 192.33438L51.56875 190.725L49.053123 190.725Z" fill-rule="nonzero"/><path fill="#9e9e9e" d="M34.146873 210.08438L34.146873 211.1L28.459375 211.1Q28.459375 210.725 28.584375 210.36563Q28.803125 209.7875 29.271875 209.225Q29.75625 208.6625 30.6625 207.92813Q32.06875 206.77188 32.553123 206.1Q33.053123 205.42813 33.053123 204.83438Q33.053123 204.20938 32.6 203.7875Q32.146873 203.35 31.428125 203.35Q30.6625 203.35 30.209375 203.80313Q29.75625 204.25626 29.740625 205.06876L28.6625 204.95938Q28.771875 203.74063 29.490625 203.11563Q30.225 202.475 31.459375 202.475Q32.69375 202.475 33.4125 203.1625Q34.13125 203.85 34.13125 204.86563Q34.13125 205.38126 33.9125 205.88126Q33.709373 206.36563 33.209373 206.92813Q32.725 207.475 31.6 208.42813Q30.646875 209.225 30.365625 209.52188Q30.1 209.80313 29.928125 210.08438L34.146873 210.08438ZM36.19375 211.1L36.19375 209.89688L37.396873 209.89688L37.396873 211.1L36.19375 211.1ZM38.6 206.86563Q38.6 205.33438 38.9125 204.4125Q39.225 203.475 39.834373 202.975Q40.459373 202.475 41.396873 202.475Q42.084373 202.475 42.6 202.75626Q43.13125 203.0375 43.475 203.56876Q43.81875 204.08438 44.00625 204.83438Q44.19375 205.58438 44.19375 206.86563Q44.19375 208.38126 43.88125 209.30313Q43.584373 210.225 42.959373 210.74063Q42.35 211.24063 41.396873 211.24063Q40.1625 211.24063 39.44375 210.35Q38.6 209.2875 38.6 206.86563ZM39.678123 206.86563Q39.678123 208.975 40.178123 209.67813Q40.678123 210.38126 41.396873 210.38126Q42.13125 210.38126 42.615623 209.67813Q43.115623 208.975 43.115623 206.86563Q43.115623 204.74063 42.615623 204.05313Q42.13125 203.35 41.38125 203.35Q40.6625 203.35 40.225 203.95938Q39.678123 204.74063 39.678123 206.86563ZM45.803123 204.56876Q45.803123 203.64688 46.25625 203.00626Q46.725 202.36563 47.6 202.36563Q48.4125 202.36563 48.94375 202.94376Q49.475 203.52188 49.475 204.63126Q49.475 205.725 48.928123 206.31876Q48.396873 206.89688 47.615623 206.89688Q46.834373 206.89688 46.31875 206.31876Q45.803123 205.74063 45.803123 204.56876ZM47.63125 203.08438Q47.240623 203.08438 46.975 203.42813Q46.725 203.77188 46.725 204.67813Q46.725 205.50626 46.975 205.85Q47.240623 206.17813 47.63125 206.17813Q48.0375 206.17813 48.2875 205.83438Q48.553123 205.49063 48.553123 204.6Q48.553123 203.75626 48.2875 203.42813Q48.021873 203.08438 47.63125 203.08438ZM47.63125 211.4125L52.334373 202.36563L53.19375 202.36563L48.50625 211.4125L47.63125 211.4125ZM51.35 209.08438Q51.35 208.1625 51.803123 207.52188Q52.271873 206.88126 53.1625 206.88126Q53.975 206.88126 54.50625 207.45938Q55.0375 208.02188 55.0375 209.14688Q55.0375 210.24063 54.490623 210.83438Q53.959373 211.4125 53.1625 211.4125Q52.396873 211.4125 51.865623 210.83438Q51.35 210.25626 51.35 209.08438ZM53.19375 207.6Q52.7875 207.6 52.521873 207.94376Q52.271873 208.2875 52.271873 209.19376Q52.271873 210.00626 52.5375 210.35Q52.803123 210.69376 53.19375 210.69376Q53.584373 210.69376 53.85 210.35Q54.115623 210.00626 54.115623 209.1Q54.115623 208.27188 53.85 207.94376Q53.584373 207.6 53.19375 207.6Z" fill-rule="nonzero"/><path stroke="#757575" stroke-width="1.0" stroke-linecap="butt" d="M28.1 198.6L186.1 198.6L269.2886 117.146484" fill-rule="nonzero"/><path fill="#9e9e9e" d="M271.2886 117.146484C271.2886 116.041916 270.3932 115.146484 269.2886 115.146484C268.18405 115.146484 267.2886 116.041916 267.2886 117.146484C267.2886 118.25105 268.18405 119.146484 269.2886 119.146484C270.3932 119.146484 271.2886 118.25105 271.2886 117.146484" fill-rule="nonzero"/><path fill="#1a1a1a" d="M29.225 225.1L29.225 216.50626L30.35 216.50626L30.35 225.1L29.225 225.1ZM31.896875 225.1L31.896875 218.88126L32.834373 218.88126L32.834373 219.75626Q33.521873 218.74063 34.81875 218.74063Q35.38125 218.74063 35.85 218.94376Q36.334373 219.14688 36.56875 219.475Q36.803123 219.80313 36.896873 220.24063Q36.94375 220.5375 36.94375 221.27188L36.94375 225.1L35.896873 225.1L35.896873 221.31876Q35.896873 220.6625 35.771873 220.35Q35.646873 220.0375 35.334373 219.85Q35.021873 219.64688 34.6 219.64688Q33.928123 219.64688 33.428123 220.08438Q32.94375 220.50626 32.94375 221.69376L32.94375 225.1L31.896875 225.1ZM42.959373 222.81876L43.990623 222.95938Q43.81875 224.02188 43.115623 224.63126Q42.4125 225.24063 41.396873 225.24063Q40.115623 225.24063 39.334373 224.4125Q38.56875 223.56876 38.56875 222.00626Q38.56875 221.00626 38.896873 220.25626Q39.240623 219.49063 39.9125 219.11563Q40.6 218.74063 41.4125 218.74063Q42.4125 218.74063 43.053123 219.25626Q43.709373 219.75626 43.896873 220.70938L42.865623 220.86563Q42.725 220.24063 42.35 219.92813Q41.975 219.6 41.44375 219.6Q40.646873 219.6 40.146873 220.17813Q39.646873 220.74063 39.646873 221.975Q39.646873 223.24063 40.13125 223.80313Q40.615623 224.36563 41.38125 224.36563Q42.00625 224.36563 42.4125 223.99063Q42.834373 223.61563 42.959373 222.81876ZM49.146873 223.1L50.240623 223.225Q49.990623 224.17813 49.2875 224.70938Q48.584373 225.24063 47.50625 225.24063Q46.146873 225.24063 45.334373 224.39688Q44.5375 223.55313 44.5375 222.0375Q44.5375 220.475 45.35 219.61563Q46.1625 218.74063 47.44375 218.74063Q48.69375 218.74063 49.475 219.58438Q50.271873 220.42813 50.271873 221.975Q50.271873 222.06876 50.271873 222.25626L45.63125 222.25626Q45.69375 223.2875 46.209373 223.83438Q46.725 224.36563 47.50625 224.36563Q48.084373 224.36563 48.490623 224.06876Q48.9125 223.75626 49.146873 223.1ZM45.69375 221.39688L49.1625 221.39688Q49.1 220.6 48.771873 220.20938Q48.25625 219.6 47.459373 219.6Q46.725 219.6 46.225 220.08438Q45.740623 220.56876 45.69375 221.39688ZM51.896873 227.49063L51.896873 218.88126L52.85 218.88126L52.85 219.67813Q53.19375 219.20938 53.615623 218.975Q54.053123 218.74063 54.6625 218.74063Q55.459373 218.74063 56.06875 219.14688Q56.678123 219.55313 56.975 220.30313Q57.2875 221.05313 57.2875 221.94376Q57.2875 222.89688 56.94375 223.6625Q56.615623 224.42813 55.959373 224.83438Q55.303123 225.24063 54.584373 225.24063Q54.053123 225.24063 53.63125 225.02188Q53.209373 224.7875 52.94375 224.45938L52.94375 227.49063L51.896873 227.49063ZM52.85 222.02188Q52.85 223.225 53.334373 223.80313Q53.81875 224.36563 54.50625 224.36563Q55.209373 224.36563 55.709373 223.77188Q56.209373 223.17813 56.209373 221.92813Q56.209373 220.74063 55.725 220.1625Q55.240623 219.56876 54.553123 219.56876Q53.88125 219.56876 53.365623 220.19376Q52.85 220.81876 52.85 222.02188ZM61.19375 224.1625L61.35 225.08438Q60.896873 225.17813 60.553123 225.17813Q59.975 225.17813 59.6625 225.00626Q59.35 224.81876 59.209373 224.52188Q59.084373 224.225 59.084373 223.27188L59.084373 219.69376L58.31875 219.69376L58.31875 218.88126L59.084373 218.88126L59.084373 217.33438L60.13125 216.70938L60.13125 218.88126L61.19375 218.88126L61.19375 219.69376L60.13125 219.69376L60.13125 223.33438Q60.13125 223.7875 60.178123 223.9125Q60.240623 224.0375 60.365623 224.11563Q60.490623 224.19376 60.725 224.19376Q60.9125 224.19376 61.19375 224.1625ZM61.896873 217.725L61.896873 216.50626L62.959373 216.50626L62.959373 217.725L61.896873 217.725ZM61.896873 225.1L61.896873 218.88126L62.959373 218.88126L62.959373 225.1L61.896873 225.1ZM64.50625 221.99063Q64.50625 220.25626 65.45937 219.42813Q66.25625 218.74063 67.4125 218.74063Q68.69375 218.74063 69.50625 219.58438Q70.33437 220.4125 70.33437 221.89688Q70.33437 223.1 69.975 223.7875Q69.61562 224.475 68.9125 224.86563Q68.225 225.24063 67.4125 225.24063Q66.11562 225.24063 65.30312 224.4125Q64.50625 223.56876 64.50625 221.99063ZM65.58437 221.99063Q65.58437 223.17813 66.1 223.77188Q66.63125 224.36563 67.4125 224.36563Q68.20937 224.36563 68.725 223.77188Q69.24062 223.17813 69.24062 221.95938Q69.24062 220.80313 68.70937 220.20938Q68.19375 219.61563 67.4125 219.61563Q66.63125 219.61563 66.1 220.20938Q65.58437 220.7875 65.58437 221.99063ZM71.89687 225.1L71.89687 218.88126L72.83437 218.88126L72.83437 219.75626Q73.52187 218.74063 74.81875 218.74063Q75.38125 218.74063 75.85 218.94376Q76.33437 219.14688 76.56875 219.475Q76.80312 219.80313 76.89687 220.24063Q76.94375 220.5375 76.94375 221.27188L76.94375 225.1L75.89687 225.1L75.89687 221.31876Q75.89687 220.6625 75.77187 220.35Q75.64687 220.0375 75.33437 219.85Q75.02187 219.64688 74.6 219.64688Q73.92812 219.64688 73.42812 220.08438Q72.94375 220.50626 72.94375 221.69376L72.94375 225.1L71.89687 225.1ZM79.02187 225.1L79.02187 216.50626L80.17812 216.50626L84.69375 223.25626L84.69375 216.50626L85.7875 216.50626L85.7875 225.1L84.61562 225.1L80.1 218.35L80.1 225.1L79.02187 225.1ZM92.14687 223.1L93.24062 223.225Q92.99062 224.17813 92.2875 224.70938Q91.58437 225.24063 90.50625 225.24063Q89.14687 225.24063 88.33437 224.39688Q87.5375 223.55313 87.5375 222.0375Q87.5375 220.475 88.35 219.61563Q89.1625 218.74063 90.44375 218.74063Q91.69375 218.74063 92.475 219.58438Q93.27187 220.42813 93.27187 221.975Q93.27187 222.06876 93.27187 222.25626L88.63125 222.25626Q88.69375 223.2875 89.20937 223.83438Q89.725 224.36563 90.50625 224.36563Q91.08437 224.36563 91.49062 224.06876Q91.9125 223.75626 92.14687 223.1ZM88.69375 221.39688L92.1625 221.39688Q92.1 220.6 91.77187 220.20938Q91.25625 219.6 90.45937 219.6Q89.725 219.6 89.225 220.08438Q88.74062 220.56876 88.69375 221.39688ZM97.19375 224.1625L97.35 225.08438Q96.89687 225.17813 96.55312 225.17813Q95.975 225.17813 95.6625 225.00626Q95.35 224.81876 95.20937 224.52188Q95.08437 224.225 95.08437 223.27188L95.08437 219.69376L94.31875 219.69376L94.31875 218.88126L95.08437 218.88126L95.08437 217.33438L96.13125 216.70938L96.13125 218.88126L97.19375 218.88126L97.19375 219.69376L96.13125 219.69376L96.13125 223.33438Q96.13125 223.7875 96.17812 223.9125Q96.24062 224.0375 96.36562 224.11563Q96.49062 224.19376 96.725 224.19376Q96.9125 224.19376 97.19375 224.1625Z" fill-rule="nonzero"/><path fill="#9e9e9e" d="M34.146873 241.08438L34.146873 242.1L28.459375 242.1Q28.459375 241.725 28.584375 241.36563Q28.803125 240.7875 29.271875 240.225Q29.75625 239.6625 30.6625 238.92813Q32.06875 237.77188 32.553123 237.1Q33.053123 236.42813 33.053123 235.83438Q33.053123 235.20938 32.6 234.7875Q32.146873 234.35 31.428125 234.35Q30.6625 234.35 30.209375 234.80313Q29.75625 235.25626 29.740625 236.06876L28.6625 235.95938Q28.771875 234.74063 29.490625 234.11563Q30.225 233.475 31.459375 233.475Q32.69375 233.475 33.4125 234.1625Q34.13125 234.85 34.13125 235.86563Q34.13125 236.38126 33.9125 236.88126Q33.709373 237.36563 33.209373 237.92813Q32.725 238.475 31.6 239.42813Q30.646875 240.225 30.365625 240.52188Q30.1 240.80313 29.928125 241.08438L34.146873 241.08438ZM36.19375 242.1L36.19375 240.89688L37.396873 240.89688L37.396873 242.1L36.19375 242.1ZM40.225 237.44376Q39.56875 237.19376 39.240623 236.75626Q38.928123 236.30313 38.928123 235.69376Q38.928123 234.75626 39.6 234.11563Q40.2875 233.475 41.396873 233.475Q42.521873 233.475 43.209373 234.13126Q43.896873 234.7875 43.896873 235.725Q43.896873 236.31876 43.584373 236.75626Q43.271873 237.19376 42.63125 237.44376Q43.428123 237.69376 43.834373 238.27188Q44.240623 238.85 44.240623 239.64688Q44.240623 240.74063 43.459373 241.49063Q42.69375 242.24063 41.4125 242.24063Q40.146873 242.24063 39.365623 241.49063Q38.584373 240.74063 38.584373 239.61563Q38.584373 238.77188 39.00625 238.20938Q39.44375 237.64688 40.225 237.44376ZM40.00625 235.64688Q40.00625 236.25626 40.396873 236.64688Q40.803123 237.0375 41.428123 237.0375Q42.0375 237.0375 42.428123 236.6625Q42.81875 236.27188 42.81875 235.70938Q42.81875 235.13126 42.4125 234.74063Q42.00625 234.33438 41.4125 234.33438Q40.803123 234.33438 40.396873 234.725Q40.00625 235.11563 40.00625 235.64688ZM39.678123 239.61563Q39.678123 240.06876 39.88125 240.49063Q40.1 240.9125 40.521873 241.14688Q40.94375 241.38126 41.428123 241.38126Q42.178123 241.38126 42.6625 240.89688Q43.1625 240.4125 43.1625 239.6625Q43.1625 238.89688 42.6625 238.39688Q42.1625 237.89688 41.396873 237.89688Q40.646873 237.89688 40.1625 238.39688Q39.678123 238.88126 39.678123 239.61563ZM45.803123 235.56876Q45.803123 234.64688 46.25625 234.00626Q46.725 233.36563 47.6 233.36563Q48.4125 233.36563 48.94375 233.94376Q49.475 234.52188 49.475 235.63126Q49.475 236.725 48.928123 237.31876Q48.396873 237.89688 47.615623 237.89688Q46.834373 237.89688 46.31875 237.31876Q45.803123 236.74063 45.803123 235.56876ZM47.63125 234.08438Q47.240623 234.08438 46.975 234.42813Q46.725 234.77188 46.725 235.67813Q46.725 236.50626 46.975 236.85Q47.240623 237.17813 47.63125 237.17813Q48.0375 237.17813 48.2875 236.83438Q48.553123 236.49063 48.553123 235.6Q48.553123 234.75626 48.2875 234.42813Q48.021873 234.08438 47.63125 234.08438ZM47.63125 242.4125L52.334373 233.36563L53.19375 233.36563L48.50625 242.4125L47.63125 242.4125ZM51.35 240.08438Q51.35 239.1625 51.803123 238.52188Q52.271873 237.88126 53.1625 237.88126Q53.975 237.88126 54.50625 238.45938Q55.0375 239.02188 55.0375 240.14688Q55.0375 241.24063 54.490623 241.83438Q53.959373 242.4125 53.1625 242.4125Q52.396873 242.4125 51.865623 241.83438Q51.35 241.25626 51.35 240.08438ZM53.19375 238.6Q52.7875 238.6 52.521873 238.94376Q52.271873 239.2875 52.271873 240.19376Q52.271873 241.00626 52.5375 241.35Q52.803123 241.69376 53.19375 241.69376Q53.584373 241.69376 53.85 241.35Q54.115623 241.00626 54.115623 240.1Q54.115623 239.27188 53.85 238.94376Q53.584373 238.6 53.19375 238.6Z" fill-rule="nonzero"/><path stroke="#757575" stroke-width="1.0" stroke-linecap="butt" d="M28.1 229.6L186.1 229.6L246.60455 145.4946" fill-rule="nonzero"/><path fill="#9e9e9e" d="M248.60455 145.4946C248.60455 144.39003 247.70912 143.4946 246.60455 143.4946C245.49998 143.4946 244.60455 144.39003 244.60455 145.4946C244.60455 146.59917 245.49998 147.4946 246.60455 147.4946C247.70912 147.4946 248.60455 146.59917 248.60455 145.4946" fill-rule="nonzero"/><path fill="#1a1a1a" d="M35.1625 253.08438L36.2875 253.38126Q35.928123 254.77188 35.00625 255.50626Q34.084373 256.24063 32.740623 256.24063Q31.35 256.24063 30.475 255.67813Q29.6 255.11563 29.146875 254.05313Q28.69375 252.975 28.69375 251.74063Q28.69375 250.39688 29.209375 249.39688Q29.725 248.39688 30.6625 247.88126Q31.615625 247.36563 32.75625 247.36563Q34.0375 247.36563 34.9125 248.02188Q35.803123 248.67813 36.146873 249.86563L35.021873 250.13126Q34.725 249.19376 34.146873 248.77188Q33.584373 248.33438 32.725 248.33438Q31.740625 248.33438 31.06875 248.81876Q30.4125 249.2875 30.13125 250.08438Q29.865625 250.88126 29.865625 251.74063Q29.865625 252.83438 30.178125 253.64688Q30.50625 254.45938 31.178125 254.86563Q31.85 255.27188 32.646873 255.27188Q33.6 255.27188 34.25625 254.725Q34.928123 254.17813 35.1625 253.08438ZM37.50625 252.99063Q37.50625 251.25626 38.459373 250.42813Q39.25625 249.74063 40.4125 249.74063Q41.69375 249.74063 42.50625 250.58438Q43.334373 251.4125 43.334373 252.89688Q43.334373 254.1 42.975 254.7875Q42.615623 255.475 41.9125 255.86563Q41.225 256.24063 40.4125 256.24063Q39.115623 256.24063 38.303123 255.4125Q37.50625 254.56876 37.50625 252.99063ZM38.584373 252.99063Q38.584373 254.17813 39.1 254.77188Q39.63125 255.36563 40.4125 255.36563Q41.209373 255.36563 41.725 254.77188Q42.240623 254.17813 42.240623 252.95938Q42.240623 251.80313 41.709373 251.20938Q41.19375 250.61563 40.4125 250.61563Q39.63125 250.61563 39.1 251.20938Q38.584373 251.7875 38.584373 252.99063ZM44.896873 256.1L44.896873 249.88126L45.834373 249.88126L45.834373 250.75626Q46.521873 249.74063 47.81875 249.74063Q48.38125 249.74063 48.85 249.94376Q49.334373 250.14688 49.56875 250.475Q49.803123 250.80313 49.896873 251.24063Q49.94375 251.5375 49.94375 252.27188L49.94375 256.1L48.896873 256.1L48.896873 252.31876Q48.896873 251.6625 48.771873 251.35Q48.646873 251.0375 48.334373 250.85Q48.021873 250.64688 47.6 250.64688Q46.928123 250.64688 46.428123 251.08438Q45.94375 251.50626 45.94375 252.69376L45.94375 256.1L44.896873 256.1ZM53.615623 256.1L51.25625 249.88126L52.365623 249.88126L53.709373 253.6Q53.9125 254.20938 54.1 254.85Q54.240623 254.36563 54.490623 253.67813L55.88125 249.88126L56.959373 249.88126L54.6 256.1L53.615623 256.1ZM60.56875 256.1L59.521873 256.1L59.521873 249.38126Q59.13125 249.74063 58.50625 250.11563Q57.896873 250.475 57.4125 250.64688L57.4125 249.63126Q58.2875 249.20938 58.94375 248.63126Q59.615623 248.0375 59.896873 247.475L60.56875 247.475L60.56875 256.1ZM64.02187 256.1L64.02187 247.50626L66.99062 247.50626Q67.99062 247.50626 68.52187 247.63126Q69.25625 247.80313 69.77187 248.24063Q70.45937 248.81876 70.7875 249.725Q71.13125 250.61563 71.13125 251.75626Q71.13125 252.74063 70.89687 253.49063Q70.67812 254.24063 70.31875 254.74063Q69.95937 255.24063 69.52187 255.52188Q69.1 255.80313 68.50625 255.95938Q67.9125 256.1 67.13125 256.1L64.02187 256.1ZM65.1625 255.08438L66.99062 255.08438Q67.85 255.08438 68.33437 254.92813Q68.81875 254.77188 69.1 254.475Q69.50625 254.08438 69.725 253.39688Q69.95937 252.70938 69.95937 251.74063Q69.95937 250.39688 69.50625 249.67813Q69.06875 248.94376 68.44375 248.69376Q67.975 248.52188 66.975 248.52188L65.1625 248.52188L65.1625 255.08438Z" fill-rule="nonzero"/><path fill="#9e9e9e" d="M30.225 268.44376Q29.56875 268.19376 29.240625 267.75626Q28.928125 267.30313 28.928125 266.69376Q28.928125 265.75626 29.6 265.11563Q30.2875 264.475 31.396875 264.475Q32.521873 264.475 33.209373 265.13126Q33.896873 265.7875 33.896873 266.725Q33.896873 267.31876 33.584373 267.75626Q33.271873 268.19376 32.63125 268.44376Q33.428123 268.69376 33.834373 269.27188Q34.240623 269.85 34.240623 270.64688Q34.240623 271.74063 33.459373 272.49063Q32.69375 273.24063 31.4125 273.24063Q30.146875 273.24063 29.365625 272.49063Q28.584375 271.74063 28.584375 270.61563Q28.584375 269.77188 29.00625 269.20938Q29.44375 268.64688 30.225 268.44376ZM30.00625 266.64688Q30.00625 267.25626 30.396875 267.64688Q30.803125 268.0375 31.428125 268.0375Q32.0375 268.0375 32.428123 267.6625Q32.81875 267.27188 32.81875 266.70938Q32.81875 266.13126 32.4125 265.74063Q32.00625 265.33438 31.4125 265.33438Q30.803125 265.33438 30.396875 265.725Q30.00625 266.11563 30.00625 266.64688ZM29.678125 270.61563Q29.678125 271.06876 29.88125 271.49063Q30.1 271.9125 30.521875 272.14688Q30.94375 272.38126 31.428125 272.38126Q32.178123 272.38126 32.6625 271.89688Q33.1625 271.4125 33.1625 270.6625Q33.1625 269.89688 32.6625 269.39688Q32.1625 268.89688 31.396875 268.89688Q30.646875 268.89688 30.1625 269.39688Q29.678125 269.88126 29.678125 270.61563ZM36.19375 273.1L36.19375 271.89688L37.396873 271.89688L37.396873 273.1L36.19375 273.1ZM38.6 270.83438L39.6625 270.69376Q39.834373 271.58438 40.271873 271.99063Q40.709373 272.38126 41.334373 272.38126Q42.084373 272.38126 42.6 271.86563Q43.115623 271.35 43.115623 270.58438Q43.115623 269.86563 42.63125 269.39688Q42.1625 268.9125 41.428123 268.9125Q41.13125 268.9125 40.678123 269.0375L40.803123 268.1Q40.9125 268.11563 40.975 268.11563Q41.646873 268.11563 42.178123 267.77188Q42.725 267.4125 42.725 266.67813Q42.725 266.1 42.334373 265.725Q41.94375 265.33438 41.31875 265.33438Q40.709373 265.33438 40.2875 265.725Q39.88125 266.11563 39.771873 266.88126L38.709373 266.69376Q38.896873 265.64688 39.584373 265.06876Q40.271873 264.475 41.2875 264.475Q41.990623 264.475 42.584373 264.7875Q43.178123 265.08438 43.490623 265.6Q43.803123 266.11563 43.803123 266.70938Q43.803123 267.25626 43.50625 267.725Q43.209373 268.17813 42.63125 268.44376Q43.38125 268.61563 43.803123 269.17813Q44.225 269.725 44.225 270.56876Q44.225 271.69376 43.396873 272.475Q42.584373 273.25626 41.334373 273.25626Q40.209373 273.25626 39.459373 272.58438Q38.709373 271.89688 38.6 270.83438ZM45.803123 266.56876Q45.803123 265.64688 46.25625 265.00626Q46.725 264.36563 47.6 264.36563Q48.4125 264.36563 48.94375 264.94376Q49.475 265.52188 49.475 266.63126Q49.475 267.725 48.928123 268.31876Q48.396873 268.89688 47.615623 268.89688Q46.834373 268.89688 46.31875 268.31876Q45.803123 267.74063 45.803123 266.56876ZM47.63125 265.08438Q47.240623 265.08438 46.975 265.42813Q46.725 265.77188 46.725 266.67813Q46.725 267.50626 46.975 267.85Q47.240623 268.17813 47.63125 268.17813Q48.0375 268.17813 48.2875 267.83438Q48.553123 267.49063 48.553123 266.6Q48.553123 265.75626 48.2875 265.42813Q48.021873 265.08438 47.63125 265.08438ZM47.63125 273.4125L52.334373 264.36563L53.19375 264.36563L48.50625 273.4125L47.63125 273.4125ZM51.35 271.08438Q51.35 270.1625 51.803123 269.52188Q52.271873 268.88126 53.1625 268.88126Q53.975 268.88126 54.50625 269.45938Q55.0375 270.02188 55.0375 271.14688Q55.0375 272.24063 54.490623 272.83438Q53.959373 273.4125 53.1625 273.4125Q52.396873 273.4125 51.865623 272.83438Q51.35 272.25626 51.35 271.08438ZM53.19375 269.6Q52.7875 269.6 52.521873 269.94376Q52.271873 270.2875 52.271873 271.19376Q52.271873 272.00626 52.5375 272.35Q52.803123 272.69376 53.19375 272.69376Q53.584373 272.69376 53.85 272.35Q54.115623 272.00626 54.115623 271.1Q54.115623 270.27188 53.85 269.94376Q53.584373 269.6 53.19375 269.6Z" fill-rule="nonzero"/><path stroke="#757575" stroke-width="1.0" stroke-linecap="butt" d="M28.1 260.6L186.1 260.6L212.2237 221.52182" fill-rule="nonzero"/><path fill="#9e9e9e" d="M214.2237 221.52182C214.2237 220.41725 213.32826 219.52182 212.2237 219.52182C211.11913 219.52182 210.2237 220.41725 210.2237 221.52182C210.2237 222.62639 211.11913 223.52182 212.2237 223.52182C213.32826 223.52182 214.2237 222.62639 214.2237 221.52182" fill-rule="nonzero"/><path fill="#1a1a1a" d="M29.0375 346.74377L29.0375 338.15002L32.85 338.15002Q34.00625 338.15002 34.6 338.3844Q35.19375 338.61877 35.553123 339.21252Q35.9125 339.79065 35.9125 340.49377Q35.9125 341.41565 35.31875 342.04065Q34.725 342.66565 33.490623 342.83752Q33.94375 343.05627 34.178123 343.2594Q34.678123 343.71252 35.115623 344.40002L36.615623 346.74377L35.178123 346.74377L34.053123 344.96252Q33.553123 344.18127 33.225 343.77502Q32.9125 343.36877 32.646873 343.21252Q32.396873 343.04065 32.13125 342.96252Q31.94375 342.93127 31.50625 342.93127L30.178125 342.93127L30.178125 346.74377L29.0375 346.74377ZM30.178125 341.9469L32.63125 341.9469Q33.396873 341.9469 33.834373 341.79065Q34.2875 341.61877 34.50625 341.27502Q34.740623 340.91565 34.740623 340.49377Q34.740623 339.8844 34.2875 339.49377Q33.85 339.10315 32.896873 339.10315L30.178125 339.10315L30.178125 341.9469ZM42.146873 344.74377L43.240623 344.86877Q42.990623 345.8219 42.2875 346.35315Q41.584373 346.8844 40.50625 346.8844Q39.146873 346.8844 38.334373 346.04065Q37.5375 345.1969 37.5375 343.68127Q37.5375 342.11877 38.35 341.2594Q39.1625 340.3844 40.44375 340.3844Q41.69375 340.3844 42.475 341.22815Q43.271873 342.0719 43.271873 343.61877Q43.271873 343.71252 43.271873 343.90002L38.63125 343.90002Q38.69375 344.93127 39.209373 345.47815Q39.725 346.0094 40.50625 346.0094Q41.084373 346.0094 41.490623 345.71252Q41.9125 345.40002 42.146873 344.74377ZM38.69375 343.04065L42.1625 343.04065Q42.1 342.24377 41.771873 341.85315Q41.25625 341.24377 40.459373 341.24377Q39.725 341.24377 39.225 341.72815Q38.740623 342.21252 38.69375 343.04065ZM44.475 344.8844L45.50625 344.72815Q45.6 345.35315 45.990623 345.68127Q46.396873 346.0094 47.13125 346.0094Q47.85 346.0094 48.19375 345.72815Q48.553123 345.43127 48.553123 345.02502Q48.553123 344.66565 48.240623 344.46252Q48.021873 344.3219 47.1625 344.10315Q46.00625 343.80627 45.553123 343.60315Q45.115623 343.3844 44.88125 343.0094Q44.646873 342.6344 44.646873 342.16565Q44.646873 341.7594 44.834373 341.40002Q45.021873 341.04065 45.35 340.80627Q45.6 340.6344 46.021873 340.5094Q46.44375 340.3844 46.94375 340.3844Q47.6625 340.3844 48.209373 340.60315Q48.771873 340.80627 49.0375 341.16565Q49.303123 341.52502 49.396873 342.11877L48.365623 342.2594Q48.303123 341.79065 47.959373 341.52502Q47.63125 341.24377 47.00625 341.24377Q46.2875 341.24377 45.975 341.49377Q45.6625 341.72815 45.6625 342.05627Q45.6625 342.2594 45.7875 342.41565Q45.928123 342.58752 46.19375 342.6969Q46.35 342.7594 47.13125 342.96252Q48.25625 343.27502 48.69375 343.46252Q49.13125 343.65002 49.38125 344.0094Q49.63125 344.36877 49.63125 344.91565Q49.63125 345.4469 49.31875 345.91565Q49.021873 346.36877 48.44375 346.6344Q47.865623 346.8844 47.13125 346.8844Q45.9125 346.8844 45.271873 346.3844Q44.646873 345.86877 44.475 344.8844ZM52.021873 346.74377L52.021873 338.15002L53.178123 338.15002L57.69375 344.90002L57.69375 338.15002L58.7875 338.15002L58.7875 346.74377L57.615623 346.74377L53.1 339.99377L53.1 346.74377L52.021873 346.74377ZM65.14687 344.74377L66.24062 344.86877Q65.99062 345.8219 65.2875 346.35315Q64.58437 346.8844 63.50625 346.8844Q62.146873 346.8844 61.334373 346.04065Q60.5375 345.1969 60.5375 343.68127Q60.5375 342.11877 61.35 341.2594Q62.1625 340.3844 63.44375 340.3844Q64.69375 340.3844 65.475 341.22815Q66.27187 342.0719 66.27187 343.61877Q66.27187 343.71252 66.27187 343.90002L61.63125 343.90002Q61.69375 344.93127 62.209373 345.47815Q62.725 346.0094 63.50625 346.0094Q64.08437 346.0094 64.49062 345.71252Q64.9125 345.40002 65.14687 344.74377ZM61.69375 343.04065L65.1625 343.04065Q65.1 342.24377 64.77187 341.85315Q64.25625 341.24377 63.459373 341.24377Q62.725 341.24377 62.225 341.72815Q61.740623 342.21252 61.69375 343.04065ZM70.19375 345.80627L70.35 346.72815Q69.89687 346.8219 69.55312 346.8219Q68.975 346.8219 68.6625 346.65002Q68.35 346.46252 68.20937 346.16565Q68.08437 345.86877 68.08437 344.91565L68.08437 341.33752L67.31875 341.33752L67.31875 340.52502L68.08437 340.52502L68.08437 338.97815L69.13125 338.35315L69.13125 340.52502L70.19375 340.52502L70.19375 341.33752L69.13125 341.33752L69.13125 344.97815Q69.13125 345.43127 69.17812 345.55627Q69.24062 345.68127 69.36562 345.7594Q69.49062 345.83752 69.725 345.83752Q69.9125 345.83752 70.19375 345.80627Z" fill-rule="nonzero"/><path fill="#9e9e9e" d="M28.75625 361.7594L29.771875 361.66565Q29.896875 362.3844 30.25625 362.71252Q30.63125 363.02502 31.19375 363.02502Q31.678125 363.02502 32.0375 362.80627Q32.4125 362.5719 32.646873 362.21252Q32.88125 361.83752 33.0375 361.21252Q33.19375 360.5719 33.19375 359.91565Q33.19375 359.83752 33.19375 359.6969Q32.88125 360.1969 32.334373 360.52502Q31.7875 360.83752 31.146875 360.83752Q30.06875 360.83752 29.334375 360.0719Q28.6 359.29065 28.6 358.02502Q28.6 356.71252 29.365625 355.91565Q30.146875 355.11877 31.303125 355.11877Q32.13125 355.11877 32.81875 355.5719Q33.521873 356.02502 33.88125 356.86877Q34.240623 357.6969 34.240623 359.27502Q34.240623 360.91565 33.88125 361.90002Q33.5375 362.86877 32.81875 363.3844Q32.115623 363.8844 31.178125 363.8844Q30.1625 363.8844 29.521875 363.33752Q28.88125 362.77502 28.75625 361.7594ZM33.06875 357.96252Q33.06875 357.05627 32.584373 356.52502Q32.115623 355.99377 31.428125 355.99377Q30.725 355.99377 30.19375 356.5719Q29.678125 357.1344 29.678125 358.05627Q29.678125 358.86877 30.178125 359.3844Q30.678125 359.90002 31.396875 359.90002Q32.13125 359.90002 32.6 359.3844Q33.06875 358.86877 33.06875 357.96252ZM36.19375 363.74377L36.19375 362.54065L37.396873 362.54065L37.396873 363.74377L36.19375 363.74377ZM42.56875 363.74377L41.521873 363.74377L41.521873 357.02502Q41.13125 357.3844 40.50625 357.7594Q39.896873 358.11877 39.4125 358.29065L39.4125 357.27502Q40.2875 356.85315 40.94375 356.27502Q41.615623 355.68127 41.896873 355.11877L42.56875 355.11877L42.56875 363.74377ZM45.803123 357.21252Q45.803123 356.29065 46.25625 355.65002Q46.725 355.0094 47.6 355.0094Q48.4125 355.0094 48.94375 355.58752Q49.475 356.16565 49.475 357.27502Q49.475 358.36877 48.928123 358.96252Q48.396873 359.54065 47.615623 359.54065Q46.834373 359.54065 46.31875 358.96252Q45.803123 358.3844 45.803123 357.21252ZM47.63125 355.72815Q47.240623 355.72815 46.975 356.0719Q46.725 356.41565 46.725 357.3219Q46.725 358.15002 46.975 358.49377Q47.240623 358.8219 47.63125 358.8219Q48.0375 358.8219 48.2875 358.47815Q48.553123 358.1344 48.553123 357.24377Q48.553123 356.40002 48.2875 356.0719Q48.021873 355.72815 47.63125 355.72815ZM47.63125 364.05627L52.334373 355.0094L53.19375 355.0094L48.50625 364.05627L47.63125 364.05627ZM51.35 361.72815Q51.35 360.80627 51.803123 360.16565Q52.271873 359.52502 53.1625 359.52502Q53.975 359.52502 54.50625 360.10315Q55.0375 360.66565 55.0375 361.79065Q55.0375 362.8844 54.490623 363.47815Q53.959373 364.05627 53.1625 364.05627Q52.396873 364.05627 51.865623 363.47815Q51.35 362.90002 51.35 361.72815ZM53.19375 360.24377Q52.7875 360.24377 52.521873 360.58752Q52.271873 360.93127 52.271873 361.83752Q52.271873 362.65002 52.5375 362.99377Q52.803123 363.33752 53.19375 363.33752Q53.584373 363.33752 53.85 362.99377Q54.115623 362.65002 54.115623 361.74377Q54.115623 360.91565 53.85 360.58752Q53.584373 360.24377 53.19375 360.24377Z" fill-rule="nonzero"/><path stroke="#757575" stroke-width="1.0" stroke-linecap="butt" d="M28.1 351.24377L186.1 351.24377L215.243 351.24377" fill-rule="nonzero"/><path fill="#9e9e9e" d="M217.243 351.24377C217.243 350.1392 216.34756 349.24377 215.243 349.24377C214.13843 349.24377 213.243 350.1392 213.243 351.24377C213.243 352.34833 214.13843 353.24377 215.243 353.24377C216.34756 353.24377 217.243 352.34833 217.243 351.24377" fill-rule="nonzero"/><path fill="#1a1a1a" d="M801.775 390.52512L801.775 381.93137L805.0094 381.93137Q805.9938 381.93137 806.5875 382.197Q807.1813 382.46262 807.5094 383.0095Q807.85315 383.54074 807.85315 384.1345Q807.85315 384.68137 807.5563 385.16574Q807.2594 385.65012 806.65 385.947Q807.4313 386.18137 807.8375 386.74387Q808.2594 387.29074 808.2594 388.04074Q808.2594 388.6345 808.0094 389.16574Q807.7594 389.68137 807.3844 389.96262Q807.0094 390.24387 806.4313 390.3845Q805.8688 390.52512 805.0563 390.52512L801.775 390.52512ZM802.91565 385.54074L804.775 385.54074Q805.525 385.54074 805.85315 385.447Q806.29065 385.322 806.5094 385.02512Q806.72815 384.71262 806.72815 384.2595Q806.72815 383.83762 806.525 383.5095Q806.3219 383.18137 805.9313 383.072Q805.5563 382.947 804.6344 382.947L802.91565 382.947L802.91565 385.54074ZM802.91565 389.5095L805.0563 389.5095Q805.60315 389.5095 805.8219 389.46262Q806.22815 389.40012 806.47815 389.24387Q806.7438 389.072 806.91565 388.7595Q807.0875 388.447 807.0875 388.04074Q807.0875 387.55637 806.8375 387.197Q806.60315 386.83762 806.16565 386.697Q805.72815 386.55637 804.9 386.55637L802.91565 386.55637L802.91565 389.5095ZM813.7594 389.7595Q813.16565 390.2595 812.6188 390.46262Q812.0875 390.66574 811.4625 390.66574Q810.4313 390.66574 809.8844 390.16574Q809.3375 389.66574 809.3375 388.8845Q809.3375 388.43137 809.54065 388.05637Q809.7438 387.66574 810.0875 387.447Q810.4313 387.21262 810.85315 387.10324Q811.15 387.0095 811.79065 386.93137Q813.0563 386.79074 813.66565 386.572Q813.66565 386.35324 813.66565 386.30637Q813.66565 385.65012 813.3688 385.3845Q812.9625 385.04074 812.16565 385.04074Q811.4313 385.04074 811.0719 385.30637Q810.7125 385.55637 810.54065 386.21262L809.5094 386.072Q809.65 385.41574 809.97815 385.0095Q810.3063 384.60324 810.91565 384.3845Q811.525 384.16574 812.3219 384.16574Q813.1188 384.16574 813.6188 384.35324Q814.1188 384.54074 814.35315 384.822Q814.5875 385.10324 814.6813 385.54074Q814.72815 385.80637 814.72815 386.5095L814.72815 387.91574Q814.72815 389.3845 814.79065 389.77512Q814.8688 390.16574 815.0719 390.52512L813.9625 390.52512Q813.8063 390.197 813.7594 389.7595ZM813.66565 387.40012Q813.0875 387.6345 811.9469 387.80637Q811.29065 387.90012 811.025 388.02512Q810.7594 388.1345 810.60315 388.35324Q810.4625 388.572 810.4625 388.85324Q810.4625 389.27512 810.775 389.55637Q811.10315 389.83762 811.7125 389.83762Q812.3219 389.83762 812.79065 389.572Q813.275 389.30637 813.4938 388.83762Q813.66565 388.47824 813.66565 387.79074L813.66565 387.40012ZM816.275 388.66574L817.3063 388.5095Q817.4 389.1345 817.79065 389.46262Q818.1969 389.79074 818.9313 389.79074Q819.65 389.79074 819.9938 389.5095Q820.35315 389.21262 820.35315 388.80637Q820.35315 388.447 820.04065 388.24387Q819.8219 388.10324 818.9625 387.8845Q817.8063 387.58762 817.35315 387.3845Q816.91565 387.16574 816.6813 386.79074Q816.4469 386.41574 816.4469 385.947Q816.4469 385.54074 816.6344 385.18137Q816.8219 384.822 817.15 384.58762Q817.4 384.41574 817.8219 384.29074Q818.2438 384.16574 818.7438 384.16574Q819.4625 384.16574 820.0094 384.3845Q820.5719 384.58762 820.8375 384.947Q821.10315 385.30637 821.1969 385.90012L820.16565 386.04074Q820.10315 385.572 819.7594 385.30637Q819.4313 385.02512 818.8063 385.02512Q818.0875 385.02512 817.775 385.27512Q817.4625 385.5095 817.4625 385.83762Q817.4625 386.04074 817.5875 386.197Q817.72815 386.36887 817.9938 386.47824Q818.15 386.54074 818.9313 386.74387Q820.0563 387.05637 820.4938 387.24387Q820.9313 387.43137 821.1813 387.79074Q821.4313 388.15012 821.4313 388.697Q821.4313 389.22824 821.1188 389.697Q820.8219 390.15012 820.2438 390.41574Q819.66565 390.66574 818.9313 390.66574Q817.7125 390.66574 817.0719 390.16574Q816.4469 389.65012 816.275 388.66574ZM823.6969 383.15012L823.6969 381.93137L824.7594 381.93137L824.7594 383.15012L823.6969 383.15012ZM823.6969 390.52512L823.6969 384.30637L824.7594 384.30637L824.7594 390.52512L823.6969 390.52512ZM830.7594 388.24387L831.79065 388.3845Q831.6188 389.447 830.91565 390.05637Q830.2125 390.66574 829.1969 390.66574Q827.91565 390.66574 827.1344 389.83762Q826.3688 388.99387 826.3688 387.43137Q826.3688 386.43137 826.6969 385.68137Q827.04065 384.91574 827.7125 384.54074Q828.4 384.16574 829.2125 384.16574Q830.2125 384.16574 830.85315 384.68137Q831.5094 385.18137 831.6969 386.1345L830.66565 386.29074Q830.525 385.66574 830.15 385.35324Q829.775 385.02512 829.2438 385.02512Q828.4469 385.02512 827.9469 385.60324Q827.4469 386.16574 827.4469 387.40012Q827.4469 388.66574 827.9313 389.22824Q828.41565 389.79074 829.1813 389.79074Q829.8063 389.79074 830.2125 389.41574Q830.6344 389.04074 830.7594 388.24387ZM841.9625 387.5095L843.0875 387.80637Q842.72815 389.197 841.8063 389.93137Q840.8844 390.66574 839.54065 390.66574Q838.15 390.66574 837.275 390.10324Q836.4 389.54074 835.9469 388.47824Q835.4938 387.40012 835.4938 386.16574Q835.4938 384.822 836.0094 383.822Q836.525 382.822 837.4625 382.30637Q838.41565 381.79074 839.5563 381.79074Q840.8375 381.79074 841.7125 382.447Q842.60315 383.10324 842.9469 384.29074L841.8219 384.55637Q841.525 383.61887 840.9469 383.197Q840.3844 382.7595 839.525 382.7595Q838.54065 382.7595 837.8688 383.24387Q837.2125 383.71262 836.9313 384.5095Q836.66565 385.30637 836.66565 386.16574Q836.66565 387.2595 836.97815 388.072Q837.3063 388.8845 837.97815 389.29074Q838.65 389.697 839.4469 389.697Q840.4 389.697 841.0563 389.15012Q841.72815 388.60324 841.9625 387.5095ZM844.8219 390.52512L844.8219 381.93137L845.97815 381.93137L850.4938 388.68137L850.4938 381.93137L851.5875 381.93137L851.5875 390.52512L850.41565 390.52512L845.9 383.77512L845.9 390.52512L844.8219 390.52512ZM853.8219 390.52512L853.8219 381.93137L854.97815 381.93137L859.4938 388.68137L859.4938 381.93137L860.5875 381.93137L860.5875 390.52512L859.41565 390.52512L854.9 383.77512L854.9 390.52512L853.8219 390.52512Z" fill-rule="nonzero"/><path fill="#9e9e9e" d="M832.8688 401.04074L831.8219 401.11887Q831.6813 400.49387 831.4313 400.21262Q830.9938 399.7595 830.3688 399.7595Q829.8688 399.7595 829.47815 400.04074Q828.9938 400.41574 828.6969 401.11887Q828.41565 401.80637 828.4 403.08762Q828.775 402.5095 829.3219 402.22824Q829.8844 401.947 830.4938 401.947Q831.54065 401.947 832.275 402.72824Q833.025 403.5095 833.025 404.72824Q833.025 405.54074 832.66565 406.24387Q832.3219 406.93137 831.7125 407.30637Q831.10315 407.66574 830.3375 407.66574Q829.0094 407.66574 828.1813 406.697Q827.35315 405.72824 827.35315 403.5095Q827.35315 401.0095 828.275 399.8845Q829.0719 398.90012 830.4313 398.90012Q831.4469 398.90012 832.0875 399.47824Q832.7438 400.04074 832.8688 401.04074ZM828.5719 404.74387Q828.5719 405.29074 828.79065 405.79074Q829.025 406.27512 829.4313 406.54074Q829.85315 406.80637 830.3219 406.80637Q830.97815 406.80637 831.4625 406.27512Q831.9469 405.72824 831.9469 404.80637Q831.9469 403.91574 831.4625 403.40012Q830.9938 402.8845 830.275 402.8845Q829.5563 402.8845 829.0563 403.40012Q828.5719 403.91574 828.5719 404.74387ZM834.4 405.27512L835.5094 405.18137Q835.6344 405.99387 836.0719 406.40012Q836.525 406.80637 837.16565 406.80637Q837.91565 406.80637 838.4469 406.22824Q838.97815 405.65012 838.97815 404.71262Q838.97815 403.80637 838.4625 403.29074Q837.9625 402.7595 837.1344 402.7595Q836.6344 402.7595 836.2125 402.99387Q835.8063 403.22824 835.5719 403.58762L834.5875 403.46262L835.41565 399.05637L839.6969 399.05637L839.6969 400.05637L836.2594 400.05637L835.8063 402.36887Q836.5719 401.822 837.41565 401.822Q838.54065 401.822 839.3063 402.60324Q840.0875 403.3845 840.0875 404.61887Q840.0875 405.77512 839.41565 406.6345Q838.5875 407.66574 837.16565 407.66574Q835.9938 407.66574 835.2438 407.0095Q834.5094 406.35324 834.4 405.27512ZM841.9938 407.52512L841.9938 406.322L843.1969 406.322L843.1969 407.52512L841.9938 407.52512ZM844.4625 400.05637L844.4625 399.04074L850.025 399.04074L850.025 399.86887Q849.2125 400.74387 848.4 402.197Q847.60315 403.6345 847.16565 405.16574Q846.8375 406.24387 846.7594 407.52512L845.66565 407.52512Q845.6813 406.5095 846.0563 405.072Q846.4469 403.6345 847.15 402.30637Q847.8688 400.97824 848.6813 400.05637L844.4625 400.05637ZM851.60315 400.99387Q851.60315 400.072 852.0563 399.43137Q852.525 398.79074 853.4 398.79074Q854.2125 398.79074 854.7438 399.36887Q855.275 399.947 855.275 401.05637Q855.275 402.15012 854.72815 402.74387Q854.1969 403.322 853.41565 403.322Q852.6344 403.322 852.1188 402.74387Q851.60315 402.16574 851.60315 400.99387ZM853.4313 399.5095Q853.04065 399.5095 852.775 399.85324Q852.525 400.197 852.525 401.10324Q852.525 401.93137 852.775 402.27512Q853.04065 402.60324 853.4313 402.60324Q853.8375 402.60324 854.0875 402.2595Q854.35315 401.91574 854.35315 401.02512Q854.35315 400.18137 854.0875 399.85324Q853.8219 399.5095 853.4313 399.5095ZM853.4313 407.83762L858.1344 398.79074L858.9938 398.79074L854.3063 407.83762L853.4313 407.83762ZM857.15 405.5095Q857.15 404.58762 857.60315 403.947Q858.0719 403.30637 858.9625 403.30637Q859.775 403.30637 860.3063 403.8845Q860.8375 404.447 860.8375 405.572Q860.8375 406.66574 860.29065 407.2595Q859.7594 407.83762 858.9625 407.83762Q858.1969 407.83762 857.66565 407.2595Q857.15 406.68137 857.15 405.5095ZM858.9938 404.02512Q858.5875 404.02512 858.3219 404.36887Q858.0719 404.71262 858.0719 405.61887Q858.0719 406.43137 858.3375 406.77512Q858.60315 407.11887 858.9938 407.11887Q859.3844 407.11887 859.65 406.77512Q859.91565 406.43137 859.91565 405.52512Q859.91565 404.697 859.65 404.36887Q859.3844 404.02512 858.9938 404.02512Z" fill-rule="nonzero"/><path stroke="#757575" stroke-width="1.0" stroke-linecap="butt" d="M861.9 395.02512L703.9 395.02512L656.4728 395.02512" fill-rule="nonzero"/><path fill="#9e9e9e" d="M658.4728 395.02512C658.4728 393.92053 657.57733 393.02512 656.4728 393.02512C655.3682 393.02512 654.4728 393.92053 654.4728 395.02512C654.4728 396.12967 655.3682 397.02512 656.4728 397.02512C657.57733 397.02512 658.4728 396.12967 658.4728 395.02512" fill-rule="nonzero"/></svg>